<svg width="720" height="334" viewBox="0 0 720 334" fill="none" xmlns="http://www.w3.org/2000/svg">
<g opacity="0.22">
<path d="M707.371 314.712C707.272 310.906 707.315 166.428 707.317 166.147C690.817 166.021 638.564 166.195 638.564 166.195C638.564 168.717 638.662 241.766 638.525 244.311C635.124 244.382 595.011 244.337 593.878 244.334C593.052 187.313 593.178 191.088 593.015 189.482C590.033 189.439 587.045 189.482 584.063 189.479C584.021 187.122 582.796 120.191 582.787 119.441C579.87 119.438 576.947 119.46 574.029 119.458C573.973 117.896 571.525 48.9169 571.275 46.4056C568.11 46.282 564.945 46.3887 561.781 46.3325L561.674 46.1752C561.457 42.5768 561.775 38.7987 561.59 26.5962C560.538 26.6102 559.49 26.5849 558.447 26.5203C558.5 24 558.5 15.921 558.5 13C557.94 13 556.634 13 555 13C552.996 13 550.498 13 548.279 13C545.849 13 543.752 13 543 13C542.986 16.2248 542.713 22.7141 542.806 25.8265C542.688 25.6411 542.581 25.4557 542.48 25.2675C542.469 25.6917 542.463 26.1158 542.463 26.54C541.241 26.599 540.015 26.6046 538.798 26.5849C538.798 26.8799 538.79 44.8297 538.765 46.1668C535.603 46.2089 532.441 46.0713 529.281 46.1977C529.093 48.8921 525.91 119.308 525.895 119.593C523.331 119.657 520.765 119.598 518.202 119.643C518.196 119.927 516.985 187.67 516.977 189.557C514.672 189.619 512.37 189.543 510.068 189.6C510.023 194.808 509.385 238.311 509.298 244.744C507.356 244.738 505.414 244.744 503.472 244.744C503.37 243.25 503.525 169.4 503.404 166.085C495.149 166.15 486.892 166.099 478.637 166.11C478.654 162.93 478.598 159.748 478.673 156.565C477.687 156.574 476.7 156.557 475.719 156.571C475.753 159.751 475.722 162.928 475.736 166.108C474.421 166.122 473.108 166.116 471.796 166.116C471.782 164.287 471.782 156.804 471.782 156.588C466.875 156.551 461.964 156.571 457.057 156.576C457.046 158.22 457.065 163.768 457.051 166.11C434.072 166.136 435.567 166.037 434.78 166.27C434.833 170.268 434.831 316.619 434.78 319.088C433.324 319.136 431.857 319.192 430.41 319.012C430.376 317.967 430.376 114.882 430.328 112.286C425.193 112.224 420.058 112.275 414.923 112.264C414.853 106.28 414.903 100.297 414.901 94.3167C395.333 94.2633 375.765 94.3701 356.204 94.2605C356.226 100.258 356.232 106.261 356.215 112.264C352.347 112.284 343.644 112.224 341.695 112.303C341.695 112.303 341.791 190.17 341.673 192.872C340.995 192.9 340.324 192.883 339.652 192.867C339.655 191.086 339.666 189.305 339.649 187.527C336.271 187.532 332.889 187.527 329.511 187.529C329.494 189.307 329.503 191.091 329.505 192.869C328.617 192.889 327.729 192.889 326.841 192.883C326.838 191.1 326.852 189.316 326.835 187.535C326.147 187.529 325.467 187.529 324.784 187.535C324.77 189.316 324.789 191.097 324.77 192.878C323.482 192.889 322.192 192.892 320.908 192.878C320.871 190.965 320.936 189.049 320.866 187.136C320.672 187.15 320.289 187.181 320.098 187.198C320.11 189.091 320.104 190.984 320.098 192.881C317.071 192.906 314.047 192.864 311.023 192.897C310.967 194.097 310.998 188.507 310.989 269.548C302.793 269.539 294.598 269.537 286.402 269.551C286.382 285.262 286.391 300.97 286.385 316.684C285.941 316.675 285.5 316.678 285.061 316.67C284.923 315.571 282.619 125.688 282.622 125.084C291.169 121.489 292.439 117.404 293.864 114.286C293.884 114.222 293.901 114.129 293.915 114.019C293.912 114.064 293.909 114.112 293.903 114.157C295.314 107.418 291.225 99.5528 278.94 96.5218C277.048 82.7771 279.142 91.0413 274.92 66.0549C274.456 63.7 274.133 62.543 275.081 61.2486C275.424 60.7809 275.734 60.464 275.526 59.8365C274.7 57.3434 271.938 58.7098 272.234 60.3441C272.501 61.3638 273.38 62.111 273.532 63.1784C273.428 63.8891 273.324 64.2121 273.13 65.2992C270.432 79.308 269.71 91.4178 268.968 96.5274C254.505 99.7292 253.827 110.05 253.827 110.05C253.362 112.585 253.982 113.767 253.982 114.047C255.61 119.136 259.781 123.454 266.719 125.536C266.649 130.096 262.987 316.032 262.981 316.316C262.087 316.307 259.226 316.302 258.2 316.189C258.198 288.071 258.212 259.952 258.189 231.831C256.087 231.839 253.984 231.853 251.885 231.828C251.868 229.339 251.913 226.853 251.86 224.37C248.478 224.359 245.094 224.381 241.71 224.395C241.722 226.873 241.727 229.35 241.71 231.828C237.731 231.845 233.751 231.842 229.771 231.831C229.765 229.345 229.782 226.859 229.76 224.37C226.373 224.381 222.989 224.35 219.605 224.373C219.605 224.654 219.594 231.145 219.611 231.828C217.716 231.853 215.825 231.834 213.93 231.839C213.911 259.727 213.939 287.619 213.913 315.51C213.014 315.56 209.81 315.456 207.921 315.445C207.893 313.751 207.904 104.193 207.899 101.918C204.681 101.806 194.247 101.848 194.093 101.839C193.986 97.6398 194.194 93.4318 193.992 89.2323C191.249 89.2155 188.505 89.2885 185.762 89.193C185.754 85.5412 185.802 81.8895 185.748 78.2377C184.169 78.3697 182.583 78.3136 181.004 78.2911C181.026 75.5382 180.858 72.7741 181.102 70.0297C179.823 70.1196 178.542 70.0802 177.263 70.0662C177.195 68.3948 177.221 66.7234 177.24 65.052C173.71 65.0071 170.18 65.0155 166.65 65.052C166.56 66.7206 166.628 68.3864 166.599 70.0578C165.335 70.0774 164.067 70.1196 162.802 70.0184C162.884 72.7882 162.87 75.5663 162.816 78.336C161.349 78.6001 159.86 78.4905 158.378 78.5551C158.016 82.7125 158.603 87.3755 158.1 89.2295C155.37 89.2379 152.631 89.2865 149.9 89.1905C149.837 89.2528 149.805 89.2851 149.741 89.3475C149.837 93.5161 149.784 97.6848 149.772 101.853C134.86 101.817 135.818 101.957 135.818 101.957C135.784 106.736 135.961 209.954 135.801 216.249L135.964 216.26C135.958 245.806 135.955 269.5 135.955 269.607C135.955 269.607 67.9748 269.629 67.9692 269.629C67.9636 284.158 67.9608 298.686 67.9608 313.212C65.2007 313.212 60.8921 313.06 57.1736 313.083C57.1736 313.083 57.1258 231.836 57.1258 231.834C42.3645 231.85 27.6087 231.828 12.8502 231.845C12.8502 232.126 12.8642 310.24 12.8417 312.327C8.56115 312.285 4.28057 312.198 0 312.144V333.634H719.518V314.498C715.468 314.574 711.418 314.619 707.371 314.712Z" fill="url(#paint0_linear)"/>
<path d="M547 0.5H555V13.5H547V0.5Z" fill="url(#paint1_linear)"/>
</g>
<defs>
<linearGradient id="paint0_linear" x1="359.759" y1="0.5" x2="359.759" y2="333.634" gradientUnits="userSpaceOnUse">
<stop stop-color="#B57715"/>
<stop offset="1" stop-color="#AB731E" stop-opacity="0"/>
</linearGradient>
<linearGradient id="paint1_linear" x1="359.759" y1="0.5" x2="359.759" y2="333.634" gradientUnits="userSpaceOnUse">
<stop stop-color="#B57715"/>
<stop offset="1" stop-color="#AB731E" stop-opacity="0"/>
</linearGradient>
</defs>
</svg>
