<svg width="34" height="34" viewBox="0 0 34 34" fill="none" xmlns="http://www.w3.org/2000/svg">
<circle cx="17.2106" cy="17.1193" r="15.2438" stroke="#2B2D31" stroke-width="2"/>
<g clip-path="url(#clip0)">
<path d="M24.9872 13.9094C24.9507 13.0815 24.8168 12.5123 24.625 12.019C24.4272 11.4955 24.1228 11.0267 23.7239 10.6371C23.3343 10.2413 22.8624 9.93385 22.345 9.73907C21.8489 9.54727 21.2826 9.41338 20.4547 9.37688C19.6205 9.33728 19.3557 9.32812 17.2401 9.32812C15.1245 9.32812 14.8596 9.33728 14.0286 9.37379C13.2006 9.41029 12.6314 9.5443 12.1383 9.73598C11.6146 9.93385 11.1459 10.2383 10.7562 10.6371C10.3605 11.0267 10.0531 11.4986 9.85821 12.0161C9.66641 12.5123 9.53252 13.0784 9.49602 13.9064C9.45642 14.7405 9.44727 15.0053 9.44727 17.1209C9.44727 19.2366 9.45642 19.5014 9.49293 20.3324C9.52943 21.1604 9.66344 21.7296 9.85524 22.2229C10.0531 22.7464 10.3605 23.2151 10.7562 23.6048C11.1459 24.0005 11.6177 24.308 12.1352 24.5028C12.6314 24.6946 13.1975 24.8285 14.0256 24.865C14.8565 24.9016 15.1215 24.9107 17.2371 24.9107C19.3527 24.9107 19.6175 24.9016 20.4486 24.865C21.2766 24.8285 21.8458 24.6946 22.3389 24.5028C23.3861 24.0979 24.2141 23.27 24.619 22.2229C24.8106 21.7266 24.9447 21.1604 24.9812 20.3324C25.0177 19.5014 25.0268 19.2366 25.0268 17.1209C25.0268 15.0053 25.0237 14.7405 24.9872 13.9094ZM23.584 20.2716C23.5505 21.0326 23.4226 21.4435 23.3161 21.7175C23.0542 22.3963 22.5155 22.9351 21.8366 23.197C21.5627 23.3035 21.1487 23.4313 20.3907 23.4647C19.5688 23.5014 19.3223 23.5104 17.2432 23.5104C15.164 23.5104 14.9145 23.5014 14.0955 23.4647C13.3345 23.4313 12.9236 23.3035 12.6496 23.197C12.3118 23.0721 12.0043 22.8742 11.7547 22.6155C11.4959 22.3628 11.2981 22.0584 11.1732 21.7206C11.0667 21.4466 10.9389 21.0326 10.9054 20.2746C10.8688 19.4527 10.8598 19.2061 10.8598 17.127C10.8598 15.0479 10.8688 14.7983 10.9054 13.9795C10.9389 13.2185 11.0667 12.8075 11.1732 12.5336C11.2981 12.1956 11.4959 11.8882 11.7578 11.6385C12.0103 11.3798 12.3148 11.1819 12.6527 11.0572C12.9267 10.9506 13.3407 10.8228 14.0986 10.7893C14.9205 10.7528 15.1671 10.7436 17.2461 10.7436C19.3284 10.7436 19.5749 10.7528 20.3938 10.7893C21.1548 10.8228 21.5657 10.9506 21.8397 11.0572C22.1775 11.1819 22.485 11.3798 22.7346 11.6385C22.9934 11.8912 23.1912 12.1956 23.3161 12.5336C23.4226 12.8075 23.5505 13.2214 23.584 13.9795C23.6205 14.8014 23.6296 15.0479 23.6296 17.127C23.6296 19.2061 23.6205 19.4497 23.584 20.2716Z" fill="#2B2D31"/>
<path d="M17.2398 13.1179C15.0298 13.1179 13.2368 14.9108 13.2368 17.1209C13.2368 19.3309 15.0298 21.1238 17.2398 21.1238C19.4498 21.1238 21.2427 19.3309 21.2427 17.1209C21.2427 14.9108 19.4498 13.1179 17.2398 13.1179ZM17.2398 19.7175C15.8061 19.7175 14.6432 18.5547 14.6432 17.1209C14.6432 15.6871 15.8061 14.5243 17.2398 14.5243C18.6736 14.5243 19.8364 15.6871 19.8364 17.1209C19.8364 18.5547 18.6736 19.7175 17.2398 19.7175Z" fill="#2B2D31"/>
<path d="M22.3354 12.9597C22.3354 13.4757 21.917 13.8942 21.4008 13.8942C20.8848 13.8942 20.4663 13.4757 20.4663 12.9597C20.4663 12.4435 20.8848 12.0251 21.4008 12.0251C21.917 12.0251 22.3354 12.4435 22.3354 12.9597Z" fill="#2B2D31"/>
</g>
<defs>
<clipPath id="clip0">
<rect width="15.5826" height="15.5826" fill="white" transform="translate(9.41943 9.32812)"/>
</clipPath>
</defs>
</svg>
