<svg width="34" height="34" viewBox="0 0 34 34" fill="none" xmlns="http://www.w3.org/2000/svg">
<circle cx="17.2004" cy="17.1193" r="15.2438" stroke="#2B2D31" stroke-width="2"/>
<g clip-path="url(#clip0)">
<path d="M21.3112 9.49436C21.3381 10.5377 22.0637 11.574 23.4335 11.574C24.7148 11.574 25.5605 10.6128 25.5605 9.43508C25.5605 8.37196 24.8294 7.29541 23.4327 7.29541C22.6755 7.29541 21.9815 7.63371 21.5871 8.33956L18.1906 7.3207C17.8634 7.22348 17.5306 7.41793 17.4468 7.73726L15.9269 13.5152C14.1595 13.6417 12.5454 14.1294 11.2231 14.8661C9.03359 12.8149 6.04027 16.1568 7.98945 18.472C6.58724 22.8525 11.6206 26.2655 16.8603 26.2655C22.1412 26.2655 27.1153 22.7956 25.7313 18.472C27.6741 16.1647 24.7029 12.8173 22.4945 14.8645C21.0164 14.0424 19.17 13.5382 17.1591 13.4923L18.4372 8.6328L21.3112 9.49436ZM23.4327 8.48104C24.1275 8.48104 24.3741 8.99482 24.3741 9.43587C24.3741 9.96308 24.0508 10.3891 23.4327 10.3891C22.7371 10.3891 22.4913 9.87535 22.4913 9.43429C22.4913 8.90155 22.817 8.48104 23.4327 8.48104ZM10.1663 15.5593C9.53946 16.0391 9.0162 16.5844 8.61941 17.1812C8.31905 16.0651 9.28258 15.1008 10.1663 15.5593ZM16.8603 25.0799C9.79161 25.0799 6.27186 19.4031 11.3416 16.1497C11.6752 15.9964 13.4473 14.6669 16.8603 14.6669C19.8292 14.6669 21.1871 15.6027 22.3775 16.1489C27.4283 19.3889 23.9726 25.0799 16.8603 25.0799ZM25.1013 17.182C24.7045 16.5844 24.1812 16.0391 23.5536 15.5593C24.4555 15.0937 25.3993 16.0762 25.1013 17.182Z" fill="#2B2D31"/>
<path d="M15.5219 19.1004C15.5219 18.0562 14.7331 17.3567 13.7696 17.3567C12.9191 17.3567 12.0156 17.9677 12.0156 19.1004C12.0156 20.1437 12.8029 20.844 13.768 20.844C14.6185 20.844 15.5219 20.233 15.5219 19.1004ZM13.2013 19.1004C13.2013 18.5826 13.636 18.5423 13.7696 18.5423C14.0881 18.5423 14.3363 18.7233 14.3363 19.1004C14.3363 19.6181 13.9016 19.6584 13.768 19.6584C13.6352 19.6584 13.2013 19.6181 13.2013 19.1004Z" fill="#2B2D31"/>
<path d="M19.9551 17.3567C19.1046 17.3567 18.2012 17.9677 18.2012 19.1004C18.2012 20.1437 18.9884 20.844 19.9535 20.844C20.804 20.844 21.7075 20.233 21.7075 19.1004C21.7075 18.0562 20.9186 17.3567 19.9551 17.3567ZM19.9535 19.6584C19.8207 19.6584 19.3868 19.6181 19.3868 19.1004C19.3868 18.5826 19.8215 18.5423 19.9551 18.5423C20.2737 18.5423 20.5219 18.7233 20.5219 19.1004C20.5219 19.6181 20.0871 19.6584 19.9535 19.6584Z" fill="#2B2D31"/>
<path d="M19.4675 21.855C18.5933 23.054 15.1566 23.069 14.2563 21.8557C13.8136 21.2139 12.8446 21.8739 13.2754 22.5213C14.5329 24.4199 19.1901 24.4207 20.4476 22.5213C20.8713 21.8866 19.9204 21.225 19.4675 21.855Z" fill="#2B2D31"/>
</g>
<defs>
<clipPath id="clip0">
<rect width="18.9701" height="18.9701" fill="white" transform="translate(7.37646 7.29541)"/>
</clipPath>
</defs>
</svg>
