<svg width="179" height="116" viewBox="0 0 179 116" fill="none" xmlns="http://www.w3.org/2000/svg">
<path d="M165.919 53.4394L165.921 53.4406L165.922 53.4418L173.983 60.5628L173.985 60.5646L173.987 60.5665C174.69 61.1579 174.96 62.0301 174.784 62.8913L172.654 73.3252C172.48 74.1755 171.819 74.8666 171.002 75.1536C171.002 75.154 171.001 75.154 171 75.1544L160.897 78.4805C160.896 78.4806 160.895 78.4809 160.895 78.481C160.002 78.7529 159.063 78.5556 158.436 77.9826L158.434 77.9813L158.433 77.9798L150.435 70.9532L150.433 70.9516L150.431 70.9501C149.728 70.3587 149.458 69.4864 149.634 68.6252L150.344 65.1478L154.516 63.736L153.859 66.9546C153.648 67.9864 154.06 69.0418 154.803 69.7205L154.805 69.722L154.806 69.7235L159.049 73.4499L159.051 73.4514L159.052 73.453C159.878 74.1468 160.982 74.3778 161.947 74.0397C161.947 74.0395 161.948 74.0396 161.948 74.0394L167.322 72.1976C168.366 71.8773 169.072 71.0419 169.28 70.0214L170.418 64.4515C170.628 63.4195 170.217 62.3641 169.474 61.6854L169.472 61.6839L169.47 61.6826L165.228 57.956L165.226 57.9544L165.224 57.9529C164.4 57.2594 163.295 57.0283 162.331 57.3657C162.33 57.366 162.329 57.3662 162.329 57.3665L155.47 59.6416L155.469 59.642L150.8 61.2214L150.799 61.2218L143.94 63.4969C143.048 63.7687 142.109 63.5711 141.482 62.9984L141.48 62.997L141.479 62.9956L133.481 55.9689L133.479 55.9674L133.477 55.9658C132.774 55.3744 132.504 54.5022 132.68 53.641L134.81 43.2071C134.986 42.3459 135.576 41.6492 136.455 41.3808L136.457 41.3801L136.459 41.3794L146.569 38.0512C147.462 37.7794 148.401 37.9768 149.028 38.5496L149.03 38.5514L156.87 45.5458L156.873 45.5479L156.875 45.5501C157.579 46.1415 157.848 47.0137 157.672 47.8749L156.962 51.3523L152.79 52.7641L153.447 49.5455C153.658 48.5137 153.246 47.4584 152.503 46.7797L152.502 46.7782L152.5 46.7767L148.258 43.0503L148.256 43.0488L148.254 43.0472C147.429 42.3537 146.325 42.1226 145.361 42.46L140.001 44.2236C138.957 44.5435 138.251 45.3793 138.042 46.4002L136.905 51.9704C136.694 53.0022 137.106 54.0575 137.849 54.7362L137.85 54.7374L137.851 54.7384L142.156 58.5593L142.159 58.5615L142.161 58.5633C142.986 59.2571 144.091 59.4881 145.055 59.15C145.056 59.1499 145.056 59.1499 145.056 59.1498L151.931 56.7962L156.583 55.2952L156.585 55.2947L156.587 55.2941L163.462 52.9405C164.354 52.6692 165.292 52.8669 165.919 53.4394Z" fill="#1E3445"/>
<rect x="7.25" y="34.25" width="20.5" height="51.5" stroke="#1E3445" stroke-width="0.5"/>
<path d="M15.4722 25.8074L21.7467 30.9292L28.0212 25.8074L24.2333 21.5562L24.233 21.5563H19.2604L19.2601 21.5562L15.4722 25.8074Z" fill="#FDD390" stroke="#1E3445" stroke-width="0.5"/>
<path d="M29.0087 24.7323L29.4928 19L25.6196 20.9108L29.0087 24.7323Z" fill="#FDD390" stroke="#1E3445" stroke-width="0.5"/>
<path d="M17.8732 20.9108L14 19L14.4842 24.7323L17.8732 20.9108Z" fill="#FDD390" stroke="#1E3445" stroke-width="0.5"/>
<path d="M28 45.75H108.758" stroke="#1E3445" stroke-width="0.5"/>
<circle cx="18" cy="43" r="4" fill="#37CFE1" stroke="#1E3445"/>
<rect opacity="0.65" x="14" y="48" width="8" height="2" rx="1" stroke="#1E3445" stroke-width="0.1"/>
<rect opacity="0.65" x="10" y="52" width="15" height="2" fill="#1E3445"/>
<rect x="8" y="56" width="19" height="5" fill="#1E3445"/>
<rect x="57.15" y="25.15" width="34.7" height="5.7" rx="1.85" stroke="#1E3445" stroke-width="0.3"/>
<path d="M87 27L88.4511 28.9735C88.4635 28.9904 88.4813 29 88.4999 29C88.5186 29 88.5364 28.9904 88.5488 28.9735L90 27" stroke="#1E3445" stroke-width="0.5"/>
<circle cx="60" cy="28" r="1" fill="#C4C4C4"/>
<path d="M63.5575 29L62.625 28.0925L63.48 27.25H63.2225L62.43 28.0325V27.25H62.235V29H62.43V28.16L63.29 29H63.5575ZM64.2173 29.025C64.6023 29.025 64.8598 28.75 64.8598 28.3825C64.8598 28.015 64.6023 27.74 64.2173 27.74C63.8323 27.74 63.5723 28.015 63.5723 28.3825C63.5723 28.75 63.8323 29.025 64.2173 29.025ZM64.2173 28.8525C63.9423 28.8525 63.7573 28.645 63.7573 28.3825C63.7573 28.12 63.9423 27.9125 64.2173 27.9125C64.4898 27.9125 64.6748 28.12 64.6748 28.3825C64.6748 28.645 64.4898 28.8525 64.2173 28.8525ZM66.0252 27.765L65.8252 28.25L65.6027 28.8025L65.3827 28.25L65.1827 27.765H64.9802L65.5027 29H65.7027L66.2252 27.765H66.0252ZM67.4583 27.765L67.4558 27.98C67.3583 27.8325 67.1783 27.74 66.9633 27.74C66.6008 27.74 66.3458 28.005 66.3458 28.3825C66.3458 28.76 66.6008 29.025 66.9633 29.025C67.1783 29.025 67.3583 28.935 67.4558 28.7875L67.4583 29H67.6258V27.765H67.4583ZM66.9858 28.8525C66.7208 28.8525 66.5308 28.6625 66.5308 28.3825C66.5308 28.1025 66.7208 27.9125 66.9858 27.9125C67.2508 27.9125 67.4408 28.1025 67.4408 28.3825C67.4408 28.6625 67.2508 28.8525 66.9858 28.8525ZM68.6304 27.745C68.4404 27.745 68.2779 27.8225 68.1754 27.9625L68.1729 27.765H68.0054V29H68.1904V28.3325C68.1904 28.095 68.3604 27.915 68.6079 27.915C68.8404 27.915 68.9729 28.06 68.9729 28.315V29H69.1579V28.305C69.1579 27.9575 68.9554 27.745 68.6304 27.745ZM71.3528 27.25H69.9428V27.4325H70.5528V29H70.7428V27.4325H71.3528V27.25ZM71.8512 27.74C71.4787 27.74 71.2237 28.005 71.2237 28.3825C71.2237 28.7675 71.4837 29.03 71.8687 29.03C72.0837 29.03 72.2837 28.945 72.3987 28.805L72.2787 28.6925C72.1987 28.7925 72.0337 28.8575 71.8737 28.8575C71.6137 28.8575 71.4337 28.705 71.4137 28.455H72.4762C72.5112 28.02 72.2687 27.74 71.8512 27.74ZM71.8562 27.9075C72.1162 27.9075 72.2887 28.0625 72.3012 28.295H71.4162C71.4462 28.055 71.6087 27.9075 71.8562 27.9075ZM73.2137 29.025C73.5237 29.025 73.7287 28.8775 73.7287 28.66C73.7287 28.445 73.5862 28.3425 73.2137 28.2875C72.9712 28.2475 72.8887 28.2 72.8887 28.0925C72.8887 27.97 73.0087 27.9025 73.2287 27.9025C73.3787 27.9025 73.4987 27.9425 73.6137 28.0275L73.7037 27.8925C73.5662 27.79 73.4137 27.74 73.2212 27.74C72.9087 27.74 72.7062 27.88 72.7062 28.095C72.7062 28.295 72.8537 28.4025 73.1962 28.45C73.4587 28.4925 73.5462 28.5425 73.5462 28.6575C73.5462 28.78 73.4187 28.8575 73.2162 28.8575C73.0362 28.8575 72.8687 28.7925 72.7637 28.69L72.6662 28.8225C72.8037 28.95 72.9987 29.025 73.2137 29.025ZM74.7312 28.805C74.6737 28.8325 74.6012 28.8525 74.5462 28.8525C74.3887 28.8525 74.3437 28.755 74.3437 28.605V27.9275H74.7362V27.765H74.3437V27.4025L74.1587 27.42V27.765H73.9087V27.9275H74.1587V28.605C74.1587 28.87 74.2712 29.02 74.5287 29.02C74.6187 29.02 74.7012 28.9975 74.7887 28.9575L74.7312 28.805ZM76.9443 27.25V28.6725L75.8868 27.25H75.7018V29H75.8943V27.5725L76.9543 29H77.1368V27.25H76.9443ZM78.0792 27.74C77.7067 27.74 77.4517 28.005 77.4517 28.3825C77.4517 28.7675 77.7117 29.03 78.0967 29.03C78.3117 29.03 78.5117 28.945 78.6267 28.805L78.5067 28.6925C78.4267 28.7925 78.2617 28.8575 78.1017 28.8575C77.8417 28.8575 77.6617 28.705 77.6417 28.455H78.7042C78.7392 28.02 78.4967 27.74 78.0792 27.74ZM78.0842 27.9075C78.3442 27.9075 78.5167 28.0625 78.5292 28.295H77.6442C77.6742 28.055 77.8367 27.9075 78.0842 27.9075ZM79.6946 28.805C79.6371 28.8325 79.5646 28.8525 79.5096 28.8525C79.3521 28.8525 79.3071 28.755 79.3071 28.605V27.9275H79.6996V27.765H79.3071V27.4025L79.1221 27.42V27.765H78.8721V27.9275H79.1221V28.605C79.1221 28.87 79.2346 29.02 79.4921 29.02C79.5821 29.02 79.6646 28.9975 79.7521 28.9575L79.6946 28.805ZM81.583 27.765L81.4255 28.255L81.2555 28.7875L80.9005 27.765H80.738L80.3805 28.785L80.213 28.255L80.0555 27.765H79.858L80.278 29H80.4805L80.603 28.6425L80.8205 28.0325L81.038 28.6425L81.158 29H81.3605L81.778 27.765H81.583ZM82.545 29.025C82.93 29.025 83.1875 28.75 83.1875 28.3825C83.1875 28.015 82.93 27.74 82.545 27.74C82.16 27.74 81.9 28.015 81.9 28.3825C81.9 28.75 82.16 29.025 82.545 29.025ZM82.545 28.8525C82.27 28.8525 82.085 28.645 82.085 28.3825C82.085 28.12 82.27 27.9125 82.545 27.9125C82.8175 27.9125 83.0025 28.12 83.0025 28.3825C83.0025 28.645 82.8175 28.8525 82.545 28.8525ZM84.5114 29L83.8514 28.3625L84.4339 27.765H84.1989L83.6689 28.315V27.25H83.4839V29H83.6689V28.425L84.2589 29H84.5114Z" fill="black"/>
<circle cx="97" cy="28" r="3" fill="#37CFE1" stroke="black"/>
<g opacity="0.95">
<path fill-rule="evenodd" clip-rule="evenodd" d="M57 33.95C57 32.873 57.873 32 58.95 32H98.05C99.127 32 100 32.873 100 33.95C100 35.027 99.127 35.9 98.05 35.9H58.95C57.873 35.9 57 35.027 57 33.95ZM57 38C57 36.8954 57.8954 36 59 36H98C99.1046 36 100 36.8954 100 38V62C100 63.1046 99.1046 64 98 64H59C57.8954 64 57 63.1046 57 62V38ZM61 41C61.5523 41 62 40.5523 62 40C62 39.4477 61.5523 39 61 39C60.4477 39 60 39.4477 60 40C60 40.5523 60.4477 41 61 41ZM62 44C62 44.5523 61.5523 45 61 45C60.4477 45 60 44.5523 60 44C60 43.4477 60.4477 43 61 43C61.5523 43 62 43.4477 62 44ZM61 53C61.5523 53 62 52.5523 62 52C62 51.4477 61.5523 51 61 51C60.4477 51 60 51.4477 60 52C60 52.5523 60.4477 53 61 53ZM62 56C62 56.5523 61.5523 57 61 57C60.4477 57 60 56.5523 60 56C60 55.4477 60.4477 55 61 55C61.5523 55 62 55.4477 62 56ZM61 61C61.5523 61 62 60.5523 62 60C62 59.4477 61.5523 59 61 59C60.4477 59 60 59.4477 60 60C60 60.5523 60.4477 61 61 61Z" fill="#1E3445"/>
<circle cx="61" cy="48" r="1" fill="#C4C4C4"/>
<path d="M74.4775 33.25V34.6725L73.42 33.25H73.235V35H73.4275V33.5725L74.4875 35H74.67V33.25H74.4775ZM75.6124 33.74C75.2399 33.74 74.9849 34.005 74.9849 34.3825C74.9849 34.7675 75.2449 35.03 75.6299 35.03C75.8449 35.03 76.0449 34.945 76.1599 34.805L76.0399 34.6925C75.9599 34.7925 75.7949 34.8575 75.6349 34.8575C75.3749 34.8575 75.1949 34.705 75.1749 34.455H76.2374C76.2724 34.02 76.0299 33.74 75.6124 33.74ZM75.6174 33.9075C75.8774 33.9075 76.0499 34.0625 76.0624 34.295H75.1774C75.2074 34.055 75.3699 33.9075 75.6174 33.9075ZM77.2278 34.805C77.1703 34.8325 77.0978 34.8525 77.0428 34.8525C76.8853 34.8525 76.8403 34.755 76.8403 34.605V33.9275H77.2328V33.765H76.8403V33.4025L76.6553 33.42V33.765H76.4053V33.9275H76.6553V34.605C76.6553 34.87 76.7678 35.02 77.0253 35.02C77.1153 35.02 77.1978 34.9975 77.2853 34.9575L77.2278 34.805ZM79.1162 33.765L78.9587 34.255L78.7887 34.7875L78.4337 33.765H78.2712L77.9137 34.785L77.7462 34.255L77.5887 33.765H77.3912L77.8112 35H78.0137L78.1362 34.6425L78.3537 34.0325L78.5712 34.6425L78.6912 35H78.8937L79.3112 33.765H79.1162ZM80.0782 35.025C80.4632 35.025 80.7207 34.75 80.7207 34.3825C80.7207 34.015 80.4632 33.74 80.0782 33.74C79.6932 33.74 79.4332 34.015 79.4332 34.3825C79.4332 34.75 79.6932 35.025 80.0782 35.025ZM80.0782 34.8525C79.8032 34.8525 79.6182 34.645 79.6182 34.3825C79.6182 34.12 79.8032 33.9125 80.0782 33.9125C80.3507 33.9125 80.5357 34.12 80.5357 34.3825C80.5357 34.645 80.3507 34.8525 80.0782 34.8525ZM81.5871 33.745C81.4146 33.745 81.2771 33.8325 81.1871 34L81.1846 33.765H81.0171V35H81.2021V34.3825C81.2021 34.115 81.3571 33.9275 81.5796 33.9275C81.6546 33.9275 81.7221 33.945 81.7871 33.9875L81.8721 33.8325C81.7996 33.7775 81.6946 33.745 81.5871 33.745ZM83.0945 35L82.4345 34.3625L83.017 33.765H82.782L82.252 34.315V33.25H82.067V35H82.252V34.425L82.842 35H83.0945ZM83.7157 35.025C84.0257 35.025 84.2307 34.8775 84.2307 34.66C84.2307 34.445 84.0882 34.3425 83.7157 34.2875C83.4732 34.2475 83.3907 34.2 83.3907 34.0925C83.3907 33.97 83.5107 33.9025 83.7307 33.9025C83.8807 33.9025 84.0007 33.9425 84.1157 34.0275L84.2057 33.8925C84.0682 33.79 83.9157 33.74 83.7232 33.74C83.4107 33.74 83.2082 33.88 83.2082 34.095C83.2082 34.295 83.3557 34.4025 83.6982 34.45C83.9607 34.4925 84.0482 34.5425 84.0482 34.6575C84.0482 34.78 83.9207 34.8575 83.7182 34.8575C83.5382 34.8575 83.3707 34.7925 83.2657 34.69L83.1682 34.8225C83.3057 34.95 83.5007 35.025 83.7157 35.025Z" fill="white"/>
<path d="M65.484 39.6L64.91 40.366L64.336 39.6H64.188V41H64.342V39.86L64.892 40.59H64.928L65.478 39.86V41H65.632V39.6H65.484ZM66.7748 40.012L66.7728 40.184C66.6948 40.066 66.5508 39.992 66.3788 39.992C66.0888 39.992 65.8848 40.204 65.8848 40.506C65.8848 40.808 66.0888 41.02 66.3788 41.02C66.5508 41.02 66.6948 40.948 66.7728 40.83L66.7748 41H66.9088V40.012H66.7748ZM66.3968 40.882C66.1848 40.882 66.0328 40.73 66.0328 40.506C66.0328 40.282 66.1848 40.13 66.3968 40.13C66.6088 40.13 66.7608 40.282 66.7608 40.506C66.7608 40.73 66.6088 40.882 66.3968 40.882ZM67.2865 39.818C67.3505 39.818 67.3945 39.774 67.3945 39.714C67.3945 39.654 67.3505 39.608 67.2865 39.608C67.2245 39.608 67.1805 39.654 67.1805 39.714C67.1805 39.774 67.2245 39.818 67.2865 39.818ZM67.2125 41H67.3605V40.012H67.2125V41ZM68.1637 39.996C68.0117 39.996 67.8817 40.058 67.7997 40.17L67.7977 40.012H67.6637V41H67.8117V40.466C67.8117 40.276 67.9477 40.132 68.1457 40.132C68.3317 40.132 68.4377 40.248 68.4377 40.452V41H68.5857V40.444C68.5857 40.166 68.4237 39.996 68.1637 39.996ZM69.5822 40.854V40.364H70.3842V40.22H69.5822V39.744H70.4222V39.6H69.4282V41H70.4402V40.854H69.5822ZM71.2338 40.844C71.1878 40.866 71.1298 40.882 71.0858 40.882C70.9598 40.882 70.9238 40.804 70.9238 40.684V40.142H71.2378V40.012H70.9238V39.722L70.7758 39.736V40.012H70.5758V40.142H70.7758V40.684C70.7758 40.896 70.8658 41.016 71.0718 41.016C71.1438 41.016 71.2098 40.998 71.2798 40.966L71.2338 40.844ZM71.9665 39.996C71.8185 39.996 71.6965 40.056 71.6145 40.162V39.6H71.4665V41H71.6145V40.466C71.6145 40.276 71.7505 40.132 71.9485 40.132C72.1345 40.132 72.2405 40.248 72.2405 40.452V41H72.3885V40.444C72.3885 40.168 72.2285 39.996 71.9665 39.996ZM73.1153 39.992C72.8173 39.992 72.6133 40.204 72.6133 40.506C72.6133 40.814 72.8213 41.024 73.1293 41.024C73.3013 41.024 73.4613 40.956 73.5533 40.844L73.4573 40.754C73.3933 40.834 73.2613 40.886 73.1333 40.886C72.9253 40.886 72.7813 40.764 72.7653 40.564H73.6153C73.6433 40.216 73.4493 39.992 73.1153 39.992ZM73.1193 40.126C73.3273 40.126 73.4653 40.25 73.4753 40.436H72.7673C72.7913 40.244 72.9213 40.126 73.1193 40.126ZM74.3014 39.996C74.1634 39.996 74.0534 40.066 73.9814 40.2L73.9794 40.012H73.8454V41H73.9934V40.506C73.9934 40.292 74.1174 40.142 74.2954 40.142C74.3554 40.142 74.4094 40.156 74.4614 40.19L74.5294 40.066C74.4714 40.022 74.3874 39.996 74.3014 39.996ZM75.0821 39.992C74.7841 39.992 74.5801 40.204 74.5801 40.506C74.5801 40.814 74.7881 41.024 75.0961 41.024C75.2681 41.024 75.4281 40.956 75.5201 40.844L75.4241 40.754C75.3601 40.834 75.2281 40.886 75.1001 40.886C74.8921 40.886 74.7481 40.764 74.7321 40.564H75.5821C75.6101 40.216 75.4161 39.992 75.0821 39.992ZM75.0861 40.126C75.2941 40.126 75.4321 40.25 75.4421 40.436H74.7341C74.7581 40.244 74.8881 40.126 75.0861 40.126ZM76.5602 40.012V40.546C76.5602 40.736 76.4282 40.88 76.2322 40.88C76.0522 40.88 75.9462 40.764 75.9462 40.56V40.012H75.7982V40.568C75.7982 40.846 75.9602 41.016 76.2142 41.016C76.3642 41.016 76.4922 40.952 76.5742 40.84L76.5762 41H76.7082V40.012H76.5602ZM78.1653 39.996C78.0073 39.996 77.8793 40.068 77.8033 40.202C77.7473 40.072 77.6233 39.996 77.4633 39.996C77.3313 39.996 77.2213 40.052 77.1493 40.16L77.1473 40.012H77.0133V41H77.1613V40.448C77.1613 40.264 77.2833 40.132 77.4553 40.132C77.6253 40.132 77.7173 40.24 77.7173 40.434V41H77.8653V40.448C77.8653 40.264 77.9873 40.132 78.1593 40.132C78.3273 40.132 78.4193 40.24 78.4193 40.434V41H78.5673V40.426C78.5673 40.156 78.4153 39.996 78.1653 39.996ZM80.4027 39.6V40.738L79.5567 39.6H79.4087V41H79.5627V39.858L80.4107 41H80.5567V39.6H80.4027ZM81.3107 39.992C81.0127 39.992 80.8087 40.204 80.8087 40.506C80.8087 40.814 81.0167 41.024 81.3247 41.024C81.4967 41.024 81.6567 40.956 81.7487 40.844L81.6527 40.754C81.5887 40.834 81.4567 40.886 81.3287 40.886C81.1207 40.886 80.9767 40.764 80.9607 40.564H81.8107C81.8387 40.216 81.6447 39.992 81.3107 39.992ZM81.3147 40.126C81.5227 40.126 81.6607 40.25 81.6707 40.436H80.9627C80.9867 40.244 81.1167 40.126 81.3147 40.126ZM82.6029 40.844C82.5569 40.866 82.4989 40.882 82.4549 40.882C82.3289 40.882 82.2929 40.804 82.2929 40.684V40.142H82.6069V40.012H82.2929V39.722L82.1449 39.736V40.012H81.9449V40.142H82.1449V40.684C82.1449 40.896 82.2349 41.016 82.4409 41.016C82.5129 41.016 82.5789 40.998 82.6489 40.966L82.6029 40.844ZM84.1137 40.012L83.9877 40.404L83.8517 40.83L83.5677 40.012H83.4377L83.1517 40.828L83.0177 40.404L82.8917 40.012H82.7337L83.0697 41H83.2317L83.3297 40.714L83.5037 40.226L83.6777 40.714L83.7737 41H83.9357L84.2697 40.012H84.1137ZM84.8833 41.02C85.1913 41.02 85.3973 40.8 85.3973 40.506C85.3973 40.212 85.1913 39.992 84.8833 39.992C84.5752 39.992 84.3673 40.212 84.3673 40.506C84.3673 40.8 84.5752 41.02 84.8833 41.02ZM84.8833 40.882C84.6633 40.882 84.5153 40.716 84.5153 40.506C84.5153 40.296 84.6633 40.13 84.8833 40.13C85.1013 40.13 85.2493 40.296 85.2493 40.506C85.2493 40.716 85.1013 40.882 84.8833 40.882ZM86.0904 39.996C85.9524 39.996 85.8424 40.066 85.7704 40.2L85.7684 40.012H85.6344V41H85.7824V40.506C85.7824 40.292 85.9064 40.142 86.0844 40.142C86.1444 40.142 86.1984 40.156 86.2504 40.19L86.3184 40.066C86.2604 40.022 86.1764 39.996 86.0904 39.996ZM87.2963 41L86.7683 40.49L87.2343 40.012H87.0463L86.6223 40.452V39.6H86.4743V41H86.6223V40.54L87.0943 41H87.2963Z" fill="white"/>
<path d="M65.148 45H65.346L64.886 44.488C65.134 44.462 65.292 44.292 65.292 44.046C65.292 43.778 65.104 43.6 64.818 43.6H64.188V45H64.342V44.492H64.696L65.148 45ZM64.82 43.746C65.018 43.746 65.14 43.864 65.14 44.046C65.14 44.23 65.018 44.344 64.82 44.344H64.342V43.746H64.82ZM65.9692 45.02C66.2772 45.02 66.4832 44.8 66.4832 44.506C66.4832 44.212 66.2772 43.992 65.9692 43.992C65.6612 43.992 65.4532 44.212 65.4532 44.506C65.4532 44.8 65.6612 45.02 65.9692 45.02ZM65.9692 44.882C65.7492 44.882 65.6012 44.716 65.6012 44.506C65.6012 44.296 65.7492 44.13 65.9692 44.13C66.1872 44.13 66.3352 44.296 66.3352 44.506C66.3352 44.716 66.1872 44.882 65.9692 44.882ZM67.2484 43.992C67.0764 43.992 66.9304 44.066 66.8564 44.184L66.8544 44.012H66.7204V45.47H66.8684V44.846C66.9464 44.954 67.0844 45.02 67.2484 45.02C67.5404 45.02 67.7444 44.808 67.7444 44.506C67.7444 44.204 67.5404 43.992 67.2484 43.992ZM67.2324 44.882C67.0204 44.882 66.8684 44.73 66.8684 44.506C66.8684 44.282 67.0204 44.13 67.2324 44.13C67.4444 44.13 67.5964 44.282 67.5964 44.506C67.5964 44.73 67.4444 44.882 67.2324 44.882ZM68.3323 45.02C68.5803 45.02 68.7443 44.902 68.7443 44.728C68.7443 44.556 68.6303 44.474 68.3323 44.43C68.1383 44.398 68.0723 44.36 68.0723 44.274C68.0723 44.176 68.1683 44.122 68.3443 44.122C68.4643 44.122 68.5603 44.154 68.6523 44.222L68.7243 44.114C68.6143 44.032 68.4923 43.992 68.3383 43.992C68.0883 43.992 67.9263 44.104 67.9263 44.276C67.9263 44.436 68.0443 44.522 68.3183 44.56C68.5283 44.594 68.5983 44.634 68.5983 44.726C68.5983 44.824 68.4963 44.886 68.3343 44.886C68.1903 44.886 68.0563 44.834 67.9723 44.752L67.8943 44.858C68.0043 44.96 68.1603 45.02 68.3323 45.02ZM69.5463 44.844C69.5003 44.866 69.4423 44.882 69.3983 44.882C69.2723 44.882 69.2363 44.804 69.2363 44.684V44.142H69.5503V44.012H69.2363V43.722L69.0883 43.736V44.012H68.8883V44.142H69.0883V44.684C69.0883 44.896 69.1783 45.016 69.3843 45.016C69.4563 45.016 69.5223 44.998 69.5923 44.966L69.5463 44.844ZM70.2071 43.992C69.9091 43.992 69.7051 44.204 69.7051 44.506C69.7051 44.814 69.9131 45.024 70.2211 45.024C70.3931 45.024 70.5531 44.956 70.6451 44.844L70.5491 44.754C70.4851 44.834 70.3531 44.886 70.2251 44.886C70.0171 44.886 69.8731 44.764 69.8571 44.564H70.7071C70.7351 44.216 70.5411 43.992 70.2071 43.992ZM70.2111 44.126C70.4191 44.126 70.5571 44.25 70.5671 44.436H69.8591C69.8831 44.244 70.0131 44.126 70.2111 44.126ZM71.4372 43.996C71.2852 43.996 71.1552 44.058 71.0732 44.17L71.0712 44.012H70.9372V45H71.0852V44.466C71.0852 44.276 71.2212 44.132 71.4192 44.132C71.6052 44.132 71.7112 44.248 71.7112 44.452V45H71.8592V44.444C71.8592 44.166 71.6972 43.996 71.4372 43.996ZM73.6151 43.6H72.4871V43.746H72.9751V45H73.1271V43.746H73.6151V43.6ZM74.0138 43.992C73.7158 43.992 73.5118 44.204 73.5118 44.506C73.5118 44.814 73.7198 45.024 74.0278 45.024C74.1998 45.024 74.3598 44.956 74.4518 44.844L74.3558 44.754C74.2918 44.834 74.1598 44.886 74.0318 44.886C73.8238 44.886 73.6798 44.764 73.6638 44.564H74.5138C74.5418 44.216 74.3478 43.992 74.0138 43.992ZM74.0178 44.126C74.2258 44.126 74.3638 44.25 74.3738 44.436H73.6658C73.6898 44.244 73.8198 44.126 74.0178 44.126ZM75.1038 45.02C75.3518 45.02 75.5158 44.902 75.5158 44.728C75.5158 44.556 75.4018 44.474 75.1038 44.43C74.9098 44.398 74.8438 44.36 74.8438 44.274C74.8438 44.176 74.9398 44.122 75.1158 44.122C75.2358 44.122 75.3318 44.154 75.4238 44.222L75.4958 44.114C75.3858 44.032 75.2638 43.992 75.1098 43.992C74.8598 43.992 74.6978 44.104 74.6978 44.276C74.6978 44.436 74.8158 44.522 75.0898 44.56C75.2998 44.594 75.3698 44.634 75.3698 44.726C75.3698 44.824 75.2678 44.886 75.1058 44.886C74.9618 44.886 74.8278 44.834 74.7438 44.752L74.6658 44.858C74.7758 44.96 74.9318 45.02 75.1038 45.02ZM76.3178 44.844C76.2718 44.866 76.2138 44.882 76.1698 44.882C76.0438 44.882 76.0078 44.804 76.0078 44.684V44.142H76.3218V44.012H76.0078V43.722L75.8598 43.736V44.012H75.6597V44.142H75.8598V44.684C75.8598 44.896 75.9498 45.016 76.1558 45.016C76.2278 45.016 76.2938 44.998 76.3638 44.966L76.3178 44.844ZM78.0883 43.6V44.738L77.2423 43.6H77.0943V45H77.2483V43.858L78.0963 45H78.2423V43.6H78.0883ZM78.9962 43.992C78.6982 43.992 78.4942 44.204 78.4942 44.506C78.4942 44.814 78.7022 45.024 79.0102 45.024C79.1822 45.024 79.3422 44.956 79.4342 44.844L79.3382 44.754C79.2742 44.834 79.1422 44.886 79.0142 44.886C78.8062 44.886 78.6622 44.764 78.6462 44.564H79.4962C79.5242 44.216 79.3302 43.992 78.9962 43.992ZM79.0002 44.126C79.2082 44.126 79.3462 44.25 79.3562 44.436H78.6482C78.6722 44.244 78.8022 44.126 79.0002 44.126ZM80.2885 44.844C80.2425 44.866 80.1845 44.882 80.1405 44.882C80.0145 44.882 79.9785 44.804 79.9785 44.684V44.142H80.2925V44.012H79.9785V43.722L79.8305 43.736V44.012H79.6305V44.142H79.8305V44.684C79.8305 44.896 79.9205 45.016 80.1265 45.016C80.1985 45.016 80.2645 44.998 80.3345 44.966L80.2885 44.844ZM81.7992 44.012L81.6732 44.404L81.5372 44.83L81.2532 44.012H81.1232L80.8372 44.828L80.7032 44.404L80.5772 44.012H80.4192L80.7552 45H80.9172L81.0152 44.714L81.1892 44.226L81.3632 44.714L81.4592 45H81.6212L81.9552 44.012H81.7992ZM82.5688 45.02C82.8768 45.02 83.0828 44.8 83.0828 44.506C83.0828 44.212 82.8768 43.992 82.5688 43.992C82.2608 43.992 82.0528 44.212 82.0528 44.506C82.0528 44.8 82.2608 45.02 82.5688 45.02ZM82.5688 44.882C82.3488 44.882 82.2008 44.716 82.2008 44.506C82.2008 44.296 82.3488 44.13 82.5688 44.13C82.7868 44.13 82.9348 44.296 82.9348 44.506C82.9348 44.716 82.7868 44.882 82.5688 44.882ZM83.776 43.996C83.638 43.996 83.528 44.066 83.456 44.2L83.454 44.012H83.32V45H83.468V44.506C83.468 44.292 83.592 44.142 83.77 44.142C83.83 44.142 83.884 44.156 83.936 44.19L84.004 44.066C83.946 44.022 83.862 43.996 83.776 43.996ZM84.9818 45L84.4538 44.49L84.9198 44.012H84.7318L84.3078 44.452V43.6H84.1598V45H84.3078V44.54L84.7798 45H84.9818Z" fill="white"/>
<path d="M65.246 49L64.5 48.274L65.184 47.6H64.978L64.344 48.226V47.6H64.188V49H64.344V48.328L65.032 49H65.246ZM65.7739 49.02C66.0819 49.02 66.2879 48.8 66.2879 48.506C66.2879 48.212 66.0819 47.992 65.7739 47.992C65.4659 47.992 65.2579 48.212 65.2579 48.506C65.2579 48.8 65.4659 49.02 65.7739 49.02ZM65.7739 48.882C65.5539 48.882 65.4059 48.716 65.4059 48.506C65.4059 48.296 65.5539 48.13 65.7739 48.13C65.9919 48.13 66.1399 48.296 66.1399 48.506C66.1399 48.716 65.9919 48.882 65.7739 48.882ZM67.2201 48.012L67.0601 48.4L66.8821 48.842L66.7061 48.4L66.5461 48.012H66.3841L66.8021 49H66.9621L67.3801 48.012H67.2201ZM68.3666 48.012L68.3646 48.184C68.2866 48.066 68.1426 47.992 67.9706 47.992C67.6806 47.992 67.4766 48.204 67.4766 48.506C67.4766 48.808 67.6806 49.02 67.9706 49.02C68.1426 49.02 68.2866 48.948 68.3646 48.83L68.3666 49H68.5006V48.012H68.3666ZM67.9886 48.882C67.7766 48.882 67.6246 48.73 67.6246 48.506C67.6246 48.282 67.7766 48.13 67.9886 48.13C68.2006 48.13 68.3526 48.282 68.3526 48.506C68.3526 48.73 68.2006 48.882 67.9886 48.882ZM69.3043 47.996C69.1523 47.996 69.0223 48.058 68.9403 48.17L68.9383 48.012H68.8043V49H68.9523V48.466C68.9523 48.276 69.0883 48.132 69.2863 48.132C69.4723 48.132 69.5783 48.248 69.5783 48.452V49H69.7263V48.444C69.7263 48.166 69.5643 47.996 69.3043 47.996ZM71.4823 47.6H70.3543V47.746H70.8423V49H70.9943V47.746H71.4823V47.6ZM71.881 47.992C71.583 47.992 71.379 48.204 71.379 48.506C71.379 48.814 71.587 49.024 71.895 49.024C72.067 49.024 72.227 48.956 72.319 48.844L72.223 48.754C72.159 48.834 72.027 48.886 71.899 48.886C71.691 48.886 71.547 48.764 71.531 48.564H72.381C72.409 48.216 72.215 47.992 71.881 47.992ZM71.885 48.126C72.093 48.126 72.231 48.25 72.241 48.436H71.533C71.557 48.244 71.687 48.126 71.885 48.126ZM72.971 49.02C73.219 49.02 73.383 48.902 73.383 48.728C73.383 48.556 73.269 48.474 72.971 48.43C72.777 48.398 72.711 48.36 72.711 48.274C72.711 48.176 72.807 48.122 72.983 48.122C73.103 48.122 73.199 48.154 73.291 48.222L73.363 48.114C73.253 48.032 73.131 47.992 72.977 47.992C72.727 47.992 72.565 48.104 72.565 48.276C72.565 48.436 72.683 48.522 72.957 48.56C73.167 48.594 73.237 48.634 73.237 48.726C73.237 48.824 73.135 48.886 72.973 48.886C72.829 48.886 72.695 48.834 72.611 48.752L72.533 48.858C72.643 48.96 72.799 49.02 72.971 49.02ZM74.1849 48.844C74.1389 48.866 74.0809 48.882 74.0369 48.882C73.9109 48.882 73.8749 48.804 73.8749 48.684V48.142H74.1889V48.012H73.8749V47.722L73.7269 47.736V48.012H73.5269V48.142H73.7269V48.684C73.7269 48.896 73.8169 49.016 74.0229 49.016C74.0949 49.016 74.1609 48.998 74.2309 48.966L74.1849 48.844ZM75.9554 47.6V48.738L75.1094 47.6H74.9614V49H75.1154V47.858L75.9634 49H76.1094V47.6H75.9554ZM76.8634 47.992C76.5654 47.992 76.3614 48.204 76.3614 48.506C76.3614 48.814 76.5694 49.024 76.8774 49.024C77.0494 49.024 77.2094 48.956 77.3014 48.844L77.2054 48.754C77.1414 48.834 77.0094 48.886 76.8814 48.886C76.6734 48.886 76.5294 48.764 76.5134 48.564H77.3634C77.3914 48.216 77.1974 47.992 76.8634 47.992ZM76.8674 48.126C77.0754 48.126 77.2134 48.25 77.2234 48.436H76.5154C76.5394 48.244 76.6694 48.126 76.8674 48.126ZM78.1556 48.844C78.1096 48.866 78.0516 48.882 78.0076 48.882C77.8816 48.882 77.8456 48.804 77.8456 48.684V48.142H78.1596V48.012H77.8456V47.722L77.6976 47.736V48.012H77.4976V48.142H77.6976V48.684C77.6976 48.896 77.7876 49.016 77.9936 49.016C78.0656 49.016 78.1316 48.998 78.2016 48.966L78.1556 48.844ZM79.6664 48.012L79.5404 48.404L79.4044 48.83L79.1204 48.012H78.9904L78.7044 48.828L78.5704 48.404L78.4444 48.012H78.2864L78.6224 49H78.7844L78.8824 48.714L79.0564 48.226L79.2304 48.714L79.3264 49H79.4884L79.8224 48.012H79.6664ZM80.436 49.02C80.744 49.02 80.95 48.8 80.95 48.506C80.95 48.212 80.744 47.992 80.436 47.992C80.128 47.992 79.92 48.212 79.92 48.506C79.92 48.8 80.128 49.02 80.436 49.02ZM80.436 48.882C80.216 48.882 80.068 48.716 80.068 48.506C80.068 48.296 80.216 48.13 80.436 48.13C80.654 48.13 80.802 48.296 80.802 48.506C80.802 48.716 80.654 48.882 80.436 48.882ZM81.6432 47.996C81.5052 47.996 81.3952 48.066 81.3232 48.2L81.3212 48.012H81.1872V49H81.3352V48.506C81.3352 48.292 81.4592 48.142 81.6372 48.142C81.6972 48.142 81.7512 48.156 81.8032 48.19L81.8712 48.066C81.8132 48.022 81.7292 47.996 81.6432 47.996ZM82.849 49L82.321 48.49L82.787 48.012H82.599L82.175 48.452V47.6H82.027V49H82.175V48.54L82.647 49H82.849Z" fill="white"/>
<path d="M65.148 53H65.346L64.886 52.488C65.134 52.462 65.292 52.292 65.292 52.046C65.292 51.778 65.104 51.6 64.818 51.6H64.188V53H64.342V52.492H64.696L65.148 53ZM64.82 51.746C65.018 51.746 65.14 51.864 65.14 52.046C65.14 52.23 65.018 52.344 64.82 52.344H64.342V51.746H64.82ZM65.6381 51.818C65.7021 51.818 65.7461 51.774 65.7461 51.714C65.7461 51.654 65.7021 51.608 65.6381 51.608C65.5761 51.608 65.5321 51.654 65.5321 51.714C65.5321 51.774 65.5761 51.818 65.6381 51.818ZM65.5641 53H65.7121V52.012H65.5641V53ZM66.5153 51.996C66.3633 51.996 66.2333 52.058 66.1513 52.17L66.1493 52.012H66.0153V53H66.1633V52.466C66.1633 52.276 66.2993 52.132 66.4973 52.132C66.6833 52.132 66.7893 52.248 66.7893 52.452V53H66.9373V52.444C66.9373 52.166 66.7753 51.996 66.5153 51.996ZM68.0502 53L67.5222 52.49L67.9882 52.012H67.8002L67.3762 52.452V51.6H67.2282V53H67.3762V52.54L67.8482 53H68.0502ZM68.588 51.992C68.29 51.992 68.086 52.204 68.086 52.506C68.086 52.814 68.294 53.024 68.602 53.024C68.774 53.024 68.934 52.956 69.026 52.844L68.93 52.754C68.866 52.834 68.734 52.886 68.606 52.886C68.398 52.886 68.254 52.764 68.238 52.564H69.088C69.116 52.216 68.922 51.992 68.588 51.992ZM68.592 52.126C68.8 52.126 68.938 52.25 68.948 52.436H68.24C68.264 52.244 68.394 52.126 68.592 52.126ZM69.848 51.992C69.682 51.992 69.544 52.058 69.466 52.166V51.6H69.318V53H69.452L69.454 52.828C69.528 52.946 69.674 53.02 69.848 53.02C70.134 53.02 70.342 52.814 70.342 52.506C70.342 52.198 70.134 51.992 69.848 51.992ZM69.83 52.882C69.618 52.882 69.466 52.73 69.466 52.506C69.466 52.282 69.618 52.13 69.83 52.13C70.042 52.13 70.194 52.282 70.194 52.506C70.194 52.73 70.042 52.882 69.83 52.882ZM71.2688 52.012L71.0468 52.534L70.9248 52.828L70.8088 52.534L70.5988 52.012H70.4388L70.8408 52.994L70.6348 53.47H70.7968L71.4288 52.012H71.2688ZM73.0506 51.6H71.9226V51.746H72.4106V53H72.5626V51.746H73.0506V51.6ZM73.4493 51.992C73.1513 51.992 72.9473 52.204 72.9473 52.506C72.9473 52.814 73.1553 53.024 73.4633 53.024C73.6353 53.024 73.7953 52.956 73.8873 52.844L73.7913 52.754C73.7273 52.834 73.5953 52.886 73.4673 52.886C73.2593 52.886 73.1153 52.764 73.0993 52.564H73.9493C73.9773 52.216 73.7833 51.992 73.4493 51.992ZM73.4533 52.126C73.6613 52.126 73.7993 52.25 73.8093 52.436H73.1013C73.1253 52.244 73.2553 52.126 73.4533 52.126ZM74.5393 53.02C74.7873 53.02 74.9513 52.902 74.9513 52.728C74.9513 52.556 74.8373 52.474 74.5393 52.43C74.3453 52.398 74.2793 52.36 74.2793 52.274C74.2793 52.176 74.3753 52.122 74.5513 52.122C74.6713 52.122 74.7673 52.154 74.8593 52.222L74.9313 52.114C74.8213 52.032 74.6993 51.992 74.5453 51.992C74.2953 51.992 74.1333 52.104 74.1333 52.276C74.1333 52.436 74.2513 52.522 74.5253 52.56C74.7353 52.594 74.8053 52.634 74.8053 52.726C74.8053 52.824 74.7033 52.886 74.5413 52.886C74.3973 52.886 74.2633 52.834 74.1793 52.752L74.1013 52.858C74.2113 52.96 74.3673 53.02 74.5393 53.02ZM75.7533 52.844C75.7073 52.866 75.6493 52.882 75.6053 52.882C75.4793 52.882 75.4433 52.804 75.4433 52.684V52.142H75.7573V52.012H75.4433V51.722L75.2953 51.736V52.012H75.0953V52.142H75.2953V52.684C75.2953 52.896 75.3853 53.016 75.5913 53.016C75.6633 53.016 75.7293 52.998 75.7993 52.966L75.7533 52.844ZM77.5238 51.6V52.738L76.6778 51.6H76.5298V53H76.6838V51.858L77.5318 53H77.6778V51.6H77.5238ZM78.4317 51.992C78.1338 51.992 77.9298 52.204 77.9298 52.506C77.9298 52.814 78.1377 53.024 78.4458 53.024C78.6178 53.024 78.7778 52.956 78.8698 52.844L78.7738 52.754C78.7098 52.834 78.5778 52.886 78.4498 52.886C78.2418 52.886 78.0978 52.764 78.0818 52.564H78.9318C78.9598 52.216 78.7658 51.992 78.4317 51.992ZM78.4358 52.126C78.6438 52.126 78.7818 52.25 78.7918 52.436H78.0838C78.1077 52.244 78.2378 52.126 78.4358 52.126ZM79.724 52.844C79.678 52.866 79.62 52.882 79.576 52.882C79.45 52.882 79.414 52.804 79.414 52.684V52.142H79.728V52.012H79.414V51.722L79.266 51.736V52.012H79.066V52.142H79.266V52.684C79.266 52.896 79.356 53.016 79.562 53.016C79.634 53.016 79.7 52.998 79.77 52.966L79.724 52.844ZM81.2348 52.012L81.1088 52.404L80.9728 52.83L80.6888 52.012H80.5588L80.2728 52.828L80.1388 52.404L80.0128 52.012H79.8548L80.1908 53H80.3528L80.4508 52.714L80.6248 52.226L80.7988 52.714L80.8948 53H81.0568L81.3908 52.012H81.2348ZM82.0043 53.02C82.3123 53.02 82.5183 52.8 82.5183 52.506C82.5183 52.212 82.3123 51.992 82.0043 51.992C81.6963 51.992 81.4883 52.212 81.4883 52.506C81.4883 52.8 81.6963 53.02 82.0043 53.02ZM82.0043 52.882C81.7843 52.882 81.6363 52.716 81.6363 52.506C81.6363 52.296 81.7843 52.13 82.0043 52.13C82.2223 52.13 82.3703 52.296 82.3703 52.506C82.3703 52.716 82.2223 52.882 82.0043 52.882ZM83.2115 51.996C83.0735 51.996 82.9635 52.066 82.8915 52.2L82.8895 52.012H82.7555V53H82.9035V52.506C82.9035 52.292 83.0275 52.142 83.2055 52.142C83.2655 52.142 83.3195 52.156 83.3715 52.19L83.4395 52.066C83.3815 52.022 83.2975 51.996 83.2115 51.996ZM84.4174 53L83.8894 52.49L84.3554 52.012H84.1674L83.7434 52.452V51.6H83.5954V53H83.7434V52.54L84.2154 53H84.4174Z" fill="white"/>
<path d="M64.188 57H65.116V56.854H64.342V55.6H64.188V57ZM65.7192 57.02C66.0272 57.02 66.2332 56.8 66.2332 56.506C66.2332 56.212 66.0272 55.992 65.7192 55.992C65.4112 55.992 65.2032 56.212 65.2032 56.506C65.2032 56.8 65.4112 57.02 65.7192 57.02ZM65.7192 56.882C65.4992 56.882 65.3512 56.716 65.3512 56.506C65.3512 56.296 65.4992 56.13 65.7192 56.13C65.9372 56.13 66.0852 56.296 66.0852 56.506C66.0852 56.716 65.9372 56.882 65.7192 56.882ZM66.9224 57.02C67.0664 57.02 67.1904 56.972 67.2944 56.87L67.2024 56.768C67.1284 56.844 67.0284 56.882 66.9224 56.882C66.7124 56.882 66.5524 56.734 66.5524 56.506C66.5524 56.274 66.7144 56.13 66.9224 56.13C67.0224 56.13 67.1204 56.166 67.1924 56.24L67.2844 56.142C67.1824 56.04 67.0604 55.992 66.9224 55.992C66.6204 55.992 66.4044 56.2 66.4044 56.506C66.4044 56.814 66.6204 57.02 66.9224 57.02ZM68.3139 56.012L68.3119 56.184C68.2339 56.066 68.0899 55.992 67.9179 55.992C67.6279 55.992 67.4239 56.204 67.4239 56.506C67.4239 56.808 67.6279 57.02 67.9179 57.02C68.0899 57.02 68.2339 56.948 68.3119 56.83L68.3139 57H68.4479V56.012H68.3139ZM67.9359 56.882C67.7239 56.882 67.5719 56.73 67.5719 56.506C67.5719 56.282 67.7239 56.13 67.9359 56.13C68.1479 56.13 68.2999 56.282 68.2999 56.506C68.2999 56.73 68.1479 56.882 67.9359 56.882ZM68.7516 57H68.8996V55.6H68.7516V57ZM70.2328 55.6V56.212H69.3928V55.6H69.2388V57H69.3928V56.358H70.2328V57H70.3848V55.6H70.2328ZM71.1547 57.02C71.4627 57.02 71.6687 56.8 71.6687 56.506C71.6687 56.212 71.4627 55.992 71.1547 55.992C70.8467 55.992 70.6387 56.212 70.6387 56.506C70.6387 56.8 70.8467 57.02 71.1547 57.02ZM71.1547 56.882C70.9347 56.882 70.7867 56.716 70.7867 56.506C70.7867 56.296 70.9347 56.13 71.1547 56.13C71.3727 56.13 71.5207 56.296 71.5207 56.506C71.5207 56.716 71.3727 56.882 71.1547 56.882ZM72.2561 57.02C72.5041 57.02 72.6681 56.902 72.6681 56.728C72.6681 56.556 72.5541 56.474 72.2561 56.43C72.0621 56.398 71.9961 56.36 71.9961 56.274C71.9961 56.176 72.0921 56.122 72.2681 56.122C72.3881 56.122 72.4841 56.154 72.5761 56.222L72.6481 56.114C72.5381 56.032 72.4161 55.992 72.2621 55.992C72.0121 55.992 71.8501 56.104 71.8501 56.276C71.8501 56.436 71.9681 56.522 72.2421 56.56C72.4521 56.594 72.5221 56.634 72.5221 56.726C72.5221 56.824 72.4201 56.886 72.2581 56.886C72.1141 56.886 71.9801 56.834 71.8961 56.752L71.8181 56.858C71.9281 56.96 72.0841 57.02 72.2561 57.02ZM73.4701 56.844C73.4241 56.866 73.3661 56.882 73.3221 56.882C73.1961 56.882 73.1601 56.804 73.1601 56.684V56.142H73.4741V56.012H73.1601V55.722L73.0121 55.736V56.012H72.8121V56.142H73.0121V56.684C73.0121 56.896 73.1021 57.016 73.3081 57.016C73.3801 57.016 73.4461 56.998 73.5161 56.966L73.4701 56.844Z" fill="white"/>
<path d="M64.824 61.026C65.026 61.026 65.206 60.954 65.34 60.818L65.238 60.716C65.13 60.822 64.982 60.882 64.828 60.882C64.49 60.882 64.256 60.644 64.256 60.3C64.256 59.956 64.49 59.718 64.828 59.718C64.984 59.718 65.122 59.776 65.226 59.884L65.332 59.786C65.198 59.648 65.02 59.574 64.824 59.574C64.398 59.574 64.1 59.874 64.1 60.3C64.1 60.726 64.398 61.026 64.824 61.026ZM66.2945 60.012V60.546C66.2945 60.736 66.1625 60.88 65.9665 60.88C65.7865 60.88 65.6805 60.764 65.6805 60.56V60.012H65.5325V60.568C65.5325 60.846 65.6945 61.016 65.9485 61.016C66.0985 61.016 66.2265 60.952 66.3085 60.84L66.3105 61H66.4425V60.012H66.2945ZM67.1077 61.02C67.3557 61.02 67.5197 60.902 67.5197 60.728C67.5197 60.556 67.4057 60.474 67.1077 60.43C66.9137 60.398 66.8477 60.36 66.8477 60.274C66.8477 60.176 66.9437 60.122 67.1197 60.122C67.2397 60.122 67.3357 60.154 67.4277 60.222L67.4997 60.114C67.3897 60.032 67.2677 59.992 67.1137 59.992C66.8637 59.992 66.7017 60.104 66.7017 60.276C66.7017 60.436 66.8197 60.522 67.0937 60.56C67.3037 60.594 67.3737 60.634 67.3737 60.726C67.3737 60.824 67.2717 60.886 67.1097 60.886C66.9657 60.886 66.8317 60.834 66.7477 60.752L66.6697 60.858C66.7797 60.96 66.9357 61.02 67.1077 61.02ZM68.3217 60.844C68.2757 60.866 68.2177 60.882 68.1737 60.882C68.0477 60.882 68.0117 60.804 68.0117 60.684V60.142H68.3257V60.012H68.0117V59.722L67.8637 59.736V60.012H67.6637V60.142H67.8637V60.684C67.8637 60.896 67.9537 61.016 68.1597 61.016C68.2317 61.016 68.2977 60.998 68.3677 60.966L68.3217 60.844ZM68.9965 61.02C69.3045 61.02 69.5105 60.8 69.5105 60.506C69.5105 60.212 69.3045 59.992 68.9965 59.992C68.6885 59.992 68.4805 60.212 68.4805 60.506C68.4805 60.8 68.6885 61.02 68.9965 61.02ZM68.9965 60.882C68.7765 60.882 68.6285 60.716 68.6285 60.506C68.6285 60.296 68.7765 60.13 68.9965 60.13C69.2145 60.13 69.3625 60.296 69.3625 60.506C69.3625 60.716 69.2145 60.882 68.9965 60.882ZM70.8997 59.996C70.7417 59.996 70.6137 60.068 70.5377 60.202C70.4817 60.072 70.3577 59.996 70.1977 59.996C70.0657 59.996 69.9557 60.052 69.8837 60.16L69.8817 60.012H69.7477V61H69.8957V60.448C69.8957 60.264 70.0177 60.132 70.1897 60.132C70.3597 60.132 70.4517 60.24 70.4517 60.434V61H70.5997V60.448C70.5997 60.264 70.7217 60.132 70.8937 60.132C71.0617 60.132 71.1537 60.24 71.1537 60.434V61H71.3017V60.426C71.3017 60.156 71.1497 59.996 70.8997 59.996ZM73.1031 61H73.3011L72.8411 60.488C73.0891 60.462 73.2471 60.292 73.2471 60.046C73.2471 59.778 73.0591 59.6 72.7731 59.6H72.1431V61H72.2971V60.492H72.6511L73.1031 61ZM72.7751 59.746C72.9731 59.746 73.0951 59.864 73.0951 60.046C73.0951 60.23 72.9731 60.344 72.7751 60.344H72.2971V59.746H72.7751ZM74.183 59.6H73.561V61H73.715V60.542H74.183C74.483 60.542 74.669 60.352 74.669 60.072C74.669 59.792 74.483 59.6 74.183 59.6ZM74.177 60.398H73.715V59.744H74.177C74.389 59.744 74.515 59.876 74.515 60.072C74.515 60.268 74.389 60.398 74.177 60.398ZM75.5564 61.026C75.7584 61.026 75.9384 60.954 76.0724 60.818L75.9704 60.716C75.8624 60.822 75.7144 60.882 75.5604 60.882C75.2224 60.882 74.9884 60.644 74.9884 60.3C74.9884 59.956 75.2224 59.718 75.5604 59.718C75.7164 59.718 75.8544 59.776 75.9584 59.884L76.0644 59.786C75.9304 59.648 75.7524 59.574 75.5564 59.574C75.1304 59.574 74.8324 59.874 74.8324 60.3C74.8324 60.726 75.1304 61.026 75.5564 61.026Z" fill="white"/>
</g>
<mask id="path-25-inside-1" fill="white">
<path fill-rule="evenodd" clip-rule="evenodd" d="M12 20.9375H9.0625C7.62089 20.9391 7.01937 20.9806 6 22C4.98063 23.0194 4.62665 23.9334 4.625 25.375V83.375C4.62665 84.8166 4.98063 85.4806 6 86.5C7.01937 87.5194 7.62089 87.8109 9.0625 87.8125H46.3125V98.6875H39.875C39.3943 98.6875 38.9333 98.8785 38.5934 99.2184C38.2535 99.5583 38.0625 100.019 38.0625 100.5V107.75C38.0625 108.231 38.2535 108.692 38.5934 109.032C38.9333 109.372 39.3943 109.562 39.875 109.562H42.7492L44.0309 110.844C44.3708 111.184 44.8318 111.375 45.3125 111.375H48.9375C49.4182 111.375 49.8792 111.184 50.2191 110.844L51.5008 109.562H64.4992L65.7809 110.844C66.1208 111.184 66.5818 111.375 67.0625 111.375H70.6875C71.1682 111.375 71.6292 111.184 71.9691 110.844L73.2508 109.562H76.125C76.6057 109.562 77.0667 109.372 77.4066 109.032C77.7465 108.692 77.9375 108.231 77.9375 107.75V100.5C77.9375 100.019 77.7465 99.5583 77.4066 99.2184C77.0667 98.8785 76.6057 98.6875 76.125 98.6875H69.6875V87.8125H106.938C108.379 87.8109 108.981 87.5194 110 86.5C111.019 85.4806 111.373 84.8166 111.375 83.375V26.375C111.375 26.1789 111.377 25.9923 111.379 25.8124C111.392 24.6696 111.402 23.8003 110.781 22.5319C109.5 21 108.379 20.9391 106.938 20.9375H84.625H83.375H32V23.5625H83.375H84.625H106.938C107.418 23.563 107.879 23.7542 108.219 24.094C108.558 24.4338 108.749 24.8945 108.75 25.375V32.8125H85.4375H81.5625H7.25V25.375C7.25055 24.8945 7.44169 24.4338 7.78148 24.094C8.12127 23.7542 8.58196 23.563 9.0625 23.5625H12V20.9375ZM85.4375 34.4375H81.5625H7.25V83.375C7.25055 83.8555 7.44169 84.3162 7.78148 84.656C8.12127 84.9958 8.58196 85.187 9.0625 85.1875H106.938C107.418 85.187 107.879 84.9958 108.219 84.656C108.558 84.3162 108.749 83.8555 108.75 83.375V34.4375H85.4375ZM56.1875 87.8125H47.9375V98.6875H68.0625V87.8125H59.8125V90.25C59.8125 90.7307 59.6215 91.1917 59.2816 91.5316C58.9417 91.8715 58.4807 92.0625 58 92.0625C57.5193 92.0625 57.0583 91.8715 56.7184 91.5316C56.3785 91.1917 56.1875 90.7307 56.1875 90.25V87.8125ZM75.8977 106.938V101.312H40.1023V106.938H75.8977Z"/>
</mask>
<path fill-rule="evenodd" clip-rule="evenodd" d="M12 20.9375H9.0625C7.62089 20.9391 7.01937 20.9806 6 22C4.98063 23.0194 4.62665 23.9334 4.625 25.375V83.375C4.62665 84.8166 4.98063 85.4806 6 86.5C7.01937 87.5194 7.62089 87.8109 9.0625 87.8125H46.3125V98.6875H39.875C39.3943 98.6875 38.9333 98.8785 38.5934 99.2184C38.2535 99.5583 38.0625 100.019 38.0625 100.5V107.75C38.0625 108.231 38.2535 108.692 38.5934 109.032C38.9333 109.372 39.3943 109.562 39.875 109.562H42.7492L44.0309 110.844C44.3708 111.184 44.8318 111.375 45.3125 111.375H48.9375C49.4182 111.375 49.8792 111.184 50.2191 110.844L51.5008 109.562H64.4992L65.7809 110.844C66.1208 111.184 66.5818 111.375 67.0625 111.375H70.6875C71.1682 111.375 71.6292 111.184 71.9691 110.844L73.2508 109.562H76.125C76.6057 109.562 77.0667 109.372 77.4066 109.032C77.7465 108.692 77.9375 108.231 77.9375 107.75V100.5C77.9375 100.019 77.7465 99.5583 77.4066 99.2184C77.0667 98.8785 76.6057 98.6875 76.125 98.6875H69.6875V87.8125H106.938C108.379 87.8109 108.981 87.5194 110 86.5C111.019 85.4806 111.373 84.8166 111.375 83.375V26.375C111.375 26.1789 111.377 25.9923 111.379 25.8124C111.392 24.6696 111.402 23.8003 110.781 22.5319C109.5 21 108.379 20.9391 106.938 20.9375H84.625H83.375H32V23.5625H83.375H84.625H106.938C107.418 23.563 107.879 23.7542 108.219 24.094C108.558 24.4338 108.749 24.8945 108.75 25.375V32.8125H85.4375H81.5625H7.25V25.375C7.25055 24.8945 7.44169 24.4338 7.78148 24.094C8.12127 23.7542 8.58196 23.563 9.0625 23.5625H12V20.9375ZM85.4375 34.4375H81.5625H7.25V83.375C7.25055 83.8555 7.44169 84.3162 7.78148 84.656C8.12127 84.9958 8.58196 85.187 9.0625 85.1875H106.938C107.418 85.187 107.879 84.9958 108.219 84.656C108.558 84.3162 108.749 83.8555 108.75 83.375V34.4375H85.4375ZM56.1875 87.8125H47.9375V98.6875H68.0625V87.8125H59.8125V90.25C59.8125 90.7307 59.6215 91.1917 59.2816 91.5316C58.9417 91.8715 58.4807 92.0625 58 92.0625C57.5193 92.0625 57.0583 91.8715 56.7184 91.5316C56.3785 91.1917 56.1875 90.7307 56.1875 90.25V87.8125ZM75.8977 106.938V101.312H40.1023V106.938H75.8977Z" fill="#1E3445"/>
<path d="M12 20.9375H13V19.9375H12V20.9375ZM9.0625 20.9375V19.9375L9.06136 19.9375L9.0625 20.9375ZM4.625 25.375L3.625 25.3739V25.375H4.625ZM4.625 83.375H3.625L3.625 83.3761L4.625 83.375ZM9.0625 87.8125L9.06136 88.8125H9.0625V87.8125ZM46.3125 87.8125H47.3125V86.8125H46.3125V87.8125ZM46.3125 98.6875V99.6875H47.3125V98.6875H46.3125ZM39.875 98.6875V97.6875H39.875L39.875 98.6875ZM38.0625 100.5L37.0625 100.5V100.5H38.0625ZM38.0625 107.75H37.0625V107.75L38.0625 107.75ZM39.875 109.562L39.875 110.562H39.875V109.562ZM42.7492 109.562L43.4563 108.855L43.1634 108.562H42.7492V109.562ZM44.0309 110.844L43.3238 111.551L43.3238 111.551L44.0309 110.844ZM45.3125 111.375V110.375H45.3125L45.3125 111.375ZM48.9375 111.375L48.9375 110.375H48.9375V111.375ZM50.2191 110.844L50.9262 111.551L50.9262 111.551L50.2191 110.844ZM51.5008 109.562V108.562H51.0866L50.7937 108.855L51.5008 109.562ZM64.4992 109.562L65.2063 108.855L64.9134 108.562H64.4992V109.562ZM65.7809 110.844L65.0738 111.551L65.0738 111.551L65.7809 110.844ZM67.0625 111.375V110.375H67.0625L67.0625 111.375ZM70.6875 111.375L70.6875 110.375H70.6875V111.375ZM71.9691 110.844L72.6762 111.551L72.6762 111.551L71.9691 110.844ZM73.2508 109.562V108.562H72.8366L72.5437 108.855L73.2508 109.562ZM76.125 109.562V110.562H76.125L76.125 109.562ZM77.9375 107.75L78.9375 107.75V107.75H77.9375ZM77.9375 100.5H78.9375V100.5L77.9375 100.5ZM76.125 98.6875L76.125 97.6875H76.125V98.6875ZM69.6875 98.6875H68.6875V99.6875H69.6875V98.6875ZM69.6875 87.8125V86.8125H68.6875V87.8125H69.6875ZM106.938 87.8125V88.8125H106.939L106.938 87.8125ZM111.375 83.375L112.375 83.3761V83.375H111.375ZM111.375 26.375H112.375V26.3739L111.375 26.375ZM111.379 25.8124L110.379 25.8009V25.8009L111.379 25.8124ZM110.781 22.5319L111.679 22.0919L111.625 21.9833L111.548 21.8906L110.781 22.5319ZM106.938 20.9375L106.939 19.9375H106.938V20.9375ZM32 20.9375V19.9375H31V20.9375H32ZM32 23.5625H31V24.5625H32V23.5625ZM106.938 23.5625L106.939 22.5625H106.938V23.5625ZM108.75 25.375H109.75V25.3739L108.75 25.375ZM108.75 32.8125V33.8125H109.75V32.8125H108.75ZM7.25 32.8125H6.25V33.8125H7.25V32.8125ZM7.25 25.375L6.25 25.3739V25.375H7.25ZM9.0625 23.5625V22.5625L9.06136 22.5625L9.0625 23.5625ZM12 23.5625V24.5625H13V23.5625H12ZM7.25 34.4375V33.4375H6.25V34.4375H7.25ZM7.25 83.375H6.25L6.25 83.3761L7.25 83.375ZM9.0625 85.1875L9.06136 86.1875H9.0625V85.1875ZM106.938 85.1875V86.1875H106.939L106.938 85.1875ZM108.75 83.375L109.75 83.3761V83.375H108.75ZM108.75 34.4375H109.75V33.4375H108.75V34.4375ZM47.9375 87.8125V86.8125H46.9375V87.8125H47.9375ZM56.1875 87.8125H57.1875V86.8125H56.1875V87.8125ZM47.9375 98.6875H46.9375V99.6875H47.9375V98.6875ZM68.0625 98.6875V99.6875H69.0625V98.6875H68.0625ZM68.0625 87.8125H69.0625V86.8125H68.0625V87.8125ZM59.8125 87.8125V86.8125H58.8125V87.8125H59.8125ZM75.8977 101.312H76.8977V100.312H75.8977V101.312ZM75.8977 106.938V107.938H76.8977V106.938H75.8977ZM40.1023 101.312V100.312H39.1023V101.312H40.1023ZM40.1023 106.938H39.1023V107.938H40.1023V106.938ZM12 19.9375H9.0625V21.9375H12V19.9375ZM9.06136 19.9375C8.36824 19.9383 7.70705 19.942 7.08442 20.1296C6.41322 20.3319 5.87038 20.7154 5.29289 21.2929L6.70711 22.7071C7.149 22.2652 7.4166 22.1183 7.6614 22.0446C7.95478 21.9562 8.31515 21.9384 9.06364 21.9375L9.06136 19.9375ZM5.29289 21.2929C4.71652 21.8693 4.28292 22.4618 4.00338 23.1553C3.72484 23.8462 3.62592 24.5715 3.625 25.3739L5.625 25.3761C5.62573 24.7369 5.70463 24.2843 5.85833 23.903C6.01104 23.5242 6.26411 23.1501 6.70711 22.7071L5.29289 21.2929ZM3.625 25.375V83.375H5.625V25.375H3.625ZM3.625 83.3761C3.62592 84.179 3.72477 84.8616 4.02109 85.511C4.31178 86.148 4.75563 86.6698 5.29289 87.2071L6.70711 85.7929C6.225 85.3108 5.98217 84.9909 5.84061 84.6807C5.70469 84.3828 5.62573 84.0126 5.625 83.3739L3.625 83.3761ZM5.29289 87.2071C5.82914 87.7433 6.34057 88.1776 6.97189 88.454C7.61095 88.7337 8.27927 88.8116 9.06136 88.8125L9.06364 86.8125C8.40412 86.8117 8.05087 86.7431 7.77393 86.6218C7.48924 86.4972 7.19024 86.276 6.70711 85.7929L5.29289 87.2071ZM9.0625 88.8125H46.3125V86.8125H9.0625V88.8125ZM45.3125 87.8125V98.6875H47.3125V87.8125H45.3125ZM46.3125 97.6875H39.875V99.6875H46.3125V97.6875ZM39.875 97.6875C39.1291 97.6875 38.4137 97.9838 37.8863 98.5113L39.3005 99.9255C39.4529 99.7731 39.6595 99.6875 39.875 99.6875L39.875 97.6875ZM37.8863 98.5113C37.3588 99.0387 37.0625 99.7541 37.0625 100.5L39.0625 100.5C39.0625 100.285 39.1481 100.078 39.3005 99.9255L37.8863 98.5113ZM37.0625 100.5V107.75H39.0625V100.5H37.0625ZM37.0625 107.75C37.0625 108.496 37.3588 109.211 37.8863 109.739L39.3005 108.325C39.1481 108.172 39.0625 107.965 39.0625 107.75L37.0625 107.75ZM37.8863 109.739C38.4137 110.266 39.1291 110.562 39.875 110.562L39.875 108.562C39.6595 108.562 39.4529 108.477 39.3005 108.325L37.8863 109.739ZM39.875 110.562H42.7492V108.562H39.875V110.562ZM42.0421 110.27L43.3238 111.551L44.738 110.137L43.4563 108.855L42.0421 110.27ZM43.3238 111.551C43.8513 112.079 44.5666 112.375 45.3125 112.375L45.3125 110.375C45.097 110.375 44.8903 110.289 44.7379 110.137L43.3238 111.551ZM45.3125 112.375H48.9375V110.375H45.3125V112.375ZM48.9375 112.375C49.6834 112.375 50.3987 112.079 50.9262 111.551L49.5121 110.137C49.3597 110.289 49.153 110.375 48.9375 110.375L48.9375 112.375ZM50.9262 111.551L52.2079 110.27L50.7937 108.855L49.512 110.137L50.9262 111.551ZM51.5008 110.562H64.4992V108.562H51.5008V110.562ZM63.7921 110.27L65.0738 111.551L66.488 110.137L65.2063 108.855L63.7921 110.27ZM65.0738 111.551C65.6013 112.079 66.3166 112.375 67.0625 112.375L67.0625 110.375C66.847 110.375 66.6403 110.289 66.4879 110.137L65.0738 111.551ZM67.0625 112.375H70.6875V110.375H67.0625V112.375ZM70.6875 112.375C71.4334 112.375 72.1487 112.079 72.6762 111.551L71.262 110.137C71.1097 110.289 70.903 110.375 70.6875 110.375L70.6875 112.375ZM72.6762 111.551L73.9579 110.27L72.5437 108.855L71.262 110.137L72.6762 111.551ZM73.2508 110.562H76.125V108.562H73.2508V110.562ZM76.125 110.562C76.8709 110.562 77.5863 110.266 78.1137 109.739L76.6995 108.325C76.5471 108.477 76.3405 108.562 76.125 108.562L76.125 110.562ZM78.1137 109.739C78.6412 109.211 78.9375 108.496 78.9375 107.75L76.9375 107.75C76.9375 107.965 76.8519 108.172 76.6995 108.325L78.1137 109.739ZM78.9375 107.75V100.5H76.9375V107.75H78.9375ZM78.9375 100.5C78.9375 99.7541 78.6412 99.0387 78.1137 98.5113L76.6995 99.9255C76.8519 100.078 76.9375 100.285 76.9375 100.5L78.9375 100.5ZM78.1137 98.5113C77.5863 97.9838 76.8709 97.6875 76.125 97.6875L76.125 99.6875C76.3405 99.6875 76.5471 99.7731 76.6995 99.9255L78.1137 98.5113ZM76.125 97.6875H69.6875V99.6875H76.125V97.6875ZM70.6875 98.6875V87.8125H68.6875V98.6875H70.6875ZM69.6875 88.8125H106.938V86.8125H69.6875V88.8125ZM106.939 88.8125C107.721 88.8116 108.389 88.7337 109.028 88.454C109.659 88.1776 110.171 87.7433 110.707 87.2071L109.293 85.7929C108.81 86.276 108.511 86.4972 108.226 86.6218C107.949 86.7431 107.596 86.8117 106.936 86.8125L106.939 88.8125ZM110.707 87.2071C111.244 86.6698 111.688 86.148 111.979 85.511C112.275 84.8616 112.374 84.179 112.375 83.3761L110.375 83.3739C110.374 84.0126 110.295 84.3828 110.159 84.6807C110.018 84.9909 109.775 85.3108 109.293 85.7929L110.707 87.2071ZM112.375 83.375V26.375H110.375V83.375H112.375ZM112.375 26.3739C112.375 26.1851 112.377 26.0046 112.379 25.8239L110.379 25.8009C110.377 25.98 110.375 26.1728 110.375 26.3761L112.375 26.3739ZM112.379 25.8239C112.392 24.6549 112.41 23.5836 111.679 22.0919L109.883 22.972C110.395 24.0171 110.392 24.6844 110.379 25.8009L112.379 25.8239ZM111.548 21.8906C110.812 21.0101 110.064 20.4883 109.236 20.2122C108.443 19.9478 107.65 19.9383 106.939 19.9375L106.936 21.9375C107.666 21.9383 108.155 21.9601 108.603 22.1095C109.016 22.2473 109.469 22.5218 110.013 23.1733L111.548 21.8906ZM106.938 19.9375H84.625V21.9375H106.938V19.9375ZM84.625 19.9375H83.375V21.9375H84.625V19.9375ZM83.375 19.9375H32V21.9375H83.375V19.9375ZM31 20.9375V23.5625H33V20.9375H31ZM32 24.5625H83.375V22.5625H32V24.5625ZM83.375 24.5625H84.625V22.5625H83.375V24.5625ZM84.625 24.5625H106.938V22.5625H84.625V24.5625ZM106.936 24.5625C107.152 24.5627 107.359 24.6485 107.511 24.8011L108.926 23.3869C108.399 22.8598 107.684 22.5634 106.939 22.5625L106.936 24.5625ZM107.511 24.8011C107.664 24.9536 107.75 25.1604 107.75 25.3761L109.75 25.3739C109.749 24.6285 109.453 23.9139 108.926 23.3869L107.511 24.8011ZM107.75 25.375V32.8125H109.75V25.375H107.75ZM108.75 31.8125H85.4375V33.8125H108.75V31.8125ZM85.4375 31.8125H81.5625V33.8125H85.4375V31.8125ZM81.5625 31.8125H7.25V33.8125H81.5625V31.8125ZM8.25 32.8125V25.375H6.25V32.8125H8.25ZM8.25 25.3761C8.25025 25.1604 8.33605 24.9536 8.48858 24.8011L7.07437 23.3869C6.54732 23.9139 6.25085 24.6285 6.25 25.3739L8.25 25.3761ZM8.48858 24.8011C8.64112 24.6485 8.84793 24.5627 9.06364 24.5625L9.06136 22.5625C8.316 22.5634 7.60142 22.8598 7.07437 23.3869L8.48858 24.8011ZM9.0625 24.5625H12V22.5625H9.0625V24.5625ZM13 23.5625V20.9375H11V23.5625H13ZM81.5625 35.4375H85.4375V33.4375H81.5625V35.4375ZM7.25 35.4375H81.5625V33.4375H7.25V35.4375ZM8.25 83.375V34.4375H6.25V83.375H8.25ZM8.48858 83.9489C8.33605 83.7964 8.25025 83.5896 8.25 83.3739L6.25 83.3761C6.25085 84.1215 6.54732 84.8361 7.07437 85.3631L8.48858 83.9489ZM9.06364 84.1875C8.84793 84.1873 8.64112 84.1015 8.48858 83.9489L7.07437 85.3631C7.60141 85.8902 8.316 86.1866 9.06136 86.1875L9.06364 84.1875ZM106.938 84.1875H9.0625V86.1875H106.938V84.1875ZM107.511 83.9489C107.359 84.1015 107.152 84.1873 106.936 84.1875L106.939 86.1875C107.684 86.1866 108.399 85.8902 108.926 85.3631L107.511 83.9489ZM107.75 83.3739C107.75 83.5896 107.664 83.7964 107.511 83.9489L108.926 85.3631C109.453 84.8361 109.749 84.1215 109.75 83.3761L107.75 83.3739ZM107.75 34.4375V83.375H109.75V34.4375H107.75ZM85.4375 35.4375H108.75V33.4375H85.4375V35.4375ZM47.9375 88.8125H56.1875V86.8125H47.9375V88.8125ZM48.9375 98.6875V87.8125H46.9375V98.6875H48.9375ZM68.0625 97.6875H47.9375V99.6875H68.0625V97.6875ZM67.0625 87.8125V98.6875H69.0625V87.8125H67.0625ZM59.8125 88.8125H68.0625V86.8125H59.8125V88.8125ZM60.8125 90.25V87.8125H58.8125V90.25H60.8125ZM59.9887 92.2387C60.5162 91.7113 60.8125 90.9959 60.8125 90.25H58.8125C58.8125 90.4655 58.7269 90.6721 58.5745 90.8245L59.9887 92.2387ZM58 93.0625C58.7459 93.0625 59.4613 92.7662 59.9887 92.2387L58.5745 90.8245C58.4222 90.9769 58.2155 91.0625 58 91.0625V93.0625ZM56.0113 92.2387C56.5387 92.7662 57.2541 93.0625 58 93.0625V91.0625C57.7845 91.0625 57.5778 90.9769 57.4255 90.8245L56.0113 92.2387ZM55.1875 90.25C55.1875 90.9959 55.4838 91.7113 56.0113 92.2387L57.4255 90.8245C57.2731 90.6721 57.1875 90.4655 57.1875 90.25H55.1875ZM55.1875 87.8125V90.25H57.1875V87.8125H55.1875ZM74.8977 101.312V106.938H76.8977V101.312H74.8977ZM40.1023 102.312H75.8977V100.312H40.1023V102.312ZM41.1023 106.938V101.312H39.1023V106.938H41.1023ZM75.8977 105.938H40.1023V107.938H75.8977V105.938Z" fill="#1E3445" mask="url(#path-25-inside-1)"/>
<path d="M114 68.8125C114 67.8115 114.811 67 115.812 67H121.25C122.251 67 123.062 67.8115 123.062 68.8125C123.062 69.8135 122.251 70.625 121.25 70.625H115.812C114.811 70.625 114 69.8135 114 68.8125Z" fill="#1E3445"/>
<path d="M126.688 68.8125C126.688 67.8115 127.499 67 128.5 67H133.938C134.939 67 135.75 67.8115 135.75 68.8125C135.75 69.8135 134.939 70.625 133.938 70.625H128.5C127.499 70.625 126.688 69.8135 126.688 68.8125Z" fill="#1E3445"/>
<path d="M139.375 68.8125C139.375 67.8115 140.186 67 141.188 67H146.625C147.626 67 148.438 67.8115 148.438 68.8125C148.438 69.8135 147.626 70.625 146.625 70.625H141.187C140.186 70.625 139.375 69.8135 139.375 68.8125Z" fill="#1E3445"/>
</svg>
