<svg width="64" height="44" viewBox="0 0 64 44" fill="none" xmlns="http://www.w3.org/2000/svg">
<path d="M55.5634 35.8V0.639998H54.6634L40.3834 5.5V12.76L47.2834 10.66V35.8H39.6034V43H62.5234V35.8H55.5634Z" fill="#302E35"/>
<path d="M19.9854 29.168C22.0494 29.168 23.4174 28.148 23.4174 26.6C23.4174 25.172 22.4214 24.452 20.0454 24.104C18.6294 23.9 18.0294 23.516 18.0294 22.844C18.0294 22.16 18.8094 21.668 19.9134 21.668C20.7414 21.668 21.6054 21.944 22.3014 22.472L23.0094 21.476C22.1574 20.816 21.0174 20.432 19.9014 20.432C17.9814 20.432 16.6494 21.428 16.6494 22.832C16.6494 24.308 17.6214 25.064 19.9014 25.376C21.3534 25.568 22.0014 25.94 22.0014 26.636C22.0014 27.392 21.2094 27.884 19.9854 27.884C18.9534 27.884 17.8854 27.524 17.1774 26.936L16.4454 27.992C17.4294 28.748 18.7134 29.168 19.9854 29.168ZM27.9852 27.716C27.7572 27.824 27.4812 27.896 27.2412 27.896C26.6892 27.896 26.4132 27.56 26.4132 26.96V24.212H28.1172V23.072H26.4132V21.38L25.0812 21.524V23.072H23.9652V24.212H25.0812V26.96C25.0812 28.376 25.8012 29.084 27.0252 29.084C27.5172 29.084 27.9012 29 28.3572 28.796L27.9852 27.716ZM32.0431 22.952C30.2071 22.952 28.9711 24.2 28.9711 26.036C28.9711 27.932 30.2311 29.168 32.1871 29.168C33.2071 29.168 34.1551 28.772 34.7431 28.136L33.9271 27.344C33.5671 27.716 32.8951 27.956 32.2231 27.956C31.1791 27.956 30.4591 27.404 30.3511 26.54H35.0911C35.2831 24.32 34.1311 22.952 32.0431 22.952ZM32.0791 24.116C33.0631 24.116 33.7111 24.656 33.8071 25.496H30.3631C30.5311 24.62 31.1431 24.116 32.0791 24.116ZM39.688 22.94C38.776 22.94 37.984 23.288 37.528 23.864L37.516 23.072H36.316V31.736H37.66V28.352C38.128 28.844 38.86 29.132 39.688 29.132C41.428 29.132 42.628 27.86 42.628 26.036C42.628 24.212 41.428 22.94 39.688 22.94ZM39.472 27.908C38.416 27.908 37.66 27.14 37.66 26.036C37.66 24.932 38.416 24.164 39.472 24.164C40.54 24.164 41.284 24.932 41.284 26.036C41.284 27.14 40.54 27.908 39.472 27.908Z" fill="#302E35"/>
</svg>
