<svg width="96" height="96" viewBox="0 0 96 96" fill="none" xmlns="http://www.w3.org/2000/svg">
<path d="M55.5 81H52.5V66.3C52.5 65.9022 52.342 65.5206 52.0607 65.2393C51.7794 64.958 51.3978 64.8 51 64.8C50.6022 64.8 50.2206 64.958 49.9393 65.2393C49.658 65.5206 49.5 65.9022 49.5 66.3V81H10.5V51H22.98C23.3778 51 23.7594 50.842 24.0407 50.5607C24.322 50.2794 24.48 49.8978 24.48 49.5C24.48 49.1022 24.322 48.7206 24.0407 48.4393C23.7594 48.158 23.3778 48 22.98 48H9C8.60218 48 8.22064 48.158 7.93934 48.4393C7.65804 48.7206 7.5 49.1022 7.5 49.5V81H4.5C4.10218 81 3.72064 81.158 3.43934 81.4393C3.15804 81.7206 3 82.1022 3 82.5V85.5C3 87.4891 3.79018 89.3968 5.1967 90.8033C6.60322 92.2098 8.51088 93 10.5 93H49.5C51.4891 93 53.3968 92.2098 54.8033 90.8033C56.2098 89.3968 57 87.4891 57 85.5V82.5C57 82.1022 56.842 81.7206 56.5607 81.4393C56.2794 81.158 55.8978 81 55.5 81ZM54 85.5C54 86.6935 53.5259 87.8381 52.682 88.682C51.8381 89.5259 50.6935 90 49.5 90H46.5V88.5C46.5 88.1022 46.342 87.7206 46.0607 87.4393C45.7794 87.158 45.3978 87 45 87C44.6022 87 44.2206 87.158 43.9393 87.4393C43.658 87.7206 43.5 88.1022 43.5 88.5V90H16.5V88.5C16.5 88.1022 16.342 87.7206 16.0607 87.4393C15.7794 87.158 15.3978 87 15 87C14.6022 87 14.2206 87.158 13.9393 87.4393C13.658 87.7206 13.5 88.1022 13.5 88.5V90H10.5C9.30653 90 8.16193 89.5259 7.31802 88.682C6.47411 87.8381 6 86.6935 6 85.5V84H54V85.5Z" fill="black"/>
<path d="M55.5 34.5C55.7329 34.5 55.9625 34.4458 56.1708 34.3416C56.3791 34.2375 56.5603 34.0863 56.7 33.9L61.2 27.9C61.4387 27.5817 61.5412 27.1817 61.4849 26.7879C61.4287 26.394 61.2183 26.0387 60.9 25.8C60.5817 25.5613 60.1817 25.4588 59.7879 25.5151C59.394 25.5713 59.0387 25.7817 58.8 26.1L54.3 32.1C54.0613 32.4183 53.9588 32.8183 54.0151 33.2121C54.0713 33.606 54.2817 33.9613 54.6 34.2C54.8597 34.3947 55.1754 34.5 55.5 34.5Z" fill="black"/>
<path d="M58.8 39.9C58.9397 40.0863 59.1209 40.2375 59.3292 40.3416C59.5375 40.4458 59.7671 40.5 60 40.5C60.3246 40.5 60.6404 40.3947 60.9 40.2L66.9 35.7C67.2183 35.4613 67.4287 35.106 67.4849 34.7121C67.5412 34.3183 67.4387 33.9183 67.2 33.6C66.9613 33.2817 66.606 33.0713 66.2121 33.0151C65.8183 32.9588 65.4183 33.0613 65.1 33.3L59.1 37.8C58.7817 38.0387 58.5713 38.394 58.5151 38.7879C58.4588 39.1817 58.5613 39.5817 58.8 39.9Z" fill="black"/>
<path d="M73.4998 43.2C73.4641 43.0012 73.3887 42.8116 73.2779 42.6426C73.1672 42.4736 73.0235 42.3287 72.8554 42.2166C72.6873 42.1046 72.4983 42.0276 72.2997 41.9904C72.1011 41.9532 71.897 41.9565 71.6998 42L64.1998 43.5C64.0028 43.5197 63.8116 43.578 63.6372 43.6716C63.4627 43.7652 63.3084 43.8922 63.183 44.0454C62.9299 44.3549 62.81 44.7522 62.8498 45.15C62.8896 45.5479 63.0857 45.9136 63.3952 46.1668C63.7046 46.4199 64.1019 46.5398 64.4998 46.5H64.7998L72.2998 45C72.4986 44.9644 72.6882 44.8889 72.8572 44.7782C73.0262 44.6675 73.1711 44.5237 73.2832 44.3556C73.3952 44.1875 73.4722 43.9985 73.5094 43.7999C73.5466 43.6014 73.5433 43.3973 73.4998 43.2Z" fill="black"/>
<ellipse cx="77.7953" cy="64.9951" rx="10.2049" ry="10.2049" fill="#FDD390" stroke="#2B2D31" stroke-width="2"/>
<g clip-path="url(#clip0)">
<path d="M83.0008 62.8462C82.9764 62.292 82.8868 61.9109 82.7584 61.5807C82.6259 61.2302 82.4221 60.9164 82.1551 60.6556C81.8943 60.3906 81.5784 60.1848 81.232 60.0544C80.8999 59.926 80.5208 59.8364 79.9665 59.8119C79.4081 59.7854 79.2308 59.7793 77.8145 59.7793C76.3982 59.7793 76.2209 59.7854 75.6646 59.8099C75.1103 59.8343 74.7293 59.924 74.3992 60.0523C74.0486 60.1848 73.7348 60.3886 73.4739 60.6556C73.209 60.9164 73.0032 61.2323 72.8728 61.5787C72.7444 61.9109 72.6547 62.2899 72.6303 62.8442C72.6038 63.4026 72.5977 63.5799 72.5977 64.9962C72.5977 66.4125 72.6038 66.5897 72.6282 67.1461C72.6527 67.7004 72.7424 68.0814 72.8708 68.4116C73.0032 68.7621 73.209 69.0759 73.4739 69.3368C73.7348 69.6017 74.0507 69.8075 74.3971 69.9379C74.7293 70.0663 75.1083 70.156 75.6626 70.1804C76.2189 70.2049 76.3962 70.211 77.8125 70.211C79.2288 70.211 79.4061 70.2049 79.9625 70.1804C80.5167 70.156 80.8978 70.0663 81.2279 69.9379C81.929 69.6669 82.4832 69.1126 82.7543 68.4116C82.8826 68.0794 82.9723 67.7004 82.9968 67.1461C83.0212 66.5897 83.0273 66.4125 83.0273 64.9962C83.0273 63.5799 83.0253 63.4026 83.0008 62.8462ZM82.0614 67.1053C82.039 67.6148 81.9534 67.8899 81.8821 68.0733C81.7068 68.5278 81.3461 68.8884 80.8917 69.0637C80.7083 69.135 80.4312 69.2206 79.9237 69.243C79.3735 69.2675 79.2085 69.2736 77.8166 69.2736C76.4247 69.2736 76.2576 69.2675 75.7094 69.243C75.2 69.2206 74.9249 69.135 74.7414 69.0637C74.5153 68.9801 74.3094 68.8477 74.1424 68.6745C73.9691 68.5053 73.8367 68.3015 73.7531 68.0754C73.6818 67.892 73.5962 67.6148 73.5738 67.1074C73.5493 66.5572 73.5433 66.3921 73.5433 65.0002C73.5433 63.6084 73.5493 63.4413 73.5738 62.8931C73.5962 62.3837 73.6818 62.1086 73.7531 61.9252C73.8367 61.6989 73.9691 61.4932 74.1444 61.326C74.3135 61.1528 74.5173 61.0203 74.7435 60.9368C74.9269 60.8655 75.2041 60.7799 75.7115 60.7575C76.2617 60.733 76.4268 60.7269 77.8186 60.7269C79.2125 60.7269 79.3775 60.733 79.9258 60.7575C80.4352 60.7799 80.7103 60.8655 80.8937 60.9368C81.1199 61.0203 81.3257 61.1528 81.4928 61.326C81.666 61.4951 81.7985 61.6989 81.8821 61.9252C81.9534 62.1086 82.039 62.3857 82.0614 62.8931C82.0859 63.4433 82.092 63.6084 82.092 65.0002C82.092 66.3921 82.0859 66.5551 82.0614 67.1053Z" fill="#2B2D31"/>
<path d="M77.8145 62.3164C76.3351 62.3164 75.1348 63.5167 75.1348 64.9962C75.1348 66.4757 76.3351 67.6759 77.8145 67.6759C79.294 67.6759 80.4943 66.4757 80.4943 64.9962C80.4943 63.5167 79.294 62.3164 77.8145 62.3164ZM77.8145 66.7345C76.8547 66.7345 76.0762 65.956 76.0762 64.9962C76.0762 64.0363 76.8547 63.2579 77.8145 63.2579C78.7744 63.2579 79.5528 64.0363 79.5528 64.9962C79.5528 65.956 78.7744 66.7345 77.8145 66.7345Z" fill="#2B2D31"/>
<path d="M81.2264 62.2104C81.2264 62.5559 80.9463 62.836 80.6007 62.836C80.2552 62.836 79.9751 62.5559 79.9751 62.2104C79.9751 61.8649 80.2552 61.5848 80.6007 61.5848C80.9463 61.5848 81.2264 61.8649 81.2264 62.2104Z" fill="#2B2D31"/>
</g>
<path d="M56 56.9056L45.5 39.9056L40 43L26.5 54L19 58.5V61.5L22.5 69L25.5 71L31.5 68L56 56.9056Z" fill="#37CFE1"/>
<path d="M54.1798 43.05C54.0814 42.8786 53.9501 42.7283 53.7935 42.6077C53.6369 42.487 53.4581 42.3984 53.2673 42.3469C53.0765 42.2953 52.8774 42.2819 52.6813 42.3073C52.4853 42.3327 52.2962 42.3965 52.1249 42.495C51.9535 42.5935 51.8032 42.7248 51.6825 42.8813C51.5619 43.0379 51.4733 43.2167 51.4217 43.4075C51.3702 43.5984 51.3568 43.7975 51.3822 43.9935C51.4076 44.1895 51.4714 44.3786 51.5699 44.55L58.1849 55.995L34.1848 64.995C34.1848 64.995 34.1848 64.995 34.0798 64.995H33.9598L30.0598 67.245L27.4648 68.745C27.1232 68.9425 26.746 69.0706 26.3547 69.1221C25.9635 69.1736 25.5659 69.1474 25.1848 69.045C24.4192 68.8382 23.7667 68.3366 23.3698 67.65L20.3698 62.46C20.0169 61.781 19.9368 60.9927 20.1459 60.2566C20.3551 59.5204 20.8376 58.892 21.4948 58.5L26.6848 55.5L30.4348 61.995C30.567 62.2239 30.7573 62.4138 30.9865 62.5455C31.2156 62.6772 31.4755 62.746 31.7398 62.745C32.0037 62.746 32.2631 62.6775 32.4919 62.5463C32.7208 62.415 32.911 62.2258 33.0434 61.9976C33.1757 61.7694 33.2456 61.5103 33.2458 61.2465C33.2461 60.9827 33.1768 60.7235 33.0448 60.495L29.1748 53.805L47.9998 38.28L48.6148 39.345C48.7133 39.5164 48.8446 39.6667 49.0012 39.7873C49.1578 39.9079 49.3366 39.9966 49.5274 40.0481C49.7182 40.0996 49.9173 40.1131 50.1134 40.0877C50.3094 40.0622 50.4985 39.9985 50.6698 39.9C50.8412 39.8015 50.9915 39.6702 51.1122 39.5136C51.2328 39.3571 51.3214 39.1783 51.373 38.9874C51.4245 38.7966 51.4379 38.5975 51.4125 38.4015C51.3871 38.2055 51.3233 38.0164 51.2249 37.845L49.7249 35.25C49.6149 35.062 49.4654 34.9003 49.2867 34.776C49.1079 34.6516 48.9043 34.5677 48.6898 34.53C48.4743 34.4893 48.2524 34.4965 48.0399 34.5509C47.8274 34.6053 47.6294 34.7057 47.4598 34.845L26.4598 52.155L20.0698 55.845C18.9231 56.5129 18.0302 57.5422 17.5308 58.7717C17.0314 60.0012 16.9537 61.3616 17.3098 62.64L15.8098 63.495C15.037 63.9388 14.4133 64.6021 14.0179 65.4009C13.6225 66.1996 13.4732 67.0977 13.5889 67.9814C13.7045 68.8651 14.08 69.6946 14.6677 70.3646C15.2554 71.0346 16.0288 71.5151 16.8898 71.745C17.2716 71.8461 17.665 71.8965 18.0598 71.895C18.849 71.8917 19.6239 71.6851 20.3098 71.295L21.8098 70.44C22.5304 71.1843 23.4366 71.7229 24.4348 72C24.9474 72.1434 25.4776 72.2141 26.0098 72.21C27.0642 72.2124 28.1 71.9328 29.0098 71.4L30.3148 70.65L33.3148 75.855C33.9111 76.8858 34.8915 77.6382 36.0415 77.9475C37.1914 78.2568 38.417 78.0976 39.4498 77.505C39.9622 77.2097 40.4114 76.8164 40.7717 76.3475C41.132 75.8785 41.3963 75.3432 41.5496 74.772C41.7028 74.2008 41.742 73.605 41.6648 73.0187C41.5876 72.4324 41.3957 71.8671 41.0998 71.355L38.3698 66.6L60.8699 58.155C61.0739 58.0783 61.2588 57.958 61.4116 57.8026C61.5645 57.6472 61.6816 57.4603 61.7548 57.255C61.8279 57.0521 61.8563 56.8359 61.8381 56.621C61.82 56.4062 61.7558 56.1978 61.6498 56.01L54.1798 43.05ZM18.7498 68.685C18.579 68.7837 18.3904 68.8478 18.1948 68.8736C17.9992 68.8993 17.8004 68.8862 17.6098 68.835C17.2255 68.7352 16.8965 68.487 16.6948 68.145C16.5961 67.9742 16.532 67.7855 16.5063 67.5899C16.4805 67.3943 16.4936 67.1955 16.5448 67.005C16.5961 66.8134 16.6847 66.634 16.8057 66.4769C16.9267 66.3198 17.0777 66.1883 17.2498 66.09L18.5548 65.34L20.0548 67.935L18.7498 68.685ZM38.4898 72.885C38.5886 73.0558 38.6527 73.2444 38.6784 73.44C38.7042 73.6357 38.6911 73.8344 38.6398 74.025C38.5329 74.4063 38.2794 74.7298 37.9349 74.925C37.5922 75.1218 37.1858 75.1755 36.8038 75.0744C36.4219 74.9733 36.0952 74.7255 35.8948 74.385L32.8948 69.18L35.3848 67.755H35.5048L38.4898 72.885Z" fill="black"/>
<ellipse cx="41.795" cy="16.1951" rx="11.3951" ry="11.3951" fill="#FDD390" stroke="#2B2D31" stroke-width="2"/>
<g clip-path="url(#clip1)">
<path d="M44.8681 10.4953C44.8882 11.2753 45.4306 12.0499 46.4546 12.0499C47.4123 12.0499 48.0446 11.3314 48.0446 10.451C48.0446 9.65631 47.498 8.85156 46.454 8.85156C45.8879 8.85156 45.3692 9.10445 45.0743 9.63208L42.5354 8.87047C42.2908 8.79779 42.0421 8.94315 41.9794 9.18185L40.8432 13.501C39.5221 13.5955 38.3155 13.9601 37.327 14.5108C35.6904 12.9775 33.4528 15.4756 34.9098 17.2063C33.8617 20.4808 37.6242 23.0321 41.541 23.0321C45.4885 23.0321 49.2068 20.4382 48.1722 17.2063C49.6245 15.4816 47.4035 12.9793 45.7526 14.5096C44.6477 13.8951 43.2675 13.5181 41.7644 13.4839L42.7198 9.85129L44.8681 10.4953ZM46.454 9.73785C46.9733 9.73785 47.1577 10.1219 47.1577 10.4516C47.1577 10.8457 46.916 11.1642 46.454 11.1642C45.934 11.1642 45.7503 10.7801 45.7503 10.4504C45.7503 10.0522 45.9937 9.73785 46.454 9.73785ZM36.537 15.029C36.0685 15.3876 35.6774 15.7953 35.3807 16.2414C35.1562 15.4071 35.8765 14.6863 36.537 15.029ZM41.541 22.1458C36.257 22.1458 33.6259 17.9023 37.4157 15.4703C37.665 15.3557 38.9897 14.3619 41.541 14.3619C43.7603 14.3619 44.7754 15.0615 45.6652 15.4697C49.4407 17.8917 46.8575 22.1458 41.541 22.1458ZM47.7013 16.242C47.4047 15.7953 47.0135 15.3876 46.5444 15.029C47.2185 14.6809 47.924 15.4154 47.7013 16.242Z" fill="#2B2D31"/>
<path d="M40.5405 17.676C40.5405 16.8955 39.9508 16.3726 39.2305 16.3726C38.5948 16.3726 37.9194 16.8293 37.9194 17.676C37.9194 18.4559 38.5079 18.9794 39.2294 18.9794C39.8651 18.9794 40.5405 18.5227 40.5405 17.676ZM38.8057 17.676C38.8057 17.289 39.1307 17.2588 39.2305 17.2588C39.4687 17.2588 39.6542 17.3941 39.6542 17.676C39.6542 18.063 39.3292 18.0931 39.2294 18.0931C39.1301 18.0931 38.8057 18.063 38.8057 17.676Z" fill="#2B2D31"/>
<path d="M43.8546 16.3726C43.2188 16.3726 42.5435 16.8293 42.5435 17.676C42.5435 18.4559 43.1319 18.9794 43.8534 18.9794C44.4891 18.9794 45.1645 18.5227 45.1645 17.676C45.1645 16.8955 44.5748 16.3726 43.8546 16.3726ZM43.8534 18.0931C43.7541 18.0931 43.4297 18.063 43.4297 17.676C43.4297 17.289 43.7547 17.2588 43.8546 17.2588C44.0927 17.2588 44.2782 17.3941 44.2782 17.676C44.2782 18.063 43.9532 18.0931 43.8534 18.0931Z" fill="#2B2D31"/>
<path d="M43.4902 19.7351C42.8367 20.6314 40.2676 20.6426 39.5947 19.7356C39.2638 19.2559 38.5394 19.7492 38.8614 20.2331C39.8014 21.6524 43.2828 21.653 44.2228 20.2331C44.5395 19.7587 43.8287 19.2641 43.4902 19.7351Z" fill="#2B2D31"/>
</g>
<ellipse cx="78.595" cy="17.7952" rx="12.1951" ry="12.1951" fill="#FDD390" stroke="#2B2D31" stroke-width="2"/>
<path d="M86.0895 13.5824C85.9722 13.435 85.7732 13.3828 85.5998 13.4539C85.5722 13.4652 85.545 13.4762 85.5179 13.487C85.6269 13.2971 85.7162 13.0955 85.7868 12.8811C85.8399 12.7194 85.7934 12.5414 85.6683 12.4274C85.5433 12.3133 85.3633 12.2849 85.2099 12.355C85.2079 12.3559 85.1975 12.3608 85.1798 12.3698C84.5074 12.7108 83.9831 12.9109 83.7447 12.9579C83.728 12.9432 83.7104 12.9274 83.6951 12.9137C83.3999 12.6491 82.7856 12.1042 81.5438 12.1042C80.8679 12.1042 79.9006 12.3725 79.2129 13.1415C78.6705 13.7483 78.4002 14.5429 78.4065 15.509C76.4194 15.2629 74.79 14.3581 73.4372 12.7528C73.3431 12.6412 73.199 12.586 73.0553 12.6065C72.9116 12.6269 72.7883 12.7203 72.7283 12.854C72.5452 13.2626 72.3056 13.8926 72.3387 14.6421C72.3606 15.1339 72.4958 15.5992 72.7427 16.0343C72.4901 16.0214 72.2813 16.2343 72.2981 16.4909C72.3683 17.5636 72.7577 18.3941 73.4596 18.9734C73.3261 19.0817 73.2701 19.2605 73.3174 19.4266C73.5382 20.2015 74.1844 21.0433 75.1721 21.4468C74.2795 21.9021 73.2584 22.0933 72.1702 22.0026C71.9743 21.9864 71.7927 22.1086 71.7321 22.2978C71.6715 22.4871 71.7476 22.6936 71.9159 22.7967C73.3258 23.6598 74.8543 24.0974 76.459 24.0974C79.9146 24.0974 81.9193 22.3619 82.9925 20.9061C84.3165 19.1099 84.7863 17.003 84.7863 15.7446C84.7863 15.5797 84.7815 15.5462 84.7864 15.4996C84.9513 15.3526 85.4063 15.1302 86.1088 14.0935C86.2147 13.9375 86.2068 13.7298 86.0895 13.5824ZM83.9371 15.6086C83.9377 15.6383 83.9385 15.6781 83.9385 15.7446C83.9385 16.8718 83.5126 18.7656 82.3127 20.3936C81.3554 21.6921 79.5629 23.24 76.4591 23.24C75.5587 23.24 74.6841 23.0868 73.8447 22.7832C74.8283 22.6097 75.7351 22.2095 76.5221 21.5951C76.6625 21.4856 76.7206 21.2993 76.6679 21.1283C76.6152 20.9571 76.4628 20.8372 76.2859 20.8276C75.4393 20.7817 74.7712 20.312 74.3992 19.755C74.545 19.7455 74.7187 19.7223 74.9773 19.6763C75.1699 19.642 75.3144 19.4789 75.3268 19.2814C75.3393 19.084 75.2166 18.9035 75.0298 18.8447C74.058 18.5387 73.4802 17.9804 73.2501 17.1106C73.4021 17.1501 73.5841 17.1809 73.8854 17.2191C74.0717 17.2428 74.2511 17.1397 74.3265 16.9657C74.4018 16.7919 74.3551 16.5886 74.2117 16.4661C73.1299 15.5426 73.073 14.6004 73.2722 13.8401C74.7622 15.3725 76.596 16.2557 78.8275 16.4106C79.09 16.4288 79.3046 16.2033 79.2783 15.9399C79.1836 14.989 79.3731 14.241 79.8419 13.7167C80.344 13.1552 81.0725 12.956 81.5438 12.956C82.464 12.956 82.8664 13.3167 83.1327 13.5554C83.2881 13.6946 83.4347 13.8261 83.656 13.8261C83.8107 13.8261 84.0109 13.7817 84.2323 13.7106C84.1538 13.7779 84.0699 13.8428 83.9803 13.9053C83.8229 14.0154 83.758 14.2185 83.8218 14.4009C83.8856 14.5833 84.0623 14.7 84.2533 14.6855C84.3266 14.6799 84.4007 14.6722 84.4754 14.6623C84.1816 14.8879 83.9255 15.0254 83.9371 15.6086Z" fill="#2B2D31"/>
<circle cx="14.5949" cy="26.5951" r="9.79507" fill="#FDD390" stroke="#2B2D31" stroke-width="2"/>
<g clip-path="url(#clip2)">
<path d="M19.4198 21.8855C19.2762 21.71 19.0611 21.6133 18.8142 21.6133C18.6799 21.6133 18.5377 21.6415 18.3915 21.6974L8.44192 25.4955C7.91391 25.697 7.84279 25.9994 7.84737 26.1617C7.85194 26.324 7.94009 26.6219 8.47869 26.7933C8.48192 26.7943 8.48515 26.7952 8.48837 26.7961L10.5522 27.3867L11.6683 30.5783C11.8205 31.0134 12.1621 31.2837 12.5599 31.2837C12.8107 31.2837 13.0574 31.1786 13.2733 30.9799L14.5499 29.8045L16.4014 31.2954C16.4016 31.2956 16.4019 31.2957 16.4021 31.2958L16.4196 31.31C16.4213 31.3113 16.423 31.3126 16.4246 31.3139C16.6304 31.4735 16.855 31.5578 17.0745 31.5579H17.0745C17.5033 31.5579 17.8447 31.2405 17.9441 30.7494L19.5744 22.6997C19.6398 22.3766 19.5849 22.0875 19.4198 21.8855ZM11.2426 27.2746L15.2243 25.2404L12.7451 27.8749C12.7044 27.918 12.6756 27.9708 12.6615 28.0283L12.1834 29.9648L11.2426 27.2746ZM12.8067 30.4732C12.7902 30.4884 12.7737 30.5019 12.7571 30.5144L13.2006 28.718L14.0074 29.3677L12.8067 30.4732ZM18.8994 22.563L17.2691 30.6128C17.2534 30.6898 17.2033 30.8691 17.0745 30.8691C17.0108 30.8691 16.9308 30.8344 16.8489 30.7713L14.7508 29.082C14.7506 29.0817 14.7502 29.0815 14.7499 29.0813L13.5015 28.076L17.0868 24.2663C17.2016 24.1443 17.212 23.9575 17.1115 23.8235C17.0109 23.6896 16.8286 23.6474 16.6794 23.7236L10.7825 26.7362L8.69059 26.1377L18.6372 22.3408C18.7212 22.3087 18.7798 22.302 18.8142 22.302C18.8353 22.302 18.8727 22.3045 18.8866 22.3216C18.9049 22.344 18.9282 22.4201 18.8994 22.563Z" fill="#2B2D31"/>
</g>
<defs>
<clipPath id="clip0">
<rect width="10.4317" height="10.4317" fill="white" transform="translate(72.5796 59.7793)"/>
</clipPath>
<clipPath id="clip1">
<rect width="14.1805" height="14.1805" fill="white" transform="translate(34.4517 8.85156)"/>
</clipPath>
<clipPath id="clip2">
<rect width="11.7541" height="11.7541" fill="white" transform="translate(7.84717 20.718)"/>
</clipPath>
</defs>
</svg>
