<svg width="69" height="44" viewBox="0 0 69 44" fill="none" xmlns="http://www.w3.org/2000/svg">
<path d="M66.1145 27.76H61.3145V0.999997H52.3745L29.5745 27.64L30.4145 35.08H53.0945V43H61.3145V35.08H66.1145V27.76ZM53.0945 10.96V27.82H38.6945L53.0945 10.96Z" fill="#302E35"/>
<path d="M5.48541 25.168C7.54941 25.168 8.91741 24.148 8.91741 22.6C8.91741 21.172 7.92141 20.452 5.54541 20.104C4.12941 19.9 3.52941 19.516 3.52941 18.844C3.52941 18.16 4.30941 17.668 5.41341 17.668C6.24141 17.668 7.10541 17.944 7.80141 18.472L8.50941 17.476C7.65741 16.816 6.51741 16.432 5.40141 16.432C3.48141 16.432 2.14941 17.428 2.14941 18.832C2.14941 20.308 3.12141 21.064 5.40141 21.376C6.85341 21.568 7.50141 21.94 7.50141 22.636C7.50141 23.392 6.70941 23.884 5.48541 23.884C4.45341 23.884 3.38541 23.524 2.67741 22.936L1.94541 23.992C2.92941 24.748 4.21341 25.168 5.48541 25.168ZM13.4852 23.716C13.2572 23.824 12.9812 23.896 12.7412 23.896C12.1892 23.896 11.9132 23.56 11.9132 22.96V20.212H13.6172V19.072H11.9132V17.38L10.5812 17.524V19.072H9.46519V20.212H10.5812V22.96C10.5812 24.376 11.3012 25.084 12.5252 25.084C13.0172 25.084 13.4012 25 13.8572 24.796L13.4852 23.716ZM17.5431 18.952C15.7071 18.952 14.4711 20.2 14.4711 22.036C14.4711 23.932 15.7311 25.168 17.6871 25.168C18.7071 25.168 19.6551 24.772 20.2431 24.136L19.4271 23.344C19.0671 23.716 18.3951 23.956 17.7231 23.956C16.6791 23.956 15.9591 23.404 15.8511 22.54H20.5911C20.7831 20.32 19.6311 18.952 17.5431 18.952ZM17.5791 20.116C18.5631 20.116 19.2111 20.656 19.3071 21.496H15.8631C16.0311 20.62 16.6431 20.116 17.5791 20.116ZM25.188 18.94C24.276 18.94 23.484 19.288 23.028 19.864L23.016 19.072H21.816V27.736H23.16V24.352C23.628 24.844 24.36 25.132 25.188 25.132C26.928 25.132 28.128 23.86 28.128 22.036C28.128 20.212 26.928 18.94 25.188 18.94ZM24.972 23.908C23.916 23.908 23.16 23.14 23.16 22.036C23.16 20.932 23.916 20.164 24.972 20.164C26.04 20.164 26.784 20.932 26.784 22.036C26.784 23.14 26.04 23.908 24.972 23.908Z" fill="#302E35"/>
</svg>
