<svg width="134" height="104" viewBox="0 0 134 104" fill="none" xmlns="http://www.w3.org/2000/svg">
<g clip-path="url(#clip0)">
<path d="M85.5805 88.5176L66.5176 99.5234L47.4551 88.5176V66.5058L66.5176 55.4999L85.5805 66.5058V88.5176Z" fill="white"/>
<path d="M69.5791 99.5234C69.5791 101.215 68.2079 102.586 66.5166 102.586C64.8254 102.586 63.4541 101.215 63.4541 99.5234C63.4541 97.8322 64.8254 96.4609 66.5166 96.4609C68.2079 96.4609 69.5791 97.8322 69.5791 99.5234Z" fill="#F5737F"/>
<path d="M88.6431 66.5079C88.6431 68.1992 87.2718 69.5701 85.5806 69.5701C83.8893 69.5701 82.5181 68.1992 82.5181 66.5079C82.5181 64.8163 83.8893 63.4454 85.5806 63.4454C87.2718 63.4454 88.6431 64.8163 88.6431 66.5079Z" fill="#FFCB7C"/>
<path d="M50.5176 66.5079C50.5176 68.1992 49.1463 69.5701 47.4551 69.5701C45.7638 69.5701 44.3926 68.1992 44.3926 66.5079C44.3926 64.8163 45.7638 63.4454 47.4551 63.4454C49.1463 63.4454 50.5176 64.8163 50.5176 66.5079Z" fill="#CFF1FB"/>
<path d="M79.1504 84.8048V70.2179L66.5176 77.5115V92.0985L79.1504 84.8048Z" fill="#37CFE1"/>
<path d="M53.8853 84.8048V70.2179L66.5177 77.5115V92.0985L53.8853 84.8048Z" fill="#37CFE1"/>
<path d="M89.6001 66.508C89.6001 64.2915 87.7971 62.4885 85.5806 62.4885C84.4426 62.4885 83.4141 62.9648 82.6822 63.7274L66.9962 54.6711C66.7001 54.5003 66.3356 54.5003 66.0395 54.6711L50.3531 63.7274C49.6211 62.9648 48.5931 62.4885 47.4551 62.4885C45.2386 62.4885 43.4355 64.2915 43.4355 66.508C43.4355 68.3944 44.7421 69.9807 46.4981 70.4113V88.5176C46.4981 88.8593 46.6805 89.1752 46.9766 89.3464L62.6577 98.4001C62.5538 98.7567 62.497 99.1336 62.497 99.5235C62.497 101.74 64.3 103.543 66.5165 103.543C68.7326 103.543 70.5357 101.74 70.5357 99.5235C70.5357 99.1339 70.4792 98.7578 70.3753 98.4012L86.0591 89.3464C86.3552 89.1755 86.5376 88.8593 86.5376 88.5176V70.4113C88.2935 69.9807 89.6001 68.3944 89.6001 66.508ZM45.3496 66.508C45.3496 65.3469 46.2939 64.4026 47.4551 64.4026C48.6159 64.4026 49.5602 65.3469 49.5602 66.508C49.5602 67.6688 48.6159 68.6135 47.4551 68.6135C46.2939 68.6135 45.3496 67.6688 45.3496 66.508ZM66.5165 101.629C65.3554 101.629 64.411 100.685 64.411 99.5235C64.411 98.3627 65.3554 97.418 66.5165 97.418C67.6773 97.418 68.622 98.3627 68.622 99.5235C68.622 100.685 67.6773 101.629 66.5165 101.629ZM69.4168 96.7447C68.6844 95.981 67.6556 95.5039 66.5165 95.5039C65.3782 95.5039 64.3494 95.9806 63.6174 96.7436L48.4121 87.965V70.4113C50.1677 69.9807 51.4743 68.3944 51.4743 66.508C51.4743 66.1178 51.4174 65.7405 51.3131 65.3832L66.5176 56.605L81.7225 65.3832C81.6182 65.7405 81.5614 66.1174 81.5614 66.508C81.5614 68.3944 82.868 69.9807 84.6235 70.4113V87.965L69.4168 96.7447ZM85.5806 68.6135C84.4198 68.6135 83.4751 67.6688 83.4751 66.508C83.4751 65.3469 84.4198 64.4026 85.5806 64.4026C86.7417 64.4026 87.686 65.3469 87.686 66.508C87.686 67.6688 86.7417 68.6135 85.5806 68.6135Z" fill="#1E3445"/>
<path d="M79.6291 69.3892L66.9962 62.0959C66.7002 61.9251 66.3357 61.9251 66.0396 62.0959L53.4067 69.3892C53.1107 69.5604 52.9282 69.8763 52.9282 70.218V84.8049C52.9282 85.1466 53.1107 85.4629 53.4067 85.6337L66.0396 92.9274C66.1876 93.0126 66.3525 93.0556 66.5177 93.0556C66.6833 93.0556 66.8482 93.0126 66.9962 92.9274L79.6291 85.6337C79.9252 85.4629 80.1076 85.1466 80.1076 84.8049V70.218C80.1076 69.8763 79.9252 69.5604 79.6291 69.3892ZM66.5177 64.0298L77.2365 70.218L66.5177 76.4066L55.7993 70.218L66.5177 64.0298ZM67.4748 90.4409V86.1249C67.4748 85.5963 67.0463 85.1679 66.5177 85.1679C65.9895 85.1679 65.5611 85.5963 65.5611 86.1249V90.4409L54.8423 84.2524V71.8756L66.0396 78.3404C66.1876 78.4257 66.3525 78.4687 66.5177 78.4687C66.6833 78.4687 66.8482 78.4257 66.9962 78.3404L78.1935 71.8756V84.2524L67.4748 90.4409Z" fill="#1E3445"/>
<path d="M66.5168 80.8613C66.264 80.8613 66.018 80.9634 65.839 81.1417C65.661 81.3197 65.5586 81.5664 65.5586 81.8184C65.5586 82.07 65.661 82.3167 65.839 82.4946C66.018 82.673 66.264 82.7754 66.5168 82.7754C66.7683 82.7754 67.0155 82.673 67.1934 82.4946C67.3714 82.3167 67.4738 82.07 67.4738 81.8184C67.4738 81.5664 67.3714 81.3197 67.1934 81.1417C67.0155 80.9634 66.7683 80.8613 66.5168 80.8613Z" fill="#1E3445"/>
</g>
<path d="M35.2502 18.1033C35.2502 27.6954 27.5649 35.4566 18.1027 35.4566C8.64037 35.4566 0.955078 27.6954 0.955078 18.1033C0.955078 8.51123 8.64037 0.75 18.1027 0.75C27.5649 0.75 35.2502 8.51123 35.2502 18.1033Z" fill="#FDD390" stroke="#1E3445" stroke-width="1.5"/>
<path d="M20.3656 25.5094H14.1941C13.626 25.5094 13.1654 25.0234 13.1654 24.4219C13.1654 23.8205 13.626 23.3345 14.1941 23.3345H20.3656C21.4999 23.3345 22.4225 22.3591 22.4225 21.1601C22.4225 19.9605 21.4999 18.9852 20.3656 18.9852H16.251C13.982 18.9852 12.1367 17.0345 12.1367 14.6354C12.1367 12.2368 13.982 10.2861 16.251 10.2861H22.4225C22.9906 10.2861 23.4512 10.7721 23.4512 11.3736C23.4512 11.975 22.9906 12.461 22.4225 12.461H16.251C15.1167 12.461 14.1941 13.4363 14.1941 14.6354C14.1941 15.835 15.1167 16.8103 16.251 16.8103H20.3656C22.6346 16.8103 24.4799 18.761 24.4799 21.1601C24.4799 23.5587 22.6346 25.5094 20.3656 25.5094Z" fill="#1E3445"/>
<path d="M18.3082 28.3893C17.8542 28.3893 17.4854 27.8785 17.4854 27.2464V8.96032C17.4854 8.32817 17.8542 7.81738 18.3082 7.81738C18.7623 7.81738 19.1311 8.32817 19.1311 8.96032V27.2464C19.1311 27.8785 18.7623 28.3893 18.3082 28.3893Z" fill="#1E3445"/>
<path d="M133.05 18.1057C133.05 27.6992 125.364 35.4615 115.9 35.4615C106.436 35.4615 98.75 27.6992 98.75 18.1057C98.75 8.51233 106.436 0.75 115.9 0.75C125.364 0.75 133.05 8.51233 133.05 18.1057Z" fill="#FDD390" stroke="#1E3445" stroke-width="1.5"/>
<path d="M113.904 16.9271L115.981 21.4568L119.067 19.7029H119.073V16.1938L113.904 16.9271Z" fill="#2BBDF7"/>
<path d="M123.058 13.5607L121.132 12.8485L119.072 12.6831V16.1936V23.6197L122.162 25.375L124.627 20.4317L123.064 15.6735L123.058 13.5607Z" fill="#2891F9"/>
<path d="M122.879 12.6831L122.163 14.4383V25.3483L125.252 23.5917V12.6831H122.879Z" fill="#2BBDF7"/>
<path d="M122.162 10.9292L119.072 12.683L122.162 14.4383L125.252 12.683L122.162 10.9292Z" fill="#2B6DEF"/>
<path d="M115.981 17.9474L112.891 14.5379L106.71 12.6831V23.5917L109.8 25.3483L110.684 19.3101L112.891 19.7027L115.981 21.4565V17.9474Z" fill="#2891F9"/>
<path d="M109.8 10.9294L106.71 12.6833L115.982 17.9476L117.382 17.1541L119.073 16.1938L109.8 10.9294Z" fill="#2B6DEF"/>
<path d="M109.8 17.9475V25.3484L112.892 23.5918V19.7028L109.8 17.9475Z" fill="#2BBDF7"/>
<path fill-rule="evenodd" clip-rule="evenodd" d="M16.3498 36.5175C16.3498 35.9589 16.8027 35.506 17.3614 35.506C17.92 35.506 18.3729 35.9589 18.3729 36.5175V39.3137C18.3729 39.8724 17.92 40.3253 17.3614 40.3253C16.8027 40.3253 16.3498 39.8724 16.3498 39.3137V36.5175ZM16.3496 46.1561C16.3496 45.5975 16.8025 45.1446 17.3612 45.1446C17.9198 45.1446 18.3727 45.5975 18.3727 46.1561V48.9523C18.3727 49.511 17.9198 49.9639 17.3612 49.9639C16.8025 49.9639 16.3496 49.511 16.3496 48.9523V46.1561ZM18.3727 55.7947C18.3727 55.236 17.9198 54.7831 17.3612 54.7831C16.8025 54.7831 16.3496 55.236 16.3496 55.7947V58.5908C16.3496 59.1495 16.8025 59.6024 17.3612 59.6024C17.9198 59.6024 18.3727 59.1495 18.3727 58.5908V55.7947ZM16.3496 65.4332C16.3496 64.8746 16.8025 64.4217 17.3612 64.4217C17.9198 64.4217 18.3727 64.8746 18.3727 65.4332V68.2294C18.3727 68.7881 17.9198 69.241 17.3612 69.241C16.8025 69.241 16.3496 68.7881 16.3496 68.2294V65.4332ZM18.3727 75.0718C18.3727 74.5131 17.9198 74.0602 17.3612 74.0602C16.8025 74.0602 16.3496 74.5131 16.3496 75.0718V77.868C16.3496 78.4266 16.8025 78.8795 17.3612 78.8795C17.9198 78.8795 18.3727 78.4266 18.3727 77.868V75.0718ZM21.1545 77.6747C21.1545 77.0093 21.694 76.4699 22.3594 76.4699H23.7431C24.4085 76.4699 24.9479 77.0093 24.9479 77.6747C24.9479 78.3401 24.4085 78.8795 23.7431 78.8795H22.3594C21.694 78.8795 21.1545 78.3401 21.1545 77.6747ZM32.2818 77.6747C32.2818 77.0093 31.7424 76.4699 31.077 76.4699H29.9461C29.2807 76.4699 28.7413 77.0093 28.7413 77.6747C28.7413 78.3401 29.2807 78.8795 29.9461 78.8795H31.0769C31.7424 78.8795 32.2818 78.3401 32.2818 77.6747ZM36.0751 77.6747C36.0751 77.0093 36.6146 76.4699 37.28 76.4699H38.6637C39.3291 76.4699 39.8685 77.0093 39.8685 77.6747C39.8685 78.3401 39.3291 78.8795 38.6637 78.8795H37.28C36.6146 78.8795 36.0751 78.3401 36.0751 77.6747ZM47.2024 77.6747C47.2024 77.0093 46.6629 76.4699 45.9975 76.4699H44.6138C43.9484 76.4699 43.409 77.0093 43.409 77.6747C43.409 78.3401 43.9484 78.8795 44.6138 78.8795H45.9975C46.6629 78.8795 47.2024 78.3401 47.2024 77.6747Z" fill="#1E3445"/>
<path d="M18.8729 39.3137V36.5175H17.8729V39.3137H18.8729ZM15.8498 36.5175V39.3137H16.8498V36.5175H15.8498ZM18.8727 48.9523V46.1561H17.8727V48.9523H18.8727ZM15.8496 46.1561V48.9523H16.8496V46.1561H15.8496ZM16.8496 58.5908V55.7947H15.8496V58.5908H16.8496ZM17.8727 55.7947V58.5908H18.8727V55.7947H17.8727ZM18.8727 68.2294V65.4332H17.8727V68.2294H18.8727ZM15.8496 65.4332V68.2294H16.8496V65.4332H15.8496ZM16.8496 77.868V75.0718H15.8496V77.868H16.8496ZM17.8727 75.0718V77.868H18.8727V75.0718H17.8727ZM23.7431 75.9699H22.3594V76.9699H23.7431V75.9699ZM22.3594 79.3795H23.7431V78.3795H22.3594V79.3795ZM29.9461 76.9699H31.077V75.9699H29.9461V76.9699ZM31.0769 78.3795H29.9461V79.3795H31.0769V78.3795ZM38.6637 75.9699H37.28V76.9699H38.6637V75.9699ZM37.28 79.3795H38.6637V78.3795H37.28V79.3795ZM44.6138 76.9699H45.9975V75.9699H44.6138V76.9699ZM45.9975 78.3795H44.6138V79.3795H45.9975V78.3795ZM45.9975 79.3795C46.9391 79.3795 47.7024 78.6162 47.7024 77.6747H46.7024C46.7024 78.064 46.3868 78.3795 45.9975 78.3795V79.3795ZM42.909 77.6747C42.909 78.6162 43.6723 79.3795 44.6138 79.3795V78.3795C44.2246 78.3795 43.909 78.064 43.909 77.6747H42.909ZM45.9975 76.9699C46.3868 76.9699 46.7024 77.2854 46.7024 77.6747H47.7024C47.7024 76.7331 46.9391 75.9699 45.9975 75.9699V76.9699ZM44.6138 75.9699C43.6723 75.9699 42.909 76.7332 42.909 77.6747H43.909C43.909 77.2854 44.2246 76.9699 44.6138 76.9699V75.9699ZM37.28 78.3795C36.8907 78.3795 36.5751 78.064 36.5751 77.6747H35.5751C35.5751 78.6162 36.3384 79.3795 37.28 79.3795V78.3795ZM39.3685 77.6747C39.3685 78.064 39.053 78.3795 38.6637 78.3795V79.3795C39.6052 79.3795 40.3685 78.6162 40.3685 77.6747H39.3685ZM37.28 75.9699C36.3384 75.9699 35.5751 76.7331 35.5751 77.6747H36.5751C36.5751 77.2854 36.8907 76.9699 37.28 76.9699V75.9699ZM38.6637 76.9699C39.053 76.9699 39.3685 77.2854 39.3685 77.6747H40.3685C40.3685 76.7332 39.6052 75.9699 38.6637 75.9699V76.9699ZM31.0769 79.3795C32.0185 79.3795 32.7818 78.6162 32.7818 77.6747H31.7818C31.7818 78.064 31.4662 78.3795 31.0769 78.3795V79.3795ZM28.2413 77.6747C28.2413 78.6162 29.0046 79.3795 29.9461 79.3795V78.3795C29.5568 78.3795 29.2413 78.064 29.2413 77.6747H28.2413ZM31.077 76.9699C31.4662 76.9699 31.7818 77.2854 31.7818 77.6747H32.7818C32.7818 76.7332 32.0185 75.9699 31.077 75.9699V76.9699ZM29.9461 75.9699C29.0046 75.9699 28.2413 76.7332 28.2413 77.6747H29.2413C29.2413 77.2854 29.5568 76.9699 29.9461 76.9699V75.9699ZM22.3594 78.3795C21.9701 78.3795 21.6545 78.064 21.6545 77.6747H20.6545C20.6545 78.6162 21.4178 79.3795 22.3594 79.3795V78.3795ZM24.4479 77.6747C24.4479 78.064 24.1324 78.3795 23.7431 78.3795V79.3795C24.6846 79.3795 25.4479 78.6162 25.4479 77.6747H24.4479ZM22.3594 75.9699C21.4178 75.9699 20.6545 76.7331 20.6545 77.6747H21.6545C21.6545 77.2854 21.9701 76.9699 22.3594 76.9699V75.9699ZM23.7431 76.9699C24.1324 76.9699 24.4479 77.2854 24.4479 77.6747H25.4479C25.4479 76.7332 24.6846 75.9699 23.7431 75.9699V76.9699ZM17.3612 79.3795C18.196 79.3795 18.8727 78.7028 18.8727 77.868H17.8727C17.8727 78.1505 17.6437 78.3795 17.3612 78.3795V79.3795ZM15.8496 77.868C15.8496 78.7028 16.5264 79.3795 17.3612 79.3795V78.3795C17.0786 78.3795 16.8496 78.1505 16.8496 77.868H15.8496ZM17.3612 74.5602C17.6437 74.5602 17.8727 74.7893 17.8727 75.0718H18.8727C18.8727 74.237 18.196 73.5602 17.3612 73.5602V74.5602ZM17.3612 73.5602C16.5264 73.5602 15.8496 74.237 15.8496 75.0718H16.8496C16.8496 74.7893 17.0786 74.5602 17.3612 74.5602V73.5602ZM17.3612 68.741C17.0786 68.741 16.8496 68.5119 16.8496 68.2294H15.8496C15.8496 69.0642 16.5264 69.741 17.3612 69.741V68.741ZM17.8727 68.2294C17.8727 68.5119 17.6437 68.741 17.3612 68.741V69.741C18.196 69.741 18.8727 69.0642 18.8727 68.2294H17.8727ZM17.3612 63.9217C16.5264 63.9217 15.8496 64.5984 15.8496 65.4332H16.8496C16.8496 65.1507 17.0786 64.9217 17.3612 64.9217V63.9217ZM17.3612 64.9217C17.6437 64.9217 17.8727 65.1507 17.8727 65.4332H18.8727C18.8727 64.5984 18.196 63.9217 17.3612 63.9217V64.9217ZM17.3612 60.1024C18.196 60.1024 18.8727 59.4257 18.8727 58.5908H17.8727C17.8727 58.8734 17.6437 59.1024 17.3612 59.1024V60.1024ZM15.8496 58.5908C15.8496 59.4257 16.5264 60.1024 17.3612 60.1024V59.1024C17.0786 59.1024 16.8496 58.8734 16.8496 58.5908H15.8496ZM17.3612 55.2831C17.6437 55.2831 17.8727 55.5122 17.8727 55.7947H18.8727C18.8727 54.9599 18.196 54.2831 17.3612 54.2831V55.2831ZM17.3612 54.2831C16.5264 54.2831 15.8496 54.9599 15.8496 55.7947H16.8496C16.8496 55.5122 17.0786 55.2831 17.3612 55.2831V54.2831ZM17.3612 49.4639C17.0786 49.4639 16.8496 49.2348 16.8496 48.9523H15.8496C15.8496 49.7871 16.5264 50.4639 17.3612 50.4639V49.4639ZM17.8727 48.9523C17.8727 49.2348 17.6437 49.4639 17.3612 49.4639V50.4639C18.196 50.4639 18.8727 49.7871 18.8727 48.9523H17.8727ZM17.3612 44.6446C16.5264 44.6446 15.8496 45.3213 15.8496 46.1561H16.8496C16.8496 45.8736 17.0786 45.6446 17.3612 45.6446V44.6446ZM17.3612 45.6446C17.6437 45.6446 17.8727 45.8736 17.8727 46.1561H18.8727C18.8727 45.3213 18.196 44.6446 17.3612 44.6446V45.6446ZM17.3614 39.8253C17.0788 39.8253 16.8498 39.5962 16.8498 39.3137H15.8498C15.8498 40.1485 16.5266 40.8253 17.3614 40.8253V39.8253ZM17.8729 39.3137C17.8729 39.5962 17.6439 39.8253 17.3614 39.8253V40.8253C18.1962 40.8253 18.8729 40.1485 18.8729 39.3137H17.8729ZM17.3614 35.006C16.5266 35.006 15.8498 35.6827 15.8498 36.5175H16.8498C16.8498 36.235 17.0788 36.006 17.3614 36.006V35.006ZM17.3614 36.006C17.6439 36.006 17.8729 36.235 17.8729 36.5175H18.8729C18.8729 35.6827 18.1962 35.006 17.3614 35.006V36.006Z" fill="#1E3445"/>
<path fill-rule="evenodd" clip-rule="evenodd" d="M117.253 36.5175C117.253 35.9589 116.8 35.506 116.242 35.506C115.683 35.506 115.23 35.9589 115.23 36.5175V39.3137C115.23 39.8724 115.683 40.3253 116.242 40.3253C116.8 40.3253 117.253 39.8724 117.253 39.3137V36.5175ZM117.253 46.1561C117.253 45.5975 116.801 45.1446 116.242 45.1446C115.683 45.1446 115.23 45.5975 115.23 46.1561V48.9523C115.23 49.511 115.683 49.9638 116.242 49.9638C116.801 49.9638 117.253 49.511 117.253 48.9523V46.1561ZM115.23 55.7947C115.23 55.236 115.683 54.7831 116.242 54.7831C116.801 54.7831 117.253 55.236 117.253 55.7947V58.5908C117.253 59.1495 116.801 59.6024 116.242 59.6024C115.683 59.6024 115.23 59.1495 115.23 58.5908V55.7947ZM117.253 65.4332C117.253 64.8746 116.801 64.4217 116.242 64.4217C115.683 64.4217 115.23 64.8746 115.23 65.4332V68.2294C115.23 68.7881 115.683 69.241 116.242 69.241C116.801 69.241 117.253 68.7881 117.253 68.2294V65.4332ZM115.23 75.0718C115.23 74.5131 115.683 74.0602 116.242 74.0602C116.801 74.0602 117.253 74.5131 117.253 75.0718V77.8679C117.253 78.4266 116.801 78.8795 116.242 78.8795C115.683 78.8795 115.23 78.4266 115.23 77.8679V75.0718ZM112.448 77.6746C112.448 77.0092 111.909 76.4698 111.244 76.4698H109.86C109.195 76.4698 108.655 77.0092 108.655 77.6746C108.655 78.34 109.195 78.8794 109.86 78.8794H111.244C111.909 78.8794 112.448 78.34 112.448 77.6746ZM101.321 77.6746C101.321 77.0092 101.861 76.4698 102.526 76.4698H103.657C104.322 76.4698 104.862 77.0092 104.862 77.6746C104.862 78.34 104.322 78.8794 103.657 78.8794H102.526C101.861 78.8794 101.321 78.34 101.321 77.6746ZM97.5279 77.6746C97.5279 77.0092 96.9885 76.4698 96.3231 76.4698H94.9393C94.2739 76.4698 93.7345 77.0092 93.7345 77.6746C93.7345 78.34 94.2739 78.8794 94.9393 78.8794H96.3231C96.9885 78.8794 97.5279 78.34 97.5279 77.6746ZM86.4007 77.6746C86.4007 77.0092 86.9401 76.4698 87.6055 76.4698H88.9892C89.6546 76.4698 90.194 77.0092 90.194 77.6746C90.194 78.34 89.6546 78.8794 88.9892 78.8794H87.6055C86.9401 78.8794 86.4007 78.34 86.4007 77.6746Z" fill="#1E3445"/>
<path d="M114.73 39.3137V36.5175H115.73V39.3137H114.73ZM117.753 36.5175V39.3137H116.753V36.5175H117.753ZM114.73 48.9523V46.1561H115.73V48.9523H114.73ZM117.753 46.1561V48.9523H116.753V46.1561H117.753ZM116.753 58.5908V55.7947H117.753V58.5908H116.753ZM115.73 55.7947V58.5908H114.73V55.7947H115.73ZM114.73 68.2294V65.4332H115.73V68.2294H114.73ZM117.753 65.4332V68.2294H116.753V65.4332H117.753ZM116.753 77.8679V75.0718H117.753V77.8679H116.753ZM115.73 75.0718V77.8679H114.73V75.0718H115.73ZM109.86 75.9698H111.244V76.9698H109.86V75.9698ZM111.244 79.3794H109.86V78.3794H111.244V79.3794ZM103.657 76.9698H102.526V75.9698H103.657V76.9698ZM102.526 78.3794H103.657V79.3794H102.526V78.3794ZM94.9393 75.9698H96.3231V76.9698H94.9393V75.9698ZM96.3231 79.3794H94.9393V78.3794H96.3231V79.3794ZM88.9892 76.9698H87.6055V75.9698H88.9892V76.9698ZM87.6055 78.3794H88.9892V79.3794H87.6055V78.3794ZM87.6055 79.3794C86.6639 79.3794 85.9007 78.6161 85.9007 77.6746H86.9007C86.9007 78.0638 87.2162 78.3794 87.6055 78.3794V79.3794ZM90.694 77.6746C90.694 78.6161 89.9308 79.3794 88.9892 79.3794V78.3794C89.3785 78.3794 89.694 78.0638 89.694 77.6746H90.694ZM87.6055 76.9698C87.2162 76.9698 86.9007 77.2853 86.9007 77.6746H85.9007C85.9007 76.733 86.6639 75.9698 87.6055 75.9698V76.9698ZM88.9892 75.9698C89.9308 75.9698 90.694 76.733 90.694 77.6746H89.694C89.694 77.2853 89.3785 76.9698 88.9892 76.9698V75.9698ZM96.3231 78.3794C96.7123 78.3794 97.0279 78.0638 97.0279 77.6746H98.0279C98.0279 78.6161 97.2646 79.3794 96.3231 79.3794V78.3794ZM94.2345 77.6746C94.2345 78.0638 94.5501 78.3794 94.9393 78.3794V79.3794C93.9978 79.3794 93.2345 78.6161 93.2345 77.6746H94.2345ZM96.3231 75.9698C97.2646 75.9698 98.0279 76.733 98.0279 77.6746H97.0279C97.0279 77.2853 96.7123 76.9698 96.3231 76.9698V75.9698ZM94.9393 76.9698C94.5501 76.9698 94.2345 77.2853 94.2345 77.6746H93.2345C93.2345 76.733 93.9978 75.9698 94.9393 75.9698V76.9698ZM102.526 79.3794C101.585 79.3794 100.821 78.6161 100.821 77.6746H101.821C101.821 78.0638 102.137 78.3794 102.526 78.3794V79.3794ZM105.362 77.6746C105.362 78.6161 104.598 79.3794 103.657 79.3794V78.3794C104.046 78.3794 104.362 78.0638 104.362 77.6746H105.362ZM102.526 76.9698C102.137 76.9698 101.821 77.2853 101.821 77.6746H100.821C100.821 76.733 101.585 75.9698 102.526 75.9698V76.9698ZM103.657 75.9698C104.598 75.9698 105.362 76.733 105.362 77.6746H104.362C104.362 77.2853 104.046 76.9698 103.657 76.9698V75.9698ZM111.244 78.3794C111.633 78.3794 111.948 78.0638 111.948 77.6746H112.948C112.948 78.6161 112.185 79.3794 111.244 79.3794V78.3794ZM109.155 77.6746C109.155 78.0638 109.471 78.3794 109.86 78.3794V79.3794C108.918 79.3794 108.155 78.6161 108.155 77.6746H109.155ZM111.244 75.9698C112.185 75.9698 112.948 76.733 112.948 77.6746H111.948C111.948 77.2853 111.633 76.9698 111.244 76.9698V75.9698ZM109.86 76.9698C109.471 76.9698 109.155 77.2853 109.155 77.6746H108.155C108.155 76.733 108.918 75.9698 109.86 75.9698V76.9698ZM116.242 79.3795C115.407 79.3795 114.73 78.7028 114.73 77.8679H115.73C115.73 78.1505 115.959 78.3795 116.242 78.3795V79.3795ZM117.753 77.8679C117.753 78.7028 117.077 79.3795 116.242 79.3795V78.3795C116.524 78.3795 116.753 78.1505 116.753 77.8679H117.753ZM116.242 74.5602C115.959 74.5602 115.73 74.7893 115.73 75.0718H114.73C114.73 74.237 115.407 73.5602 116.242 73.5602V74.5602ZM116.242 73.5602C117.077 73.5602 117.753 74.237 117.753 75.0718H116.753C116.753 74.7893 116.524 74.5602 116.242 74.5602V73.5602ZM116.242 68.741C116.524 68.741 116.753 68.5119 116.753 68.2294H117.753C117.753 69.0642 117.077 69.741 116.242 69.741V68.741ZM115.73 68.2294C115.73 68.5119 115.959 68.741 116.242 68.741V69.741C115.407 69.741 114.73 69.0642 114.73 68.2294H115.73ZM116.242 63.9217C117.077 63.9217 117.753 64.5984 117.753 65.4332H116.753C116.753 65.1507 116.524 64.9217 116.242 64.9217V63.9217ZM116.242 64.9217C115.959 64.9217 115.73 65.1507 115.73 65.4332H114.73C114.73 64.5984 115.407 63.9217 116.242 63.9217V64.9217ZM116.242 60.1024C115.407 60.1024 114.73 59.4257 114.73 58.5908H115.73C115.73 58.8734 115.959 59.1024 116.242 59.1024V60.1024ZM117.753 58.5908C117.753 59.4257 117.077 60.1024 116.242 60.1024V59.1024C116.524 59.1024 116.753 58.8734 116.753 58.5908H117.753ZM116.242 55.2831C115.959 55.2831 115.73 55.5122 115.73 55.7947H114.73C114.73 54.9599 115.407 54.2831 116.242 54.2831V55.2831ZM116.242 54.2831C117.077 54.2831 117.753 54.9599 117.753 55.7947H116.753C116.753 55.5122 116.524 55.2831 116.242 55.2831V54.2831ZM116.242 49.4638C116.524 49.4638 116.753 49.2348 116.753 48.9523H117.753C117.753 49.7871 117.077 50.4638 116.242 50.4638V49.4638ZM115.73 48.9523C115.73 49.2348 115.959 49.4638 116.242 49.4638V50.4638C115.407 50.4638 114.73 49.7871 114.73 48.9523H115.73ZM116.242 44.6446C117.077 44.6446 117.753 45.3213 117.753 46.1561H116.753C116.753 45.8736 116.524 45.6446 116.242 45.6446V44.6446ZM116.242 45.6446C115.959 45.6446 115.73 45.8736 115.73 46.1561H114.73C114.73 45.3213 115.407 44.6446 116.242 44.6446V45.6446ZM116.242 39.8253C116.524 39.8253 116.753 39.5962 116.753 39.3137H117.753C117.753 40.1485 117.076 40.8253 116.242 40.8253V39.8253ZM115.73 39.3137C115.73 39.5962 115.959 39.8253 116.242 39.8253V40.8253C115.407 40.8253 114.73 40.1485 114.73 39.3137H115.73ZM116.242 35.006C117.076 35.006 117.753 35.6827 117.753 36.5175H116.753C116.753 36.235 116.524 36.006 116.242 36.006V35.006ZM116.242 36.006C115.959 36.006 115.73 36.235 115.73 36.5175H114.73C114.73 35.6827 115.407 35.006 116.242 35.006V36.006Z" fill="#1E3445"/>
<defs>
<clipPath id="clip0">
<rect width="49" height="49" fill="white" transform="translate(42 54.6385)"/>
</clipPath>
</defs>
</svg>
