<svg width="108" height="103" viewBox="0 0 108 103" fill="none" xmlns="http://www.w3.org/2000/svg">
<path d="M35.875 52.625H26.8125C25.8511 52.625 24.9291 52.2431 24.2492 51.5633C23.5694 50.8834 23.1875 49.9614 23.1875 49C23.1875 48.0386 23.5694 47.1166 24.2492 46.4367C24.9291 45.7569 25.8511 45.375 26.8125 45.375H35.875V52.625Z" fill="#37CFE1"/>
<path d="M35.875 45.375H81.1875C82.1489 45.375 83.0709 45.7569 83.7508 46.4367C84.4306 47.1166 84.8125 48.0386 84.8125 49C84.8125 49.9614 84.4306 50.8834 83.7508 51.5633C83.0709 52.2431 82.1489 52.625 81.1875 52.625H35.875V45.375Z" fill="#37CFE1"/>
<path fill-rule="evenodd" clip-rule="evenodd" d="M102.938 11.9375H79.375V14.5625H102.938C103.418 14.563 103.879 14.7542 104.219 15.094C104.558 15.4338 104.749 15.8945 104.75 16.375V23.8125H77.5625V25.4375H104.75V74.375C104.749 74.8555 104.558 75.3162 104.219 75.656C103.879 75.9958 103.418 76.187 102.938 76.1875H5.0625C4.58196 76.187 4.12127 75.9958 3.78148 75.656C3.44169 75.3162 3.25055 74.8555 3.25 74.375V25.4375H30.4375V23.8125H3.25V16.375C3.25055 15.8945 3.44169 15.4338 3.78148 15.094C4.12127 14.7542 4.58196 14.563 5.0625 14.5625H28.625V11.9375H5.0625C3.62089 11.9391 3.01937 11.9806 2 13C0.980628 14.0194 0.626649 14.9334 0.625 16.375V74.375C0.626649 75.8166 0.980628 76.4806 2 77.5C3.01937 78.5194 3.62089 78.8109 5.0625 78.8125H42.3125V89.6875H35.875C35.3943 89.6875 34.9333 89.8785 34.5934 90.2184C34.2535 90.5583 34.0625 91.0193 34.0625 91.5V98.75C34.0625 99.2307 34.2535 99.6917 34.5934 100.032C34.9333 100.372 35.3943 100.562 35.875 100.562H38.7492L40.0309 101.844C40.3708 102.184 40.8318 102.375 41.3125 102.375H44.9375C45.4182 102.375 45.8792 102.184 46.2191 101.844L47.5008 100.562H60.4992L61.7809 101.844C62.1208 102.184 62.5818 102.375 63.0625 102.375H66.6875C67.1682 102.375 67.6292 102.184 67.9691 101.844L69.2508 100.562H72.125C72.6057 100.562 73.0667 100.372 73.4066 100.032C73.7465 99.6917 73.9375 99.2307 73.9375 98.75V91.5C73.9375 91.0193 73.7465 90.5583 73.4066 90.2184C73.0667 89.8785 72.6057 89.6875 72.125 89.6875H65.6875V78.8125H102.938C104.379 78.8109 104.981 78.5194 106 77.5C107.019 76.4806 107.373 75.8166 107.375 74.375V17.375C107.375 17.1794 107.377 16.9932 107.379 16.8137L107.379 16.8124C107.392 15.6696 107.402 14.8003 106.781 13.5319C105.5 12 104.379 11.9391 102.938 11.9375ZM43.9375 78.8125H52.1875V81.25C52.1875 81.7307 52.3785 82.1917 52.7184 82.5316C53.0583 82.8715 53.5193 83.0625 54 83.0625C54.4807 83.0625 54.9417 82.8715 55.2816 82.5316C55.6215 82.1917 55.8125 81.7307 55.8125 81.25V78.8125H64.0625V89.6875H43.9375V78.8125ZM71.8977 92.3125V97.9375H36.1023V92.3125H71.8977ZM10.5 18.1875C10.5 19.1885 9.68852 20 8.6875 20C7.68648 20 6.875 19.1885 6.875 18.1875C6.875 17.1865 7.68648 16.375 8.6875 16.375C9.68852 16.375 10.5 17.1865 10.5 18.1875ZM15.9375 18.1875C15.9375 19.1885 15.126 20 14.125 20C13.124 20 12.3125 19.1885 12.3125 18.1875C12.3125 17.1865 13.124 16.375 14.125 16.375C15.126 16.375 15.9375 17.1865 15.9375 18.1875ZM19.5625 20C20.5635 20 21.375 19.1885 21.375 18.1875C21.375 17.1865 20.5635 16.375 19.5625 16.375C18.5615 16.375 17.75 17.1865 17.75 18.1875C17.75 19.1885 18.5615 20 19.5625 20ZM85.0306 45.1569C86.0499 46.1763 86.6234 47.5584 86.625 49C86.6234 50.4416 86.0499 51.8237 85.0306 52.8431C84.0112 53.8624 82.6291 54.4359 81.1875 54.4375H26.8125C25.3704 54.4375 23.9873 53.8646 22.9676 52.8449C21.9479 51.8252 21.375 50.4421 21.375 49C21.375 47.5579 21.9479 46.1748 22.9676 45.1551C23.9873 44.1354 25.3704 43.5625 26.8125 43.5625H81.1875C82.6291 43.5641 84.0112 44.1376 85.0306 45.1569ZM26.8125 47.1875C26.3318 47.1875 25.8708 47.3785 25.5309 47.7184C25.191 48.0583 25 48.5193 25 49C25 49.4807 25.191 49.9417 25.5309 50.2816C25.8708 50.6215 26.3318 50.8125 26.8125 50.8125H34.0625V47.1875H26.8125ZM81.1875 47.1875H37.6875V50.8125H81.1875C81.6682 50.8125 82.1292 50.6215 82.4691 50.2816C82.809 49.9417 83 49.4807 83 49C83 48.5193 82.809 48.0583 82.4691 47.7184C82.1292 47.3785 81.6682 47.1875 81.1875 47.1875ZM30.4375 61.6875C30.4375 60.6865 31.249 59.875 32.25 59.875H37.6875C38.6885 59.875 39.5 60.6865 39.5 61.6875C39.5 62.6885 38.6885 63.5 37.6875 63.5H32.25C31.249 63.5 30.4375 62.6885 30.4375 61.6875ZM43.125 61.6875C43.125 60.6865 43.9365 59.875 44.9375 59.875H50.375C51.376 59.875 52.1875 60.6865 52.1875 61.6875C52.1875 62.6885 51.376 63.5 50.375 63.5H44.9375C43.9365 63.5 43.125 62.6885 43.125 61.6875ZM57.625 59.875C56.624 59.875 55.8125 60.6865 55.8125 61.6875C55.8125 62.6885 56.624 63.5 57.625 63.5H63.0625C64.0635 63.5 64.875 62.6885 64.875 61.6875C64.875 60.6865 64.0635 59.875 63.0625 59.875H57.625ZM68.5 61.6875C68.5 60.6865 69.3115 59.875 70.3125 59.875H75.75C76.751 59.875 77.5625 60.6865 77.5625 61.6875C77.5625 62.6885 76.751 63.5 75.75 63.5H70.3125C69.3115 63.5 68.5 62.6885 68.5 61.6875Z" fill="#1E3445"/>
<path fill-rule="evenodd" clip-rule="evenodd" d="M73.6923 15.7619C74.2757 16.4197 75.3629 16.0587 75.4369 15.1826L76.5075 2.50644C76.573 1.73095 75.7665 1.18116 75.0686 1.52548L66.5036 5.75089C65.912 6.04279 65.7601 6.81759 66.1979 7.3112L73.6923 15.7619ZM36.3433 19.873C35.9646 20.2981 36.0166 20.953 36.4576 21.313L53.368 35.1166C53.7361 35.417 54.2647 35.417 54.6327 35.1166L71.5429 21.313C71.9839 20.953 72.0358 20.2981 71.6572 19.8731L61.2737 8.21938C61.2734 8.21904 61.2729 8.21891 61.2725 8.21906L61.2721 8.21911H46.7285L46.7281 8.21901C46.7277 8.21881 46.7272 8.21891 46.7269 8.21924L36.3433 19.873ZM41.4968 5.75085C42.0885 6.04275 42.2403 6.81754 41.8026 7.31115L34.3083 15.7619C33.7249 16.4197 32.6377 16.0587 32.5637 15.1826L31.493 2.50645C31.4275 1.73095 32.2339 1.18116 32.9319 1.52548L41.4968 5.75085Z" fill="#FDD390"/>
<path d="M75.4369 15.1826L74.9387 15.1405L74.9387 15.1405L75.4369 15.1826ZM73.6923 15.7619L73.3182 16.0937L73.3182 16.0937L73.6923 15.7619ZM76.5075 2.50644L76.0093 2.46436L76.0093 2.46436L76.5075 2.50644ZM75.0686 1.52548L75.2898 1.97388L75.2898 1.97388L75.0686 1.52548ZM66.5036 5.75089L66.7249 6.19929L66.7249 6.19929L66.5036 5.75089ZM66.1979 7.3112L65.8238 7.64295L66.1979 7.3112ZM36.4576 21.313L36.7738 20.9256L36.7738 20.9256L36.4576 21.313ZM36.3433 19.873L35.97 19.5404L36.3433 19.873ZM53.368 35.1166L53.0518 35.5039L53.0518 35.5039L53.368 35.1166ZM54.6327 35.1166L54.9489 35.5039L54.9489 35.5039L54.6327 35.1166ZM71.5429 21.313L71.2267 20.9256L71.2267 20.9256L71.5429 21.313ZM71.6572 19.8731L71.2838 20.2057L71.2838 20.2057L71.6572 19.8731ZM61.2737 8.21938L60.899 8.55051L60.9004 8.552L61.2737 8.21938ZM61.2725 8.21906L61.3527 8.71257L61.3923 8.70614L61.4303 8.6935L61.2725 8.21906ZM61.2721 8.21911V8.71911H61.3125L61.3524 8.71263L61.2721 8.21911ZM46.7285 8.21911L46.6138 8.70577L46.6704 8.71911H46.7285V8.21911ZM46.7281 8.21901L46.5045 8.66622L46.5566 8.69229L46.6133 8.70566L46.7281 8.21901ZM46.7269 8.21924L46.354 7.88618L46.3536 7.88661L46.7269 8.21924ZM41.8026 7.31115L41.4285 6.9794L41.4285 6.97941L41.8026 7.31115ZM41.4968 5.75085L41.718 5.30245L41.718 5.30245L41.4968 5.75085ZM34.3083 15.7619L34.6824 16.0937L34.6824 16.0937L34.3083 15.7619ZM32.5637 15.1826L33.0619 15.1405L33.0619 15.1405L32.5637 15.1826ZM31.493 2.50645L30.9948 2.54853L31.493 2.50645ZM32.9319 1.52548L32.7107 1.97388L32.7107 1.97388L32.9319 1.52548ZM74.9387 15.1405C74.9017 15.5785 74.3581 15.7591 74.0664 15.4302L73.3182 16.0937C74.1932 17.0804 75.8242 16.5388 75.9351 15.2246L74.9387 15.1405ZM76.0093 2.46436L74.9387 15.1405L75.9351 15.2246L77.0057 2.54852L76.0093 2.46436ZM75.2898 1.97388C75.6388 1.80172 76.042 2.07662 76.0093 2.46436L77.0057 2.54852C77.1039 1.38528 75.8943 0.560597 74.8474 1.07708L75.2898 1.97388ZM66.7249 6.19929L75.2898 1.97388L74.8474 1.07708L66.2824 5.30249L66.7249 6.19929ZM66.572 6.97945C66.3531 6.73264 66.429 6.34524 66.7249 6.19929L66.2824 5.30249C65.3949 5.74033 65.1672 6.90253 65.8238 7.64295L66.572 6.97945ZM74.0664 15.4302L66.572 6.97945L65.8238 7.64295L73.3182 16.0937L74.0664 15.4302ZM36.7738 20.9256C36.5533 20.7457 36.5273 20.4182 36.7166 20.2057L35.97 19.5404C35.402 20.1779 35.4799 21.1604 36.1414 21.7003L36.7738 20.9256ZM53.6842 34.7292L36.7738 20.9256L36.1414 21.7003L53.0518 35.5039L53.6842 34.7292ZM54.3165 34.7292C54.1325 34.8794 53.8682 34.8794 53.6842 34.7292L53.0518 35.5039C53.6039 35.9545 54.3968 35.9545 54.9489 35.5039L54.3165 34.7292ZM71.2267 20.9256L54.3165 34.7292L54.9489 35.5039L71.8591 21.7003L71.2267 20.9256ZM71.2838 20.2057C71.4732 20.4182 71.4472 20.7457 71.2267 20.9256L71.8591 21.7003C72.5205 21.1604 72.5985 20.1779 72.0305 19.5404L71.2838 20.2057ZM60.9004 8.552L71.2838 20.2057L72.0305 19.5404L61.647 7.88675L60.9004 8.552ZM61.4303 8.6935C61.2428 8.75585 61.033 8.70211 60.899 8.5505L61.6483 7.88825C61.5137 7.73597 61.303 7.68198 61.1147 7.74461L61.4303 8.6935ZM61.3524 8.71263L61.3527 8.71257L61.1922 7.72554L61.1919 7.7256L61.3524 8.71263ZM46.7285 8.71911H61.2721V7.71911H46.7285V8.71911ZM46.6133 8.70566L46.6138 8.70577L46.8433 7.73246L46.8429 7.73236L46.6133 8.70566ZM47.0999 8.55229C46.95 8.72009 46.7061 8.76704 46.5045 8.66622L46.9517 7.7718C46.7493 7.67058 46.5045 7.71773 46.354 7.88618L47.0999 8.55229ZM36.7166 20.2057L47.1002 8.55186L46.3536 7.88661L35.97 19.5404L36.7166 20.2057ZM42.1767 7.6429C42.8333 6.90248 42.6056 5.74029 41.718 5.30245L41.2756 6.19925C41.5715 6.3452 41.6474 6.7326 41.4285 6.9794L42.1767 7.6429ZM34.6824 16.0937L42.1767 7.6429L41.4285 6.97941L33.9342 15.4302L34.6824 16.0937ZM32.0654 15.2247C32.1764 16.5388 33.8073 17.0804 34.6824 16.0937L33.9342 15.4302C33.6425 15.7591 33.0989 15.5785 33.0619 15.1405L32.0654 15.2247ZM30.9948 2.54853L32.0654 15.2247L33.0619 15.1405L31.9912 2.46436L30.9948 2.54853ZM33.1531 1.07707C32.1062 0.560599 30.8965 1.38529 30.9948 2.54853L31.9912 2.46436C31.9585 2.07662 32.3617 1.80172 32.7107 1.97388L33.1531 1.07707ZM41.718 5.30245L33.1531 1.07707L32.7107 1.97388L41.2756 6.19925L41.718 5.30245Z" fill="#1E3445"/>
</svg>
