<svg width="184" height="74" viewBox="0 0 184 74" fill="none" xmlns="http://www.w3.org/2000/svg">
<path d="M47.9286 62.8844H4.79061C3.63879 62.8833 2.53447 62.4252 1.72001 61.6107C0.905548 60.7963 0.447466 59.6919 0.446289 58.5401V18.2329C0.446289 17.9971 0.539966 17.7709 0.706711 17.6042C0.873457 17.4374 1.09961 17.3438 1.33543 17.3438H47.9286C49.0804 17.3452 50.1845 17.8033 50.9989 18.6177C51.8134 19.4321 52.2715 20.5363 52.2729 21.6881V33.5847C52.2729 33.8205 52.1792 34.0467 52.0125 34.2134C51.8458 34.3802 51.6196 34.4739 51.3838 34.4739C51.148 34.4739 50.9218 34.3802 50.7551 34.2134C50.5883 34.0467 50.4947 33.8205 50.4947 33.5847V21.6881C50.4939 21.0077 50.2234 20.3555 49.7423 19.8744C49.2612 19.3933 48.6089 19.1227 47.9286 19.122H2.22456V58.5401C2.2255 59.2204 2.49616 59.8725 2.97718 60.3535C3.4582 60.8346 4.11034 61.1052 4.79061 61.1062H47.9286C48.6089 61.1052 49.261 60.8346 49.742 60.3535C50.2231 59.8725 50.4937 59.2204 50.4947 58.5401V46.6444C50.4947 46.4085 50.5883 46.1824 50.7551 46.0156C50.9218 45.8489 51.148 45.7552 51.3838 45.7552C51.6196 45.7552 51.8458 45.8489 52.0125 46.0156C52.1792 46.1824 52.2729 46.4085 52.2729 46.6444V58.5401C52.2715 59.6919 51.8134 60.796 50.9989 61.6105C50.1845 62.4249 49.0804 62.883 47.9286 62.8844Z" fill="#1E3445"/>
<path d="M52.7753 47.5292H42.3627C40.396 47.5292 38.5098 46.7479 37.1192 45.3572C35.7285 43.9666 34.9473 42.0805 34.9473 40.1138C34.9473 38.1471 35.7285 36.2609 37.1192 34.8703C38.5098 33.4796 40.396 32.6984 42.3627 32.6984H52.7753C53.4055 32.6993 54.0096 32.9501 54.4552 33.3958C54.9007 33.8415 55.1513 34.4457 55.152 35.0759V45.1498C55.152 45.7804 54.9017 46.3852 54.4561 46.8313C54.0104 47.2775 53.4059 47.5285 52.7753 47.5292ZM42.3627 34.4802C41.6224 34.4802 40.8894 34.626 40.2054 34.9093C39.5215 35.1926 38.9001 35.6078 38.3766 36.1313C37.8532 36.6547 37.4379 37.2762 37.1546 37.9601C36.8713 38.644 36.7255 39.377 36.7255 40.1173C36.7255 40.8576 36.8713 41.5906 37.1546 42.2746C37.4379 42.9585 37.8532 43.5799 38.3766 44.1034C38.9001 44.6268 39.5215 45.0421 40.2054 45.3253C40.8894 45.6086 41.6224 45.7544 42.3627 45.7544H52.7753C52.8544 45.7543 52.9327 45.7386 53.0056 45.7081C53.0786 45.6776 53.1448 45.6329 53.2004 45.5767C53.256 45.5205 53.3 45.4539 53.3297 45.3806C53.3595 45.3073 53.3744 45.2289 53.3737 45.1498V35.0759C53.3735 34.9172 53.3104 34.765 53.1983 34.6527C53.0861 34.5404 52.9341 34.4771 52.7753 34.4766L42.3627 34.4802Z" fill="#1E3445"/>
<circle cx="43" cy="40" r="2" fill="#FDD390"/>
<path d="M42.711 43.3064C42.0796 43.3063 41.4624 43.1188 40.9374 42.7679C40.4125 42.417 40.0034 41.9182 39.7618 41.3348C39.5203 40.7514 39.4572 40.1094 39.5805 39.4901C39.7038 38.8708 40.008 38.302 40.4545 37.8555C40.9011 37.4091 41.47 37.1051 42.0894 36.9819C42.7087 36.8588 43.3506 36.9221 43.934 37.1638C44.5174 37.4055 45.016 37.8147 45.3668 38.3398C45.7176 38.8648 45.9048 39.4821 45.9048 40.1135C45.9041 40.9603 45.5674 41.7721 44.9686 42.3708C44.3697 42.9694 43.5578 43.306 42.711 43.3064ZM42.711 38.6998C42.4312 38.6998 42.1577 38.7828 41.925 38.9383C41.6924 39.0938 41.5111 39.3148 41.404 39.5733C41.297 39.8318 41.269 40.1163 41.3237 40.3907C41.3783 40.6652 41.5131 40.9172 41.7111 41.115C41.909 41.3128 42.1611 41.4475 42.4356 41.502C42.7101 41.5565 42.9945 41.5283 43.253 41.4211C43.5115 41.3139 43.7324 41.1325 43.8877 40.8997C44.043 40.667 44.1258 40.3934 44.1257 40.1135C44.1254 39.7385 43.9763 39.3789 43.711 39.1138C43.4457 38.8487 43.0861 38.6998 42.711 38.6998Z" fill="#1E3445"/>
<path fill-rule="evenodd" clip-rule="evenodd" d="M83.027 35.8438C83.8563 34.2822 85.4993 33.2188 87.3906 33.2188C89.282 33.2188 90.9249 34.2822 91.7542 35.8438H83.027ZM78.7552 35.8438H63.6875C62.7296 35.8438 61.9531 36.6203 61.9531 37.5781C61.9531 38.536 62.7296 39.3125 63.6875 39.3125H78.5272C79.0943 43.7023 82.8464 47.0938 87.3906 47.0938C91.9349 47.0938 95.687 43.7023 96.254 39.3125H111.094C112.052 39.3125 112.828 38.536 112.828 37.5781C112.828 36.6203 112.052 35.8438 111.094 35.8438H96.0261C95.007 32.0286 91.527 29.2188 87.3906 29.2188C83.2543 29.2188 79.7742 32.0286 78.7552 35.8438ZM92.192 39.3125C91.6715 41.4816 89.7193 43.0938 87.3906 43.0938C85.0619 43.0938 83.1097 41.4816 82.5893 39.3125H92.192Z" fill="#1E3445"/>
<path d="M87.3906 31.2188C83.5591 31.2188 80.4531 34.3248 80.4531 38.1563C80.4531 41.9877 83.5591 45.0938 87.3906 45.0938C91.2221 45.0938 94.3281 41.9877 94.3281 38.1563C94.3281 34.3248 91.2221 31.2188 87.3906 31.2188Z" fill="#FDD390"/>
<path d="M138 17.75H137.75V18V36V36.25H138H145H145.25V36V18V17.75H145H138Z" fill="#37CFE1" stroke="white" stroke-width="0.5"/>
<path d="M152 25.75H151.75V26V38V38.25H152H155H155.25V38V26V25.75H155H152Z" fill="#37CFE1" stroke="white" stroke-width="0.5"/>
<path d="M161 31.75H160.75V32V38V38.25H161H163H163.25V38V32V31.75H163H161Z" fill="#37CFE1" stroke="white" stroke-width="0.5"/>
<path d="M145.365 20.6028H137.953C137.772 20.6028 137.598 20.6747 137.47 20.8027C137.342 20.9307 137.27 21.1043 137.27 21.2854C137.27 21.4664 137.342 21.64 137.47 21.768C137.598 21.896 137.772 21.9679 137.953 21.9679H145.366C145.547 21.9679 145.72 21.896 145.848 21.768C145.976 21.64 146.048 21.4664 146.048 21.2854C146.048 21.1043 145.976 20.9307 145.848 20.8027C145.72 20.6747 145.547 20.6028 145.366 20.6028H145.365Z" fill="#1E3445"/>
<path d="M156.435 29.6866H151.655C151.474 29.6866 151.301 29.7586 151.173 29.8866C151.045 30.0146 150.973 30.1882 150.973 30.3692C150.973 30.5502 151.045 30.7239 151.173 30.8519C151.301 30.9799 151.474 31.0518 151.655 31.0518H156.435C156.616 31.0518 156.789 30.9799 156.917 30.8519C157.045 30.7239 157.117 30.5502 157.117 30.3692C157.117 30.1882 157.045 30.0146 156.917 29.8866C156.789 29.7586 156.616 29.6866 156.435 29.6866Z" fill="#1E3445"/>
<path d="M145.365 24.4965H137.953C137.772 24.4965 137.598 24.5684 137.47 24.6964C137.342 24.8244 137.27 24.998 137.27 25.179C137.27 25.3601 137.342 25.5337 137.47 25.6617C137.598 25.7897 137.772 25.8616 137.953 25.8616H145.366C145.547 25.8616 145.72 25.7897 145.848 25.6617C145.976 25.5337 146.048 25.3601 146.048 25.179C146.048 24.998 145.976 24.8244 145.848 24.6964C145.72 24.5684 145.547 24.4965 145.366 24.4965H145.365Z" fill="#1E3445"/>
<path d="M145.365 28.3905H137.953C137.772 28.3905 137.598 28.4624 137.47 28.5904C137.342 28.7184 137.27 28.892 137.27 29.0731C137.27 29.2541 137.342 29.4277 137.47 29.5557C137.598 29.6837 137.772 29.7556 137.953 29.7556H145.366C145.547 29.7556 145.72 29.6837 145.848 29.5557C145.976 29.4277 146.048 29.2541 146.048 29.0731C146.048 28.892 145.976 28.7184 145.848 28.5904C145.72 28.4624 145.547 28.3905 145.366 28.3905H145.365Z" fill="#1E3445"/>
<path d="M145.365 32.2844H137.953C137.772 32.2844 137.598 32.3563 137.47 32.4843C137.342 32.6124 137.27 32.786 137.27 32.967C137.27 33.148 137.342 33.3216 137.47 33.4496C137.598 33.5777 137.772 33.6496 137.953 33.6496H145.366C145.547 33.6496 145.72 33.5777 145.848 33.4496C145.976 33.3216 146.048 33.148 146.048 32.967C146.048 32.786 145.976 32.6124 145.848 32.4843C145.72 32.3563 145.547 32.2844 145.366 32.2844H145.365Z" fill="#1E3445"/>
<path d="M145.003 36.1783H137.59C137.409 36.1783 137.236 36.2503 137.108 36.3783C136.98 36.5063 136.908 36.6799 136.908 36.8609C136.908 37.0419 136.98 37.2156 137.108 37.3436C137.236 37.4716 137.409 37.5435 137.59 37.5435H145.003C145.184 37.5435 145.358 37.4716 145.486 37.3436C145.614 37.2156 145.686 37.0419 145.686 36.8609C145.686 36.6799 145.614 36.5063 145.486 36.3783C145.358 36.2503 145.184 36.1783 145.003 36.1783H145.003Z" fill="#1E3445"/>
<path d="M156.435 33.5021H151.655C151.474 33.5021 151.301 33.574 151.173 33.702C151.045 33.83 150.973 34.0036 150.973 34.1846C150.973 34.3657 151.045 34.5393 151.173 34.6673C151.301 34.7953 151.474 34.8672 151.655 34.8672H156.435C156.616 34.8672 156.789 34.7953 156.917 34.6673C157.045 34.5393 157.117 34.3657 157.117 34.1846C157.117 34.0036 157.045 33.83 156.917 33.702C156.789 33.574 156.616 33.5021 156.435 33.5021Z" fill="#1E3445"/>
<path d="M156.435 37.3175H151.655C151.474 37.3175 151.301 37.3894 151.173 37.5174C151.045 37.6454 150.973 37.819 150.973 38.0001C150.973 38.1811 151.045 38.3547 151.173 38.4827C151.301 38.6107 151.474 38.6826 151.655 38.6826H156.435C156.616 38.6826 156.789 38.6107 156.917 38.4827C157.045 38.3547 157.117 38.1811 157.117 38.0001C157.117 37.819 157.045 37.6454 156.917 37.5174C156.789 37.3894 156.616 37.3175 156.435 37.3175Z" fill="#1E3445"/>
<path d="M151.655 27.2364H154.263C154.444 27.2364 154.618 27.1644 154.746 27.0364C154.874 26.9084 154.946 26.7348 154.946 26.5538C154.946 26.3728 154.874 26.1991 154.746 26.0711C154.618 25.9431 154.444 25.8712 154.263 25.8712H151.655C151.474 25.8712 151.301 25.9431 151.173 26.0711C151.045 26.1991 150.973 26.3728 150.973 26.5538C150.973 26.7348 151.045 26.9084 151.173 27.0364C151.301 27.1644 151.474 27.2364 151.655 27.2364Z" fill="#1E3445"/>
<path d="M151.655 23.4212H152.091C152.272 23.4212 152.446 23.3493 152.574 23.2212C152.702 23.0932 152.774 22.9196 152.774 22.7386C152.774 22.5576 152.702 22.384 152.574 22.256C152.446 22.1279 152.272 22.056 152.091 22.056H151.655C151.474 22.056 151.301 22.1279 151.173 22.256C151.045 22.384 150.973 22.5576 150.973 22.7386C150.973 22.9196 151.045 23.0932 151.173 23.2212C151.301 23.3493 151.474 23.4212 151.655 23.4212Z" fill="#1E3445"/>
<path d="M128 27.75H127.75V28V36V36.25H128H132H132.25V36V28V27.75H132H128Z" fill="#37CFE1" stroke="white" stroke-width="0.5"/>
<path d="M145.365 16.7087H137.953C137.772 16.7087 137.598 16.7807 137.47 16.9087C137.342 17.0367 137.27 17.2103 137.27 17.3913C137.27 17.5723 137.342 17.746 137.47 17.874C137.598 18.002 137.772 18.0739 137.953 18.0739H145.366C145.547 18.0739 145.72 18.002 145.848 17.874C145.976 17.746 146.048 17.5723 146.048 17.3913C146.048 17.2103 145.976 17.0367 145.848 16.9087C145.72 16.7807 145.547 16.7087 145.366 16.7087H145.365Z" fill="#1E3445"/>
<path d="M160.659 38.3981H162.94C163.121 38.3981 163.294 38.3262 163.422 38.1982C163.55 38.0702 163.622 37.8966 163.622 37.7155C163.622 37.5345 163.55 37.3609 163.422 37.2329C163.294 37.1049 163.121 37.033 162.94 37.033H160.659C160.478 37.033 160.304 37.1049 160.176 37.2329C160.048 37.3609 159.977 37.5345 159.977 37.7155C159.977 37.8966 160.048 38.0702 160.176 38.1982C160.304 38.3262 160.478 38.3981 160.659 38.3981Z" fill="#1E3445"/>
<path d="M160.659 35.8234H162.94C163.121 35.8234 163.294 35.7515 163.422 35.6235C163.55 35.4955 163.622 35.3219 163.622 35.1408C163.622 34.9598 163.55 34.7862 163.422 34.6582C163.294 34.5302 163.121 34.4583 162.94 34.4583H160.659C160.478 34.4583 160.304 34.5302 160.176 34.6582C160.048 34.7862 159.977 34.9598 159.977 35.1408C159.977 35.3219 160.048 35.4955 160.176 35.6235C160.304 35.7515 160.478 35.8234 160.659 35.8234Z" fill="#1E3445"/>
<path d="M160.659 33.2491H162.94C163.121 33.2491 163.294 33.1771 163.422 33.0491C163.55 32.9211 163.622 32.7475 163.622 32.5665C163.622 32.3855 163.55 32.2118 163.422 32.0838C163.294 31.9558 163.121 31.8839 162.94 31.8839H160.659C160.478 31.8839 160.304 31.9558 160.176 32.0838C160.048 32.2118 159.977 32.3855 159.977 32.5665C159.977 32.7475 160.048 32.9211 160.176 33.0491C160.304 33.1771 160.478 33.2491 160.659 33.2491Z" fill="#1E3445"/>
<path d="M132.075 27.3652H128.045C127.864 27.3652 127.691 27.4371 127.563 27.5652C127.435 27.6932 127.363 27.8668 127.363 28.0478C127.363 28.2288 127.435 28.4024 127.563 28.5305C127.691 28.6585 127.864 28.7304 128.045 28.7304H132.075C132.256 28.7304 132.43 28.6585 132.558 28.5305C132.686 28.4024 132.758 28.2288 132.758 28.0478C132.758 27.8668 132.686 27.6932 132.558 27.5652C132.43 27.4371 132.256 27.3652 132.075 27.3652Z" fill="#1E3445"/>
<path d="M132.075 29.9773H128.045C127.864 29.9773 127.691 30.0492 127.563 30.1772C127.435 30.3052 127.363 30.4788 127.363 30.6599C127.363 30.8409 127.435 31.0145 127.563 31.1425C127.691 31.2705 127.864 31.3424 128.045 31.3424H132.075C132.256 31.3424 132.43 31.2705 132.558 31.1425C132.686 31.0145 132.758 30.8409 132.758 30.6599C132.758 30.4788 132.686 30.3052 132.558 30.1772C132.43 30.0492 132.256 29.9773 132.075 29.9773Z" fill="#1E3445"/>
<path d="M132.075 35.2012H128.045C127.864 35.2012 127.691 35.2731 127.563 35.4011C127.435 35.5291 127.363 35.7027 127.363 35.8837C127.363 36.0648 127.435 36.2384 127.563 36.3664C127.691 36.4944 127.864 36.5663 128.045 36.5663H132.075C132.256 36.5663 132.43 36.4944 132.558 36.3664C132.686 36.2384 132.758 36.0648 132.758 35.8837C132.758 35.7027 132.686 35.5291 132.558 35.4011C132.43 35.2731 132.256 35.2012 132.075 35.2012Z" fill="#1E3445"/>
<path d="M132.075 32.5891H128.045C127.956 32.5891 127.867 32.6068 127.784 32.6411C127.701 32.6754 127.626 32.7257 127.563 32.789C127.499 32.8524 127.449 32.9277 127.415 33.0105C127.38 33.0933 127.363 33.182 127.363 33.2717C127.363 33.3613 127.38 33.4501 127.415 33.5329C127.449 33.6157 127.499 33.691 127.563 33.7543C127.626 33.8177 127.701 33.868 127.784 33.9023C127.867 33.9366 127.956 33.9543 128.045 33.9543H132.075C132.256 33.9543 132.43 33.8823 132.558 33.7543C132.686 33.6263 132.758 33.4527 132.758 33.2717C132.758 33.0907 132.686 32.917 132.558 32.789C132.43 32.661 132.256 32.5891 132.075 32.5891Z" fill="#1E3445"/>
<ellipse cx="158.5" cy="18" rx="5.5" ry="5" fill="#FDD390"/>
<path d="M125.352 40.8686H165.527C165.708 40.8686 165.881 40.7967 166.009 40.6687C166.137 40.5407 166.209 40.3671 166.209 40.1861V29.5437C166.209 29.3626 166.137 29.189 166.009 29.061C165.881 28.933 165.708 28.8611 165.527 28.8611H164.371V27.745C164.371 27.564 164.299 27.3904 164.171 27.2623C164.043 27.1343 163.869 27.0624 163.688 27.0624H162.605V25.7483C162.605 25.5672 162.533 25.3936 162.405 25.2656C162.277 25.1376 162.104 25.0657 161.923 25.0657C161.742 25.0657 161.568 25.1376 161.44 25.2656C161.312 25.3936 161.24 25.5672 161.24 25.7483V27.0624H160.157C159.976 27.0624 159.802 27.1343 159.674 27.2623C159.546 27.3904 159.474 27.564 159.474 27.745V28.8611H159.001V24.2661C160.133 24.1447 161.211 23.7237 162.126 23.0465C163.04 22.3693 163.758 21.4604 164.204 20.4135C164.65 19.3666 164.809 18.2197 164.664 17.0909C164.519 15.9621 164.076 14.8924 163.38 13.9921C162.684 13.0918 161.76 12.3935 160.704 11.9691C159.648 11.5448 158.498 11.4098 157.373 11.5781C156.247 11.7464 155.187 12.2119 154.301 12.9265C153.416 13.6412 152.737 14.5792 152.335 15.6437H149.351V13.0151C149.351 12.8341 149.279 12.6605 149.151 12.5325C149.023 12.4045 148.85 12.3326 148.669 12.3326H147.376V9.16784C147.376 8.98681 147.304 8.8132 147.176 8.68519C147.048 8.55718 146.874 8.48527 146.693 8.48527H142.199V6.42402C142.199 6.243 142.127 6.06938 141.999 5.94138C141.871 5.81337 141.697 5.74146 141.516 5.74146C141.335 5.74146 141.161 5.81337 141.033 5.94138C140.905 6.06938 140.833 6.243 140.833 6.42402V8.48527H136.623C136.442 8.48527 136.269 8.55718 136.141 8.68519C136.013 8.8132 135.941 8.98681 135.941 9.16784V12.3326H134.648C134.467 12.3326 134.294 12.4045 134.166 12.5325C134.038 12.6605 133.966 12.8341 133.966 13.0151V21.0608L132.534 21.7655V20.3124C132.534 20.1314 132.462 19.9577 132.334 19.8297C132.206 19.7017 132.032 19.6298 131.851 19.6298H130.633V19.0674C130.633 18.8863 130.561 18.7127 130.433 18.5847C130.305 18.4567 130.131 18.3848 129.95 18.3848C129.769 18.3848 129.596 18.4567 129.468 18.5847C129.34 18.7127 129.268 18.8863 129.268 19.0674V19.6298H127.821C127.64 19.6298 127.467 19.7017 127.339 19.8297C127.211 19.9577 127.139 20.1314 127.139 20.3124V24.4203L125.051 25.4477C124.937 25.504 124.84 25.5912 124.773 25.6994C124.706 25.8077 124.67 25.9326 124.67 26.0601V40.1861C124.67 40.3671 124.742 40.5407 124.87 40.6687C124.998 40.7967 125.171 40.8686 125.352 40.8686ZM160.84 28.4276H163.006V28.8611H160.84V28.4276ZM164.844 30.2262V39.5035H159.001V30.2262H164.844ZM158.318 12.8729C159.314 12.8728 160.287 13.1679 161.115 13.7209C161.943 14.2739 162.588 15.0599 162.969 15.9796C163.35 16.8992 163.449 17.9112 163.255 18.8876C163.061 19.8639 162.582 20.7607 161.878 21.4646C161.174 22.1686 160.277 22.6479 159.301 22.8421C158.324 23.0363 157.312 22.9366 156.393 22.5556C155.473 22.1746 154.687 21.5295 154.134 20.7017C153.581 19.874 153.286 18.9009 153.286 17.9054C153.288 16.5712 153.818 15.2921 154.762 14.3486C155.705 13.4052 156.984 12.8745 158.318 12.8729ZM149.351 17.0089H151.985C151.943 17.3058 151.922 17.6054 151.921 17.9054C151.917 19.284 152.363 20.6264 153.19 21.7295C153.718 22.4337 154.385 23.022 155.15 23.4579C155.915 23.8939 156.761 24.1683 157.636 24.2642V39.5035H149.351V17.0089ZM137.306 9.85041H146.011V12.3326H137.306V9.85041ZM135.331 13.6977H147.986V39.5035H135.331V13.6977ZM128.504 20.9949H131.169V22.4372L128.504 23.7485V20.9949ZM126.035 26.485L133.966 22.5824V39.5035H126.035L126.035 26.485Z" fill="#1E3445"/>
<path d="M157.973 20.1855C157.97 20.1855 157.967 20.1855 157.964 20.1855C157.96 20.1855 157.957 20.1855 157.954 20.1855C157.778 20.1828 157.61 20.1112 157.487 19.986C157.363 19.8609 157.294 19.6923 157.294 19.5165C157.294 19.3355 157.222 19.1619 157.094 19.0339C156.966 18.9058 156.792 18.8339 156.611 18.8339C156.43 18.8339 156.257 18.9058 156.129 19.0339C156.001 19.1619 155.929 19.3355 155.929 19.5165C155.929 19.936 156.06 20.3451 156.302 20.6877C156.544 21.0304 156.886 21.2899 157.281 21.4309V21.6734C157.281 21.8544 157.353 22.0281 157.481 22.1561C157.609 22.2841 157.782 22.356 157.963 22.356C158.144 22.356 158.318 22.2841 158.446 22.1561C158.574 22.0281 158.646 21.8544 158.646 21.6734V21.4312C159.098 21.2706 159.478 20.9556 159.72 20.5416C159.962 20.1277 160.05 19.6416 159.969 19.1691C159.887 18.6966 159.641 18.2682 159.274 17.9595C158.907 17.6508 158.443 17.4817 157.963 17.4821C157.831 17.4821 157.702 17.4428 157.592 17.3692C157.481 17.2956 157.396 17.1911 157.345 17.0687C157.294 16.9464 157.281 16.8118 157.307 16.6819C157.333 16.5521 157.397 16.4328 157.49 16.3392C157.584 16.2456 157.703 16.1818 157.833 16.156C157.963 16.1302 158.097 16.1434 158.22 16.1941C158.342 16.2448 158.447 16.3306 158.52 16.4407C158.594 16.5508 158.633 16.6802 158.633 16.8126C158.633 16.9936 158.705 17.1673 158.833 17.2953C158.961 17.4233 159.135 17.4952 159.316 17.4952C159.497 17.4952 159.67 17.4233 159.798 17.2953C159.926 17.1673 159.998 16.9936 159.998 16.8126C159.997 16.3931 159.867 15.984 159.625 15.6414C159.383 15.2987 159.041 15.0392 158.646 14.8982V14.7172C158.646 14.5362 158.574 14.3626 158.446 14.2346C158.318 14.1066 158.144 14.0347 157.963 14.0347C157.782 14.0347 157.609 14.1066 157.481 14.2346C157.353 14.3626 157.281 14.5362 157.281 14.7172V14.8979C156.829 15.0585 156.449 15.3736 156.207 15.7875C155.965 16.2014 155.877 16.6875 155.959 17.1599C156.04 17.6324 156.286 18.0608 156.653 18.3694C157.02 18.6781 157.484 18.8472 157.963 18.8469C158.14 18.8475 158.309 18.9176 158.434 19.042C158.558 19.1664 158.629 19.335 158.631 19.5113C158.632 19.6876 158.564 19.8573 158.441 19.9835C158.317 20.1097 158.15 20.1823 157.973 20.1855H157.973Z" fill="#1E3445"/>
<path d="M131.328 45.0938C131.328 44.4552 131.846 43.9375 132.484 43.9375H135.953C136.592 43.9375 137.109 44.4552 137.109 45.0938C137.109 45.7323 136.592 46.25 135.953 46.25H132.484C131.846 46.25 131.328 45.7323 131.328 45.0938Z" fill="#1E3445"/>
<path d="M139.422 45.0938C139.422 44.4552 139.94 43.9375 140.578 43.9375H144.047C144.685 43.9375 145.203 44.4552 145.203 45.0938C145.203 45.7323 144.685 46.25 144.047 46.25H140.578C139.94 46.25 139.422 45.7323 139.422 45.0938Z" fill="#1E3445"/>
<path d="M147.516 45.0938C147.516 44.4552 148.033 43.9375 148.672 43.9375H152.141C152.779 43.9375 153.297 44.4552 153.297 45.0938C153.297 45.7323 152.779 46.25 152.141 46.25H148.672C148.033 46.25 147.516 45.7323 147.516 45.0938Z" fill="#1E3445"/>
<path d="M155.609 45.0938C155.609 44.4552 156.127 43.9375 156.766 43.9375H160.234C160.873 43.9375 161.391 44.4552 161.391 45.0938C161.391 45.7323 160.873 46.25 160.234 46.25H156.766C156.127 46.25 155.609 45.7323 155.609 45.0938Z" fill="#1E3445"/>
<mask id="path-36-inside-1" fill="white">
<path fill-rule="evenodd" clip-rule="evenodd" d="M121.759 13.3567H132V15H162.786H166L165.48 13.3567H168.687H171.438C172.358 13.3577 173.073 13.3966 173.89 14.3738C174.286 15.183 174.28 15.7375 174.271 16.4665C174.27 16.5813 174.269 16.7004 174.269 16.8254V53.1875C174.268 54.1072 174.042 54.5308 173.392 55.181C172.741 55.8313 172.358 56.0173 171.438 56.0183H154.054V62.9558H158.161C158.468 62.9558 158.762 63.0777 158.979 63.2945C159.195 63.5113 159.317 63.8054 159.317 64.1121V68.7371C159.317 69.0437 159.195 69.3378 158.979 69.5547C158.762 69.7715 158.468 69.8933 158.161 69.8933H156.327L155.51 70.711C155.293 70.9278 154.999 71.0496 154.692 71.0496H152.38C152.073 71.0496 151.779 70.9278 151.562 70.711L150.745 69.8933H142.452L141.635 70.711C141.418 70.9278 141.124 71.0496 140.817 71.0496H138.505C138.198 71.0496 137.904 70.9278 137.687 70.711L136.87 69.8933H135.036C134.729 69.8933 134.435 69.7715 134.218 69.5547C134.002 69.3378 133.88 69.0437 133.88 68.7371V64.1121C133.88 63.8054 134.002 63.5113 134.218 63.2945C134.435 63.0777 134.729 62.9558 135.036 62.9558H139.143V56.0183H121.759C120.839 56.0173 120.456 55.8313 119.805 55.181C119.155 54.5308 118.929 54.1072 118.928 53.1875V16.1875C118.929 15.2679 119.155 14.6848 119.805 14.0345C120.456 13.3842 120.839 13.3577 121.759 13.3567ZM162.786 15.0313H168.687H171.438C171.744 15.0316 172.038 15.1535 172.255 15.3703C172.472 15.5871 172.594 15.881 172.594 16.1875V20.9321H168.567H165.497L165.227 21.9688H168.567H172.594V53.1875C172.594 53.4941 172.472 53.7879 172.255 54.0047C172.038 54.2215 171.744 54.3434 171.438 54.3438H121.759C121.452 54.3434 121.159 54.2215 120.942 54.0047C120.725 53.7879 120.603 53.4941 120.603 53.1875V21.9688H125V20.9321H120.603V16.1875C120.603 15.881 120.725 15.5871 120.942 15.3703C121.159 15.1535 121.452 15.0316 121.759 15.0313H162.786ZM140.179 56.0183H145.442V57.5733C145.442 57.8799 145.564 58.174 145.781 58.3909C145.998 58.6077 146.292 58.7295 146.598 58.7295C146.905 58.7295 147.199 58.6077 147.416 58.3909C147.633 58.174 147.755 57.8799 147.755 57.5733V56.0183H153.018V62.9558H140.179V56.0183ZM158.016 64.6304V68.2188H135.181V64.6304H158.016Z"/>
</mask>
<path fill-rule="evenodd" clip-rule="evenodd" d="M121.759 13.3567H132V15H162.786H166L165.48 13.3567H168.687H171.438C172.358 13.3577 173.073 13.3966 173.89 14.3738C174.286 15.183 174.28 15.7375 174.271 16.4665C174.27 16.5813 174.269 16.7004 174.269 16.8254V53.1875C174.268 54.1072 174.042 54.5308 173.392 55.181C172.741 55.8313 172.358 56.0173 171.438 56.0183H154.054V62.9558H158.161C158.468 62.9558 158.762 63.0777 158.979 63.2945C159.195 63.5113 159.317 63.8054 159.317 64.1121V68.7371C159.317 69.0437 159.195 69.3378 158.979 69.5547C158.762 69.7715 158.468 69.8933 158.161 69.8933H156.327L155.51 70.711C155.293 70.9278 154.999 71.0496 154.692 71.0496H152.38C152.073 71.0496 151.779 70.9278 151.562 70.711L150.745 69.8933H142.452L141.635 70.711C141.418 70.9278 141.124 71.0496 140.817 71.0496H138.505C138.198 71.0496 137.904 70.9278 137.687 70.711L136.87 69.8933H135.036C134.729 69.8933 134.435 69.7715 134.218 69.5547C134.002 69.3378 133.88 69.0437 133.88 68.7371V64.1121C133.88 63.8054 134.002 63.5113 134.218 63.2945C134.435 63.0777 134.729 62.9558 135.036 62.9558H139.143V56.0183H121.759C120.839 56.0173 120.456 55.8313 119.805 55.181C119.155 54.5308 118.929 54.1072 118.928 53.1875V16.1875C118.929 15.2679 119.155 14.6848 119.805 14.0345C120.456 13.3842 120.839 13.3577 121.759 13.3567ZM162.786 15.0313H168.687H171.438C171.744 15.0316 172.038 15.1535 172.255 15.3703C172.472 15.5871 172.594 15.881 172.594 16.1875V20.9321H168.567H165.497L165.227 21.9688H168.567H172.594V53.1875C172.594 53.4941 172.472 53.7879 172.255 54.0047C172.038 54.2215 171.744 54.3434 171.438 54.3438H121.759C121.452 54.3434 121.159 54.2215 120.942 54.0047C120.725 53.7879 120.603 53.4941 120.603 53.1875V21.9688H125V20.9321H120.603V16.1875C120.603 15.881 120.725 15.5871 120.942 15.3703C121.159 15.1535 121.452 15.0316 121.759 15.0313H162.786ZM140.179 56.0183H145.442V57.5733C145.442 57.8799 145.564 58.174 145.781 58.3909C145.998 58.6077 146.292 58.7295 146.598 58.7295C146.905 58.7295 147.199 58.6077 147.416 58.3909C147.633 58.174 147.755 57.8799 147.755 57.5733V56.0183H153.018V62.9558H140.179V56.0183ZM158.016 64.6304V68.2188H135.181V64.6304H158.016Z" fill="#1E3445"/>
<path d="M132 13.3567H133V12.3567H132V13.3567ZM121.759 13.3567V12.3567L121.758 12.3567L121.759 13.3567ZM132 15H131V16H132V15ZM166 15V16H167.366L166.954 14.698L166 15ZM165.48 13.3567V12.3567H164.114L164.526 13.6587L165.48 13.3567ZM171.438 13.3567L171.439 12.3567H171.438V13.3567ZM173.89 14.3738L174.788 13.9338L174.734 13.8252L174.657 13.7325L173.89 14.3738ZM174.271 16.4665L173.271 16.455V16.455L174.271 16.4665ZM174.269 16.8254H175.269V16.8243L174.269 16.8254ZM174.269 53.1875L175.269 53.1887V53.1875H174.269ZM173.392 55.181L174.099 55.8882V55.8881L173.392 55.181ZM171.438 56.0183V57.0183H171.439L171.438 56.0183ZM154.054 56.0183V55.0183H153.054V56.0183H154.054ZM154.054 62.9558H153.054V63.9558H154.054V62.9558ZM158.161 62.9558L158.161 61.9558H158.161V62.9558ZM159.317 64.1121H160.317V64.1121L159.317 64.1121ZM159.317 68.7371L160.317 68.7371V68.7371H159.317ZM158.979 69.5547L158.271 68.8476L158.271 68.8476L158.979 69.5547ZM158.161 69.8933V70.8933H158.161L158.161 69.8933ZM156.327 69.8933V68.8933H155.913L155.62 69.1862L156.327 69.8933ZM155.51 70.711L156.217 71.4181L156.217 71.4181L155.51 70.711ZM154.692 71.0496L154.692 70.0496H154.692V71.0496ZM152.38 71.0496V70.0496H152.38L152.38 71.0496ZM151.562 70.711L150.855 71.4181L150.855 71.4181L151.562 70.711ZM150.745 69.8933L151.452 69.1862L151.159 68.8933H150.745V69.8933ZM142.452 69.8933V68.8933H142.038L141.745 69.1862L142.452 69.8933ZM141.635 70.711L142.342 71.4181L142.342 71.4181L141.635 70.711ZM140.817 71.0496L140.817 70.0496H140.817V71.0496ZM138.505 71.0496V70.0496H138.505L138.505 71.0496ZM137.687 70.711L136.98 71.4181L136.98 71.4181L137.687 70.711ZM136.87 69.8933L137.577 69.1862L137.284 68.8933H136.87V69.8933ZM135.036 69.8933L135.036 70.8933H135.036V69.8933ZM134.218 69.5547L134.926 68.8476L134.925 68.8476L134.218 69.5547ZM133.88 68.7371H132.88V68.7371L133.88 68.7371ZM133.88 64.1121L132.88 64.1121V64.1121H133.88ZM134.218 63.2945L134.926 64.0016L134.926 64.0016L134.218 63.2945ZM135.036 62.9558V61.9558H135.036L135.036 62.9558ZM139.143 62.9558V63.9558H140.143V62.9558H139.143ZM139.143 56.0183H140.143V55.0183H139.143V56.0183ZM121.759 56.0183L121.758 57.0183H121.759V56.0183ZM119.805 55.181L119.098 55.8881L119.098 55.8882L119.805 55.181ZM118.928 53.1875H117.928L117.928 53.1887L118.928 53.1875ZM118.928 16.1875L117.928 16.1864V16.1875H118.928ZM119.805 14.0345L119.098 13.3274L119.098 13.3274L119.805 14.0345ZM171.438 15.0313L171.439 14.0313H171.438V15.0313ZM172.255 15.3703L172.962 14.6632L172.962 14.6632L172.255 15.3703ZM172.594 16.1875H173.594V16.1864L172.594 16.1875ZM172.594 20.9321V21.9321H173.594V20.9321H172.594ZM165.497 20.9321V19.9321H164.724L164.529 20.6799L165.497 20.9321ZM165.227 21.9688L164.259 21.7166L163.933 22.9688H165.227V21.9688ZM172.594 21.9688H173.594V20.9688H172.594V21.9688ZM172.594 53.1875L173.594 53.1887V53.1875H172.594ZM172.255 54.0047L172.962 54.7118L172.962 54.7118L172.255 54.0047ZM171.438 54.3438V55.3438H171.439L171.438 54.3438ZM121.759 54.3438L121.758 55.3438H121.759V54.3438ZM120.942 54.0047L121.649 53.2976H121.649L120.942 54.0047ZM120.603 53.1875H119.603L119.603 53.1887L120.603 53.1875ZM120.603 21.9688V20.9688H119.603V21.9688H120.603ZM125 21.9688V22.9688H126V21.9688H125ZM125 20.9321H126V19.9321H125V20.9321ZM120.603 20.9321H119.603V21.9321H120.603V20.9321ZM120.603 16.1875L119.603 16.1864V16.1875H120.603ZM120.942 15.3703L121.649 16.0774L121.649 16.0774L120.942 15.3703ZM121.759 15.0313V14.0313L121.758 14.0313L121.759 15.0313ZM145.442 56.0183H146.442V55.0183H145.442V56.0183ZM140.179 56.0183V55.0183H139.179V56.0183H140.179ZM147.755 56.0183V55.0183H146.755V56.0183H147.755ZM153.018 56.0183H154.018V55.0183H153.018V56.0183ZM153.018 62.9558V63.9558H154.018V62.9558H153.018ZM140.179 62.9558H139.179V63.9558H140.179V62.9558ZM158.016 68.2188V69.2188H159.016V68.2188H158.016ZM158.016 64.6304H159.016V63.6304H158.016V64.6304ZM135.181 68.2188H134.181V69.2188H135.181V68.2188ZM135.181 64.6304V63.6304H134.181V64.6304H135.181ZM132 12.3567H121.759V14.3567H132V12.3567ZM133 15V13.3567H131V15H133ZM162.786 14H132V16H162.786V14ZM166 14H162.786V16H166V14ZM164.526 13.6587L165.047 15.302L166.954 14.698L166.433 13.0547L164.526 13.6587ZM168.687 12.3567H165.48V14.3567H168.687V12.3567ZM171.438 12.3567H168.687V14.3567H171.438V12.3567ZM174.657 13.7325C174.153 13.1294 173.622 12.7517 173.019 12.5505C172.45 12.3611 171.89 12.3572 171.439 12.3567L171.437 14.3567C171.906 14.3572 172.162 14.3733 172.386 14.4478C172.574 14.5107 172.81 14.641 173.122 15.0152L174.657 13.7325ZM175.271 16.478C175.28 15.7228 175.293 14.9662 174.788 13.9338L172.992 14.8139C173.279 15.3998 173.279 15.7523 173.271 16.455L175.271 16.478ZM175.269 16.8243C175.269 16.7065 175.27 16.5935 175.271 16.478L173.271 16.455C173.27 16.569 173.269 16.6942 173.269 16.8266L175.269 16.8243ZM175.269 53.1875V16.8254H173.269V53.1875H175.269ZM174.099 55.8881C174.451 55.5354 174.771 55.166 174.983 54.7004C175.201 54.2225 175.268 53.7306 175.269 53.1887L173.269 53.1864C173.268 53.5641 173.222 53.7438 173.164 53.8702C173.101 54.0089 172.982 54.1764 172.684 54.4739L174.099 55.8881ZM171.439 57.0183C171.96 57.0177 172.444 56.9664 172.917 56.7592C173.382 56.5554 173.747 56.2399 174.099 55.8882L172.684 54.4739C172.386 54.7725 172.234 54.875 172.115 54.9271C172.004 54.9757 171.835 55.0179 171.437 55.0183L171.439 57.0183ZM154.054 57.0183H171.438V55.0183H154.054V57.0183ZM155.054 62.9558V56.0183H153.054V62.9558H155.054ZM158.161 61.9558H154.054V63.9558H158.161V61.9558ZM159.686 62.5874C159.281 62.183 158.733 61.9558 158.161 61.9558L158.161 63.9558C158.202 63.9558 158.242 63.9723 158.271 64.0016L159.686 62.5874ZM160.317 64.1121C160.317 63.5402 160.09 62.9918 159.686 62.5874L158.271 64.0016C158.301 64.0309 158.317 64.0707 158.317 64.1121L160.317 64.1121ZM160.317 68.7371V64.1121H158.317V68.7371H160.317ZM159.686 70.2618C160.09 69.8574 160.317 69.309 160.317 68.7371L158.317 68.7371C158.317 68.7785 158.301 68.8182 158.271 68.8476L159.686 70.2618ZM158.161 70.8933C158.733 70.8933 159.281 70.6661 159.686 70.2618L158.271 68.8476C158.242 68.8769 158.202 68.8933 158.161 68.8933L158.161 70.8933ZM156.327 70.8933H158.161V68.8933H156.327V70.8933ZM156.217 71.4181L157.035 70.6004L155.62 69.1862L154.803 70.0039L156.217 71.4181ZM154.692 72.0496C155.264 72.0496 155.812 71.8224 156.217 71.4181L154.803 70.0038C154.773 70.0331 154.734 70.0496 154.692 70.0496L154.692 72.0496ZM152.38 72.0496H154.692V70.0496H152.38V72.0496ZM150.855 71.4181C151.259 71.8225 151.808 72.0496 152.38 72.0496L152.38 70.0496C152.338 70.0496 152.299 70.0331 152.269 70.0038L150.855 71.4181ZM150.037 70.6004L150.855 71.4181L152.269 70.0039L151.452 69.1862L150.037 70.6004ZM142.452 70.8933H150.745V68.8933H142.452V70.8933ZM142.342 71.4181L143.16 70.6004L141.745 69.1862L140.928 70.0039L142.342 71.4181ZM140.817 72.0496C141.389 72.0496 141.937 71.8225 142.342 71.4181L140.928 70.0038C140.898 70.0331 140.859 70.0496 140.817 70.0496L140.817 72.0496ZM138.505 72.0496H140.817V70.0496H138.505V72.0496ZM136.98 71.4181C137.384 71.8225 137.933 72.0496 138.505 72.0496L138.505 70.0496C138.463 70.0496 138.424 70.0331 138.394 70.0038L136.98 71.4181ZM136.162 70.6004L136.98 71.4181L138.394 70.0039L137.577 69.1862L136.162 70.6004ZM135.036 70.8933H136.87V68.8933H135.036V70.8933ZM133.511 70.2618C133.916 70.6661 134.464 70.8933 135.036 70.8933L135.036 68.8933C134.995 68.8933 134.955 68.8769 134.926 68.8476L133.511 70.2618ZM132.88 68.7371C132.88 69.309 133.107 69.8574 133.511 70.2618L134.925 68.8476C134.896 68.8183 134.88 68.7785 134.88 68.7371L132.88 68.7371ZM132.88 64.1121V68.7371H134.88V64.1121H132.88ZM133.511 62.5874C133.107 62.9918 132.88 63.5402 132.88 64.1121L134.88 64.1121C134.88 64.0706 134.896 64.0309 134.926 64.0016L133.511 62.5874ZM135.036 61.9558C134.464 61.9558 133.916 62.183 133.511 62.5874L134.926 64.0016C134.955 63.9723 134.995 63.9558 135.036 63.9558L135.036 61.9558ZM139.143 61.9558H135.036V63.9558H139.143V61.9558ZM138.143 56.0183V62.9558H140.143V56.0183H138.143ZM121.759 57.0183H139.143V55.0183H121.759V57.0183ZM119.098 55.8882C119.45 56.2399 119.815 56.5554 120.28 56.7592C120.753 56.9664 121.237 57.0177 121.758 57.0183L121.76 55.0183C121.362 55.0179 121.193 54.9757 121.082 54.9271C120.963 54.875 120.811 54.7725 120.512 54.4739L119.098 55.8882ZM117.928 53.1887C117.929 53.7306 117.996 54.2225 118.214 54.7004C118.426 55.166 118.746 55.5354 119.098 55.8881L120.512 54.4739C120.215 54.1764 120.096 54.0089 120.033 53.8702C119.975 53.7438 119.929 53.5641 119.928 53.1864L117.928 53.1887ZM117.928 16.1875V53.1875H119.928V16.1875H117.928ZM119.098 13.3274C118.706 13.7192 118.397 14.1368 118.196 14.6361C117.996 15.133 117.929 15.6449 117.928 16.1864L119.928 16.1887C119.929 15.8104 119.975 15.571 120.051 15.3839C120.125 15.1992 120.254 15.0001 120.512 14.7416L119.098 13.3274ZM121.758 12.3567C121.326 12.3572 120.85 12.357 120.393 12.4946C119.887 12.6469 119.491 12.9344 119.098 13.3274L120.512 14.7416C120.77 14.4842 120.891 14.4334 120.97 14.4096C121.097 14.3712 121.273 14.3572 121.76 14.3567L121.758 12.3567ZM168.687 14.0313H162.786V16.0313H168.687V14.0313ZM171.438 14.0313H168.687V16.0313H171.438V14.0313ZM172.962 14.6632C172.558 14.2592 172.01 14.0319 171.439 14.0313L171.437 16.0313C171.479 16.0313 171.519 16.0479 171.548 16.0774L172.962 14.6632ZM173.594 16.1864C173.594 15.615 173.366 15.0672 172.962 14.6632L171.548 16.0774C171.578 16.1069 171.594 16.1469 171.594 16.1887L173.594 16.1864ZM173.594 20.9321V16.1875H171.594V20.9321H173.594ZM168.567 21.9321H172.594V19.9321H168.567V21.9321ZM165.497 21.9321H168.567V19.9321H165.497V21.9321ZM164.529 20.6799L164.259 21.7166L166.194 22.2209L166.464 21.1843L164.529 20.6799ZM168.567 20.9688H165.227V22.9688H168.567V20.9688ZM172.594 20.9688H168.567V22.9688H172.594V20.9688ZM173.594 53.1875V21.9688H171.594V53.1875H173.594ZM172.962 54.7118C173.366 54.3078 173.594 53.76 173.594 53.1887L171.594 53.1864C171.594 53.2281 171.578 53.2681 171.548 53.2976L172.962 54.7118ZM171.439 55.3438C172.01 55.3431 172.558 55.1158 172.962 54.7118L171.548 53.2976C171.519 53.3271 171.479 53.3437 171.437 53.3438L171.439 55.3438ZM121.759 55.3438H171.438V53.3438H121.759V55.3438ZM120.235 54.7118C120.639 55.1158 121.187 55.3431 121.758 55.3438L121.76 53.3438C121.718 53.3437 121.678 53.3271 121.649 53.2976L120.235 54.7118ZM119.603 53.1887C119.603 53.76 119.831 54.3078 120.235 54.7118L121.649 53.2976C121.619 53.2681 121.603 53.2281 121.603 53.1864L119.603 53.1887ZM119.603 21.9688V53.1875H121.603V21.9688H119.603ZM125 20.9688H120.603V22.9688H125V20.9688ZM126 21.9688V20.9321H124V21.9688H126ZM120.603 21.9321H125V19.9321H120.603V21.9321ZM119.603 16.1875V20.9321H121.603V16.1875H119.603ZM120.235 14.6632C119.831 15.0672 119.603 15.615 119.603 16.1864L121.603 16.1887C121.603 16.1469 121.619 16.1069 121.649 16.0774L120.235 14.6632ZM121.758 14.0313C121.187 14.0319 120.639 14.2592 120.235 14.6632L121.649 16.0774C121.678 16.0479 121.718 16.0313 121.76 16.0313L121.758 14.0313ZM162.786 14.0313H121.759V16.0313H162.786V14.0313ZM145.442 55.0183H140.179V57.0183H145.442V55.0183ZM146.442 57.5733V56.0183H144.442V57.5733H146.442ZM146.488 57.6838C146.459 57.6545 146.442 57.6147 146.442 57.5733H144.442C144.442 58.1452 144.669 58.6936 145.074 59.098L146.488 57.6838ZM146.598 57.7295C146.557 57.7295 146.517 57.7131 146.488 57.6838L145.074 59.098C145.478 59.5024 146.027 59.7295 146.598 59.7295V57.7295ZM146.709 57.6838C146.68 57.7131 146.64 57.7295 146.598 57.7295V59.7295C147.17 59.7295 147.719 59.5024 148.123 59.098L146.709 57.6838ZM146.755 57.5733C146.755 57.6147 146.738 57.6545 146.709 57.6838L148.123 59.098C148.528 58.6936 148.755 58.1452 148.755 57.5733H146.755ZM146.755 56.0183V57.5733H148.755V56.0183H146.755ZM153.018 55.0183H147.755V57.0183H153.018V55.0183ZM154.018 62.9558V56.0183H152.018V62.9558H154.018ZM140.179 63.9558H153.018V61.9558H140.179V63.9558ZM139.179 56.0183V62.9558H141.179V56.0183H139.179ZM159.016 68.2188V64.6304H157.016V68.2188H159.016ZM135.181 69.2188H158.016V67.2188H135.181V69.2188ZM134.181 64.6304V68.2188H136.181V64.6304H134.181ZM158.016 63.6304H135.181V65.6304H158.016V63.6304Z" fill="#1E3445" mask="url(#path-36-inside-1)"/>
</svg>
