<svg width="80" height="44" viewBox="0 0 80 44" fill="none" xmlns="http://www.w3.org/2000/svg">
<path d="M70.1559 21.46C73.5159 20.2 75.9159 16.78 75.9159 12.76C75.9159 5.44 69.1359 0.399998 59.4159 0.399998C49.2759 0.399998 42.6759 5.38 42.6759 13.12H50.8359C50.8359 9.88 54.1959 7.72 59.3559 7.72C64.3959 7.72 67.6959 9.88 67.6959 13.06C67.6959 16.3 64.5159 18.22 59.2359 18.22H52.5159V24.82H60.0159C65.2959 24.82 68.4159 26.86 68.4159 30.46C68.4159 34.06 64.8759 36.22 59.7159 36.22C54.1959 36.22 50.2959 33.82 50.2959 30.4H41.9559C41.9559 38.44 48.7959 43.66 59.2359 43.66C69.8559 43.66 76.8759 38.62 76.8759 30.88C76.8759 26.44 74.4159 23.08 70.1559 21.46Z" fill="#302E35"/>
<path d="M19.9854 25.168C22.0494 25.168 23.4174 24.148 23.4174 22.6C23.4174 21.172 22.4214 20.452 20.0454 20.104C18.6294 19.9 18.0294 19.516 18.0294 18.844C18.0294 18.16 18.8094 17.668 19.9134 17.668C20.7414 17.668 21.6054 17.944 22.3014 18.472L23.0094 17.476C22.1574 16.816 21.0174 16.432 19.9014 16.432C17.9814 16.432 16.6494 17.428 16.6494 18.832C16.6494 20.308 17.6214 21.064 19.9014 21.376C21.3534 21.568 22.0014 21.94 22.0014 22.636C22.0014 23.392 21.2094 23.884 19.9854 23.884C18.9534 23.884 17.8854 23.524 17.1774 22.936L16.4454 23.992C17.4294 24.748 18.7134 25.168 19.9854 25.168ZM27.9852 23.716C27.7572 23.824 27.4812 23.896 27.2412 23.896C26.6892 23.896 26.4132 23.56 26.4132 22.96V20.212H28.1172V19.072H26.4132V17.38L25.0812 17.524V19.072H23.9652V20.212H25.0812V22.96C25.0812 24.376 25.8012 25.084 27.0252 25.084C27.5172 25.084 27.9012 25 28.3572 24.796L27.9852 23.716ZM32.0431 18.952C30.2071 18.952 28.9711 20.2 28.9711 22.036C28.9711 23.932 30.2311 25.168 32.1871 25.168C33.2071 25.168 34.1551 24.772 34.7431 24.136L33.9271 23.344C33.5671 23.716 32.8951 23.956 32.2231 23.956C31.1791 23.956 30.4591 23.404 30.3511 22.54H35.0911C35.2831 20.32 34.1311 18.952 32.0431 18.952ZM32.0791 20.116C33.0631 20.116 33.7111 20.656 33.8071 21.496H30.3631C30.5311 20.62 31.1431 20.116 32.0791 20.116ZM39.688 18.94C38.776 18.94 37.984 19.288 37.528 19.864L37.516 19.072H36.316V27.736H37.66V24.352C38.128 24.844 38.86 25.132 39.688 25.132C41.428 25.132 42.628 23.86 42.628 22.036C42.628 20.212 41.428 18.94 39.688 18.94ZM39.472 23.908C38.416 23.908 37.66 23.14 37.66 22.036C37.66 20.932 38.416 20.164 39.472 20.164C40.54 20.164 41.284 20.932 41.284 22.036C41.284 23.14 40.54 23.908 39.472 23.908Z" fill="#302E35"/>
</svg>
