<svg width="34" height="34" viewBox="0 0 34 34" fill="none" xmlns="http://www.w3.org/2000/svg">
<circle cx="17.195" cy="17.1193" r="15.2438" stroke="#2B2D31" stroke-width="2"/>
<g clip-path="url(#clip0)">
<path d="M24.704 9.79016C24.4806 9.5169 24.1459 9.36646 23.7615 9.36646C23.5526 9.36646 23.3313 9.41042 23.1038 9.49736L7.61945 15.4082C6.79771 15.7218 6.68704 16.1924 6.69416 16.445C6.70127 16.6976 6.83846 17.1612 7.67667 17.4279C7.68169 17.4295 7.68672 17.431 7.69174 17.4324L10.9036 18.3516L12.6406 23.3186C12.8774 23.9957 13.409 24.4163 14.0281 24.4163C14.4185 24.4163 14.8024 24.2528 15.1385 23.9435L17.1251 22.1143L20.0066 24.4345C20.0069 24.4348 20.0073 24.4349 20.0076 24.4352L20.035 24.4572C20.0375 24.4592 20.0401 24.4613 20.0427 24.4632C20.3629 24.7117 20.7125 24.8428 21.0541 24.843H21.0542C21.7214 24.843 22.2527 24.3491 22.4075 23.5848L24.9446 11.0572C25.0465 10.5544 24.9611 10.1045 24.704 9.79016ZM11.9781 18.177L18.1748 15.0113L14.3163 19.1112C14.2531 19.1783 14.2083 19.2605 14.1862 19.35L13.4422 22.3637L11.9781 18.177ZM14.4123 23.155C14.3866 23.1786 14.3608 23.1997 14.335 23.2191L15.0253 20.4234L16.2809 21.4345L14.4123 23.155ZM23.8941 10.8444L21.357 23.3721C21.3326 23.492 21.2546 23.771 21.0541 23.771C20.955 23.771 20.8305 23.717 20.7031 23.6189L17.4379 20.9898C17.4375 20.9894 17.4369 20.989 17.4363 20.9887L15.4935 19.4242L21.0733 13.4952C21.252 13.3054 21.2681 13.0147 21.1117 12.8062C20.9551 12.5977 20.6714 12.5321 20.4393 12.6508L11.262 17.3392L8.00645 16.4078L23.4861 10.4987C23.6168 10.4488 23.7081 10.4383 23.7615 10.4383C23.7943 10.4383 23.8527 10.4422 23.8743 10.4689C23.9028 10.5036 23.9391 10.6221 23.8941 10.8444Z" fill="#2B2D31"/>
</g>
<defs>
<clipPath id="clip0">
<rect width="18.2926" height="18.2926" fill="white" transform="translate(6.69385 7.97314)"/>
</clipPath>
</defs>
</svg>
