<svg width="24" height="24" viewBox="0 0 24 24" fill="none" xmlns="http://www.w3.org/2000/svg">
<path fill-rule="evenodd" clip-rule="evenodd" d="M17.9984 17.5191C17.4693 18.2591 16.6874 18.8434 15.6716 19.2579C14.6683 19.6697 13.466 19.8797 12.0958 19.8797C10.4518 19.8797 9.07325 19.5945 7.99644 19.0311C7.22731 18.6221 6.59375 18.0684 6.11263 17.3812C5.62588 16.6912 5.38025 16.0056 5.38025 15.342C5.38025 14.9302 5.54113 14.5714 5.85725 14.2778C6.17056 13.9856 6.57275 13.8396 7.05238 13.8396C7.44463 13.8396 7.78475 13.9551 8.05981 14.1846C8.32363 14.4058 8.54938 14.7326 8.73144 15.1513C8.93469 15.6103 9.15481 15.9971 9.38769 16.299C9.61344 16.5939 9.93669 16.8401 10.3486 17.0334C10.7636 17.2254 11.3236 17.3256 12.0108 17.3256C12.9577 17.3256 13.7338 17.1253 14.3165 16.7331C14.888 16.3506 15.1646 15.8887 15.1646 15.324C15.1646 14.8802 15.0193 14.5298 14.7228 14.2543C14.4095 13.9678 13.9989 13.7452 13.5009 13.5894C12.9802 13.4308 12.2746 13.257 11.4013 13.0761C10.2118 12.8257 9.20281 12.5293 8.40125 12.1914C7.58 11.8479 6.91813 11.3707 6.43419 10.7739C5.94313 10.1661 5.69338 9.40519 5.69338 8.51062C5.69338 7.65937 5.95438 6.89006 6.47094 6.22781C6.98169 5.56988 7.72963 5.05519 8.69338 4.70606C9.64306 4.35975 10.772 4.18444 12.0519 4.18444C13.0736 4.18444 13.9724 4.30125 14.723 4.53225C15.4779 4.76325 16.1129 5.07469 16.6124 5.46C17.1163 5.84944 17.4916 6.26269 17.7258 6.69394C17.9628 7.12931 18.0843 7.56187 18.0843 7.98075C18.0843 8.38425 17.9263 8.75138 17.6144 9.06994C17.3011 9.39262 16.9046 9.55538 16.439 9.55538C16.0156 9.55538 15.6826 9.45244 15.4541 9.25219C15.2396 9.06431 15.0166 8.77219 14.7697 8.355C14.4847 7.82081 14.1389 7.39931 13.7424 7.10156C13.3571 6.81225 12.7151 6.6675 11.8303 6.6675C11.0118 6.6675 10.343 6.82894 9.84763 7.15012C9.37063 7.45762 9.13794 7.81219 9.13794 8.23237C9.13794 8.48831 9.21275 8.70394 9.368 8.8875C9.52888 9.08494 9.75894 9.25481 10.0496 9.39937C10.3501 9.54825 10.6606 9.66788 10.9709 9.75131C11.2884 9.83887 11.8218 9.96825 12.5542 10.1353C13.4812 10.3301 14.3323 10.5512 15.0843 10.7891C15.8476 11.0284 16.5054 11.3233 17.0443 11.6696C17.5918 12.0216 18.0249 12.4723 18.3341 13.0119C18.6431 13.5559 18.7998 14.2236 18.7998 15.0011C18.8 15.9304 18.5291 16.7777 17.9984 17.5191ZM23.3099 14.5477C23.4836 13.7661 23.5738 12.9564 23.5738 12.1245C23.5738 5.89256 18.4501 0.838875 12.1269 0.838875C11.4609 0.838875 10.8074 0.895875 10.1698 1.00444C9.14675 0.368625 7.93588 0 6.63913 0C2.97163 0 -6.10352e-05 2.9295 -6.10352e-05 6.54638C-6.10352e-05 7.75388 0.332939 8.88338 0.911564 9.85706C0.760626 10.5887 0.680189 11.3483 0.680189 12.1245C0.680189 18.3592 5.80531 23.4116 12.1271 23.4116C12.8439 23.4116 13.5438 23.3462 14.2239 23.2224C15.1593 23.7176 16.2262 24 17.3621 24C21.0283 24 23.9999 21.069 23.9999 17.4551C23.9999 16.4104 23.7515 15.4241 23.3099 14.5477Z" fill="#D5D5D5"/>
</svg>
