<svg width="27" height="25" viewBox="0 0 27 25" fill="none" xmlns="http://www.w3.org/2000/svg">
<path d="M26.5829 2.68204C26.2531 2.2787 25.7591 2.05664 25.1918 2.05664C24.8834 2.05664 24.5567 2.12153 24.2209 2.24986L1.36595 10.9743C0.153057 11.4372 -0.0102954 12.1318 0.000210223 12.5046C0.0107159 12.8775 0.213208 13.5618 1.45041 13.9555C1.45782 13.9577 1.46524 13.96 1.47265 13.962L6.21339 15.3187L8.77719 22.65C9.12676 23.6495 9.91139 24.2704 10.8252 24.2704C11.4013 24.2704 11.968 24.029 12.4641 23.5725L15.3964 20.8725L19.6495 24.2972C19.6499 24.2976 19.6506 24.2978 19.651 24.2982L19.6913 24.3307C19.6951 24.3336 19.699 24.3367 19.7027 24.3396C20.1754 24.7063 20.6914 24.8999 21.1955 24.9001H21.1957C22.1806 24.9001 22.9648 24.1711 23.1932 23.0431L26.938 4.55225C27.0884 3.81006 26.9623 3.14594 26.5829 2.68204ZM7.79934 15.061L16.9457 10.3885L11.2506 16.4399C11.1572 16.539 11.0911 16.6604 11.0586 16.7924L9.96041 21.2406L7.79934 15.061ZM11.3923 22.4086C11.3544 22.4434 11.3163 22.4745 11.2782 22.5032L12.297 18.3767L14.1503 19.8691L11.3923 22.4086ZM25.3875 4.23811L21.6427 22.7291C21.6067 22.9061 21.4915 23.3179 21.1955 23.3179C21.0493 23.3179 20.8655 23.2381 20.6774 23.0933L15.858 19.2128C15.8574 19.2122 15.8566 19.2116 15.8557 19.2112L12.9881 16.902L21.2239 8.15076C21.4876 7.87061 21.5115 7.44152 21.2806 7.13377C21.0495 6.82601 20.6307 6.72919 20.2881 6.90429L6.74238 13.8244L1.93717 12.4496L24.7852 3.72787C24.9782 3.65412 25.1129 3.63867 25.1918 3.63867C25.2402 3.63867 25.3263 3.64444 25.3582 3.68378C25.4003 3.73508 25.4538 3.90997 25.3875 4.23811Z" fill="#D4D4D4"/>
</svg>
