<svg width="33" height="34" viewBox="0 0 33 34" fill="none" xmlns="http://www.w3.org/2000/svg">
<path d="M25.8959 11.8533C25.7494 11.6691 25.5005 11.6038 25.2838 11.6927C25.2493 11.7067 25.2153 11.7206 25.1814 11.7341C25.3177 11.4967 25.4293 11.2447 25.5175 10.9767C25.5839 10.7746 25.5258 10.552 25.3694 10.4095C25.2132 10.2669 24.9882 10.2314 24.7964 10.3191C24.7939 10.3202 24.7809 10.3263 24.7588 10.3375C23.9183 10.7639 23.2629 11.014 22.965 11.0727C22.9441 11.0543 22.922 11.0346 22.903 11.0174C22.5339 10.6867 21.766 10.0056 20.2138 10.0056C19.3689 10.0056 18.1598 10.341 17.3002 11.3022C16.6222 12.0607 16.2843 13.0539 16.2922 14.2616C13.8084 13.954 11.7716 12.823 10.0805 10.8163C9.96292 10.6768 9.78282 10.6078 9.60312 10.6334C9.42357 10.6589 9.26941 10.7757 9.19447 10.9428C8.96551 11.4536 8.66602 12.241 8.70742 13.1779C8.73475 13.7927 8.90381 14.3744 9.21241 14.9182C8.89664 14.902 8.63565 15.1682 8.65663 15.4889C8.74441 16.8298 9.23118 17.8679 10.1085 18.5921C9.94167 18.7275 9.8717 18.9509 9.93077 19.1586C10.2068 20.1271 11.0146 21.1794 12.2492 21.6838C11.1334 22.253 9.85707 22.4919 8.49681 22.3786C8.25198 22.3583 8.02495 22.511 7.94918 22.7476C7.87341 22.9841 7.9685 23.2423 8.17897 23.3711C9.94125 24.4501 11.8519 24.997 13.8578 24.997C18.1773 24.997 20.6832 22.8277 22.0247 21.0079C23.6797 18.7626 24.267 16.1291 24.267 14.5561C24.267 14.3499 24.2609 14.3081 24.2671 14.2499C24.4732 14.0661 25.0419 13.788 25.9201 12.4922C26.0524 12.2972 26.0425 12.0375 25.8959 11.8533ZM23.2054 14.3861C23.2062 14.4232 23.2072 14.4729 23.2072 14.5561C23.2072 15.9651 22.6749 18.3324 21.1749 20.3673C19.9784 21.9904 17.7377 23.9253 13.8579 23.9253C12.7324 23.9253 11.6392 23.7339 10.5899 23.3542C11.8195 23.1374 12.953 22.6372 13.9367 21.8692C14.1121 21.7322 14.1849 21.4995 14.1189 21.2856C14.0531 21.0717 13.8626 20.9218 13.6414 20.9098C12.5832 20.8524 11.7481 20.2653 11.283 19.569C11.4653 19.5572 11.6824 19.5281 12.0056 19.4706C12.2465 19.4278 12.427 19.2239 12.4426 18.977C12.4582 18.7303 12.3049 18.5047 12.0713 18.4312C10.8566 18.0486 10.1343 17.3508 9.84672 16.2636C10.0366 16.3129 10.2642 16.3514 10.6408 16.3991C10.8737 16.4289 11.0979 16.2999 11.1922 16.0825C11.2863 15.8652 11.2279 15.611 11.0487 15.4579C9.69642 14.3036 9.62534 13.1258 9.87432 12.1754C11.7368 14.0909 14.0291 15.195 16.8184 15.3886C17.1466 15.4113 17.4148 15.1294 17.3819 14.8002C17.2635 13.6115 17.5005 12.6766 18.0865 12.0212C18.714 11.3193 19.6246 11.0703 20.2138 11.0703C21.364 11.0703 21.8671 11.5211 22.2 11.8195C22.3941 11.9935 22.5774 12.158 22.854 12.158C23.0475 12.158 23.2977 12.1024 23.5744 12.0135C23.4763 12.0977 23.3714 12.1787 23.2595 12.2569C23.0627 12.3945 22.9815 12.6484 23.0613 12.8764C23.1411 13.1045 23.3619 13.2503 23.6006 13.2322C23.6923 13.2252 23.7849 13.2156 23.8783 13.2031C23.5111 13.4852 23.1909 13.657 23.2054 14.3861Z" fill="#2B2D31"/>
<circle cx="16.528" cy="17.1193" r="15.2438" stroke="#2B2D31" stroke-width="2"/>
</svg>
