<svg width="25" height="25" viewBox="0 0 25 25" fill="none" xmlns="http://www.w3.org/2000/svg">
<mask id="path-1-inside-1" fill="white">
<path d="M13 0C6.38292 0 1 5.38292 1 12C1 14.2574 1.62723 16.4488 2.81708 18.3517C2.34308 20.0123 1.48692 23.1535 1.47769 23.1863C1.43338 23.3488 1.48092 23.5223 1.60231 23.6391C1.72369 23.7558 1.89908 23.7974 2.05877 23.7485L6.81538 22.2854C8.67862 23.4078 10.8123 24 13 24C19.6171 24 25 18.6171 25 12C25 5.38292 19.6171 0 13 0ZM13 23.0769C10.9143 23.0769 8.88262 22.494 7.12415 21.3918C7.04985 21.3452 6.96446 21.3217 6.87908 21.3217C6.83338 21.3217 6.78769 21.3286 6.74338 21.342L2.59 22.6205C2.89508 21.5068 3.44338 19.5148 3.76138 18.4066C3.79831 18.2783 3.77754 18.1398 3.70508 18.0277C2.53923 16.2337 1.92308 14.1494 1.92308 12C1.92308 5.89246 6.89246 0.923077 13 0.923077C19.1075 0.923077 24.0769 5.89246 24.0769 12C24.0769 18.1075 19.1075 23.0769 13 23.0769Z"/>
</mask>
<path d="M13 0C6.38292 0 1 5.38292 1 12C1 14.2574 1.62723 16.4488 2.81708 18.3517C2.34308 20.0123 1.48692 23.1535 1.47769 23.1863C1.43338 23.3488 1.48092 23.5223 1.60231 23.6391C1.72369 23.7558 1.89908 23.7974 2.05877 23.7485L6.81538 22.2854C8.67862 23.4078 10.8123 24 13 24C19.6171 24 25 18.6171 25 12C25 5.38292 19.6171 0 13 0ZM13 23.0769C10.9143 23.0769 8.88262 22.494 7.12415 21.3918C7.04985 21.3452 6.96446 21.3217 6.87908 21.3217C6.83338 21.3217 6.78769 21.3286 6.74338 21.342L2.59 22.6205C2.89508 21.5068 3.44338 19.5148 3.76138 18.4066C3.79831 18.2783 3.77754 18.1398 3.70508 18.0277C2.53923 16.2337 1.92308 14.1494 1.92308 12C1.92308 5.89246 6.89246 0.923077 13 0.923077C19.1075 0.923077 24.0769 5.89246 24.0769 12C24.0769 18.1075 19.1075 23.0769 13 23.0769Z" fill="#BEBEBE"/>
<path d="M2.81708 18.3517L4.74027 18.9006L4.98437 18.0454L4.51287 17.2914L2.81708 18.3517ZM1.47769 23.1863L-0.447389 22.644L-0.449645 22.652L-0.451835 22.6601L1.47769 23.1863ZM2.05877 23.7485L2.64461 25.6607L2.64676 25.6601L2.05877 23.7485ZM6.81538 22.2854L7.84743 20.5722L7.08176 20.111L6.2274 20.3738L6.81538 22.2854ZM7.12415 21.3918L6.06132 23.0861L6.062 23.0865L7.12415 21.3918ZM6.74338 21.342L6.16502 19.4274L6.155 19.4305L6.74338 21.342ZM2.59 22.6205L0.661064 22.0921L-0.300655 25.6028L3.17838 24.532L2.59 22.6205ZM3.76138 18.4066L1.83938 17.8535L1.83897 17.855L3.76138 18.4066ZM3.70508 18.0277L5.38496 16.9423L5.38207 16.9379L3.70508 18.0277ZM13 -2C5.27835 -2 -1 4.27835 -1 12H3C3 6.48749 7.48749 2 13 2V-2ZM-1 12C-1 14.6303 -0.268424 17.1895 1.12129 19.412L4.51287 17.2914C3.52289 15.7081 3 13.8844 3 12H-1ZM0.893888 17.8027C0.426104 19.4416 -0.455417 22.6725 -0.447389 22.644L3.40277 23.7286C3.42926 23.6345 4.26005 20.583 4.74027 18.9006L0.893888 17.8027ZM-0.451835 22.6601C-0.687807 23.5253 -0.435125 24.4543 0.215762 25.0804L2.98885 22.1977C3.39697 22.5903 3.55458 23.1722 3.40722 23.7125L-0.451835 22.6601ZM0.215762 25.0804C0.860166 25.7003 1.79041 25.9224 2.64461 25.6607L1.47293 21.8362C2.00774 21.6723 2.58722 21.8114 2.98885 22.1977L0.215762 25.0804ZM2.64676 25.6601L7.40337 24.197L6.2274 20.3738L1.47078 21.8368L2.64676 25.6601ZM5.78334 23.9985C7.95949 25.3095 10.4502 26 13 26V22C11.1744 22 9.39774 21.5062 7.84743 20.5722L5.78334 23.9985ZM13 26C20.7216 26 27 19.7216 27 12H23C23 17.5125 18.5125 22 13 22V26ZM27 12C27 4.27835 20.7216 -2 13 -2V2C18.5125 2 23 6.48749 23 12H27ZM13 21.0769C11.2883 21.0769 9.62497 20.5989 8.18631 19.6972L6.062 23.0865C8.14026 24.3891 10.5403 25.0769 13 25.0769V21.0769ZM8.18699 19.6976C7.78516 19.4455 7.32964 19.3217 6.87908 19.3217V23.3217C6.59928 23.3217 6.31453 23.2449 6.06132 23.0861L8.18699 19.6976ZM6.87908 19.3217C6.63119 19.3217 6.3908 19.3592 6.16503 19.4275L7.32174 23.2566C7.18458 23.298 7.03558 23.3217 6.87908 23.3217V19.3217ZM6.155 19.4305L2.00162 20.709L3.17838 24.532L7.33177 23.2535L6.155 19.4305ZM4.51894 23.1489C4.82462 22.033 5.36971 20.0528 5.6838 18.9583L1.83897 17.855C1.51706 18.9767 0.965536 20.9806 0.661064 22.0921L4.51894 23.1489ZM5.68339 18.9597C5.88111 18.2726 5.76923 17.5371 5.38496 16.9423L2.0252 19.113C1.78585 18.7426 1.71551 18.284 1.83938 17.8535L5.68339 18.9597ZM5.38207 16.9379C4.42808 15.4699 3.92308 13.7645 3.92308 12H-0.0769231C-0.0769231 14.5343 0.650379 16.9975 2.02808 19.1175L5.38207 16.9379ZM3.92308 12C3.92308 6.99703 7.99703 2.92308 13 2.92308V-1.07692C5.78789 -1.07692 -0.0769231 4.78789 -0.0769231 12H3.92308ZM13 2.92308C18.003 2.92308 22.0769 6.99703 22.0769 12H26.0769C26.0769 4.78789 20.2121 -1.07692 13 -1.07692V2.92308ZM22.0769 12C22.0769 17.003 18.003 21.0769 13 21.0769V25.0769C20.2121 25.0769 26.0769 19.2121 26.0769 12H22.0769Z" fill="#BEBEBE" mask="url(#path-1-inside-1)"/>
<path d="M6.49886 10.453L5.64595 10.7811C5.64594 10.7811 5.64592 10.781 5.64591 10.781C4.54434 7.91659 6.46341 5.49479 7.00356 4.89131C7.07491 4.81159 7.1222 4.7636 7.13529 4.75052L6.49886 10.453Z" fill="#BEBEBE" stroke="#BEBEBE" stroke-width="2"/>
</svg>
